{"glyphs":{"0":{"ha":783,"x_min":82,"x_max":701,"o":"m 82 481 q 163 854 82 725 q 392 983 243 983 q 620 854 539 983 q 701 481 701 725 q 620 108 701 238 q 392 -21 539 -21 q 163 108 244 -21 q 82 481 82 238 m 603 481 q 592 640 603 564 q 557 774 582 715 q 492 867 532 832 q 392 901 451 901 q 290 867 331 901 q 226 774 250 832 q 191 640 201 715 q 181 481 181 564 q 191 322 181 397 q 226 188 201 246 q 290 96 250 131 q 392 61 331 61 q 492 96 451 61 q 557 188 532 131 q 592 322 582 246 q 603 481 603 397 z "},"1":{"ha":783,"x_min":149,"x_max":490,"o":"m 149 765 q 297 840 232 794 q 426 963 363 885 l 490 963 l 490 0 l 400 0 l 400 825 q 360 790 385 808 q 306 755 336 772 q 242 722 275 738 q 175 696 208 706 l 149 765 z "},"2":{"ha":783,"x_min":96,"x_max":667,"o":"m 633 724 q 614 622 633 669 q 562 529 594 574 q 488 443 529 485 q 403 360 446 401 q 333 290 367 325 q 272 219 299 254 q 228 149 244 183 q 213 82 213 115 l 213 79 l 667 79 l 667 0 l 113 0 q 112 10 113 3 q 111 33 111 18 q 135 155 111 99 q 195 261 158 211 q 277 354 232 311 q 364 438 322 397 q 430 502 399 471 q 485 567 461 533 q 522 638 508 600 q 536 719 536 675 q 484 859 536 817 q 353 901 432 901 q 274 890 308 901 q 213 865 239 879 q 169 835 188 850 q 143 811 151 819 l 96 874 q 126 902 104 883 q 180 939 147 921 q 256 970 213 957 q 351 983 299 983 q 563 915 492 983 q 633 724 633 846 z "},"3":{"ha":783,"x_min":93,"x_max":669,"o":"m 326 63 q 515 117 458 63 q 572 265 572 172 q 549 367 572 326 q 487 431 526 407 q 395 466 447 456 q 285 476 343 476 l 271 476 l 271 551 l 303 551 q 380 559 340 551 q 452 588 419 567 q 506 643 485 608 q 528 732 528 678 q 513 810 528 778 q 472 863 497 843 q 412 891 446 882 q 340 900 378 900 q 224 879 265 900 q 156 840 182 858 l 117 911 q 152 933 131 921 q 203 957 174 946 q 267 976 232 968 q 344 983 303 983 q 469 965 417 983 q 556 915 521 947 q 607 837 590 882 q 624 739 624 792 q 578 601 624 654 q 463 524 533 547 q 538 494 501 514 q 604 442 575 474 q 651 367 633 411 q 669 263 669 322 q 648 150 669 201 q 584 60 626 99 q 476 1 542 22 q 324 -21 411 -21 q 240 -15 278 -21 q 172 0 201 -8 q 123 17 143 8 q 93 31 103 25 l 117 111 q 144 97 125 106 q 191 81 164 89 q 252 68 218 74 q 326 63 286 63 z "},"4":{"ha":783,"x_min":69,"x_max":714,"o":"m 69 317 q 140 467 94 383 q 242 638 185 550 q 365 809 299 725 q 500 963 432 893 l 594 963 l 594 335 l 714 335 l 714 261 l 594 261 l 594 0 l 506 0 l 506 261 l 69 261 l 69 317 m 506 335 l 506 861 q 407 746 457 811 q 312 610 357 681 q 228 469 267 540 q 163 335 189 399 l 506 335 z "},"5":{"ha":783,"x_min":100,"x_max":671,"o":"m 332 63 q 448 78 401 63 q 522 122 494 94 q 562 187 550 150 q 574 267 574 224 q 556 367 574 322 q 492 442 538 411 q 368 488 446 472 q 171 504 290 504 q 185 634 179 575 q 194 748 190 693 q 201 855 199 803 q 204 963 203 907 l 638 963 l 638 883 l 283 883 q 279 815 282 857 q 274 730 276 774 q 267 646 271 686 q 260 582 263 606 q 444 556 367 579 q 572 492 522 532 q 647 394 622 451 q 671 268 671 338 q 651 154 671 207 q 589 63 631 101 q 483 1 547 24 q 332 -21 419 -21 q 249 -15 288 -21 q 181 0 211 -8 q 131 17 151 8 q 100 31 110 25 l 124 111 q 152 97 132 106 q 199 81 172 89 q 260 68 226 74 q 332 63 294 63 z "},"6":{"ha":783,"x_min":107,"x_max":700,"o":"m 107 382 q 242 810 107 664 q 636 967 378 956 l 642 890 q 485 865 557 885 q 358 802 414 844 q 265 693 303 760 q 214 529 228 626 q 304 563 251 549 q 417 578 357 578 q 549 553 494 578 q 636 489 603 529 q 685 396 669 449 q 700 285 700 343 q 683 176 700 231 q 631 78 667 122 q 542 7 596 35 q 415 -21 489 -21 q 185 85 264 -21 q 107 382 107 192 m 408 499 q 297 484 344 499 q 207 450 249 469 q 204 413 204 426 q 204 381 204 400 q 213 257 204 315 q 247 154 222 199 q 311 84 271 110 q 414 58 351 58 q 501 77 465 58 q 560 126 538 96 q 592 197 582 157 q 603 282 603 238 q 553 446 603 393 q 408 499 504 499 z "},"7":{"ha":783,"x_min":96,"x_max":681,"o":"m 243 0 q 285 244 251 115 q 369 494 319 374 q 476 717 418 615 q 588 879 533 818 l 96 879 l 96 963 l 681 963 l 681 882 q 577 730 633 825 q 471 516 521 635 q 384 264 421 397 q 339 0 347 131 l 243 0 z "},"8":{"ha":783,"x_min":92,"x_max":692,"o":"m 392 -21 q 269 -1 324 -21 q 174 53 214 18 q 113 137 135 89 q 92 242 92 185 q 106 330 92 290 q 142 401 119 369 q 195 456 165 432 q 258 499 225 481 q 143 597 174 540 q 113 721 113 654 q 133 829 113 781 q 191 912 154 878 q 279 965 228 946 q 392 983 331 983 q 517 962 464 983 q 603 906 569 940 q 653 826 638 871 q 669 735 669 782 q 656 651 669 689 q 619 581 642 613 q 569 526 597 550 q 515 486 542 503 q 652 382 613 444 q 692 250 692 319 q 670 140 692 190 q 610 55 649 90 q 515 -1 571 19 q 392 -21 460 -21 m 596 242 q 573 339 596 301 q 513 400 550 376 q 430 438 476 424 q 336 467 383 451 q 226 377 265 433 q 188 242 188 321 q 200 169 188 203 q 238 111 213 136 q 302 72 264 86 q 392 57 340 57 q 481 72 443 57 q 545 111 519 86 q 583 169 571 136 q 596 242 596 203 m 207 731 q 216 660 207 692 q 250 602 225 628 q 319 555 275 576 q 436 514 364 533 q 538 603 500 550 q 575 735 575 656 q 565 797 575 767 q 533 852 554 828 q 476 891 511 876 q 392 906 442 906 q 311 892 346 906 q 253 853 276 878 q 219 797 231 829 q 207 731 207 765 z "},"9":{"ha":783,"x_min":88,"x_max":681,"o":"m 681 581 q 542 144 681 290 q 136 -3 403 -3 l 133 72 q 301 93 225 72 q 434 158 378 114 q 526 270 490 201 q 574 436 561 339 q 483 402 536 417 q 371 388 431 388 q 239 412 293 388 q 151 476 185 436 q 103 569 118 517 q 88 679 88 622 q 104 786 88 732 q 156 884 121 840 q 245 956 192 928 q 372 983 299 983 q 602 877 524 983 q 681 581 681 771 m 379 467 q 491 481 443 467 q 581 515 539 496 q 583 547 582 532 q 583 582 583 563 q 574 706 583 647 q 541 808 565 764 q 476 878 517 853 q 374 904 436 904 q 286 885 322 904 q 228 836 250 867 q 195 765 206 806 q 185 682 185 725 q 234 519 185 572 q 379 467 283 467 z "},"\u0000":{"ha":0,"x_min":0,"x_max":0,"o":""},"\t":{"ha":317,"x_min":0,"x_max":0,"o":""}," ":{"ha":317,"x_min":0,"x_max":0,"o":""},"!":{"ha":381,"x_min":114,"x_max":267,"o":"m 239 694 q 237 583 239 635 q 231 482 235 531 q 222 388 226 433 q 211 296 217 342 l 169 296 q 149 482 157 389 q 142 694 142 575 l 142 963 l 239 963 l 239 694 m 267 60 q 247 6 267 28 q 190 -17 226 -17 q 134 6 154 -17 q 114 60 114 28 q 134 114 114 92 q 190 136 154 136 q 247 114 226 136 q 267 60 267 92 z "},"\"":{"ha":544,"x_min":117,"x_max":428,"o":"m 428 1056 l 428 1003 q 420 862 428 933 q 400 719 413 790 l 354 719 q 335 862 343 790 q 328 1004 328 933 l 328 1056 l 428 1056 m 217 1056 l 217 1003 q 209 862 217 933 q 189 719 201 790 l 143 719 q 124 862 132 790 q 117 1004 117 933 l 117 1056 l 217 1056 z "},"#":{"ha":907,"x_min":65,"x_max":842,"o":"m 367 699 l 624 699 l 674 963 l 758 963 l 708 699 l 842 699 l 842 625 l 693 625 l 639 338 l 842 338 l 842 263 l 625 263 l 574 0 l 489 0 l 540 263 l 283 263 l 232 0 l 147 0 l 199 263 l 65 263 l 65 338 l 213 338 l 267 625 l 65 625 l 65 699 l 282 699 l 332 963 l 417 963 l 367 699 m 297 338 l 554 338 l 610 625 l 353 625 l 297 338 z "},"$":{"ha":783,"x_min":104,"x_max":676,"o":"m 436 -151 l 354 -151 l 354 28 q 197 48 260 29 q 104 85 135 67 l 131 163 q 171 143 149 153 q 222 125 193 133 q 290 112 251 117 q 379 107 328 107 q 472 118 433 107 q 534 148 510 129 q 569 193 558 167 q 579 249 579 219 q 562 325 579 294 q 513 378 544 356 q 438 419 482 401 q 340 456 393 436 q 264 487 303 469 q 194 530 225 504 q 143 592 163 556 q 124 681 124 629 q 180 840 124 783 q 354 913 236 896 l 354 1078 l 436 1078 l 436 917 q 551 903 501 915 q 633 878 600 892 l 610 801 q 540 824 586 811 q 417 838 494 838 q 219 694 219 838 q 233 630 219 656 q 274 585 247 604 q 338 550 300 565 q 421 518 375 535 q 517 478 471 499 q 599 429 564 458 q 656 358 635 400 q 676 257 676 317 q 613 100 676 160 q 436 32 549 40 l 436 -151 z "},"%":{"ha":1154,"x_min":82,"x_max":1072,"o":"m 499 735 q 482 627 499 674 q 436 549 465 581 q 369 502 407 518 q 290 486 332 486 q 211 502 249 486 q 144 549 174 518 q 99 627 115 581 q 82 735 82 674 q 99 842 82 796 q 144 920 115 889 q 211 967 174 951 q 290 983 249 983 q 369 967 332 983 q 436 920 407 951 q 482 842 465 889 q 499 735 499 796 m 417 735 q 385 862 417 814 q 290 910 353 910 q 196 862 228 910 q 164 735 164 814 q 196 608 164 656 q 290 560 228 560 q 385 608 353 560 q 417 735 417 656 m 656 228 q 672 335 656 289 q 718 413 689 382 q 785 460 747 444 q 864 476 822 476 q 943 460 906 476 q 1010 413 981 444 q 1056 335 1039 382 q 1072 228 1072 289 q 1056 120 1072 167 q 1010 42 1039 74 q 943 -5 981 11 q 864 -21 906 -21 q 785 -5 822 -21 q 718 42 747 11 q 672 120 689 74 q 656 228 656 167 m 738 228 q 769 101 738 149 q 864 53 801 53 q 958 101 926 53 q 990 228 990 149 q 958 355 990 307 q 864 403 926 403 q 769 355 801 403 q 738 228 738 307 m 806 963 l 897 963 l 349 0 l 257 0 l 806 963 z "},"&":{"ha":900,"x_min":69,"x_max":886,"o":"m 675 247 q 722 353 704 296 q 747 469 740 411 l 825 460 q 794 322 818 392 q 729 190 771 253 q 822 90 781 138 q 886 0 863 43 l 785 0 q 738 63 765 32 q 679 126 711 94 q 544 26 621 64 q 371 -12 467 -12 q 228 12 286 -12 q 135 74 171 36 q 85 158 100 113 q 69 249 69 204 q 87 348 69 304 q 133 426 104 392 q 201 486 163 460 q 282 532 240 513 q 197 643 221 589 q 172 753 172 697 q 190 850 172 807 q 238 923 207 893 q 313 968 269 953 q 406 983 356 983 q 499 967 457 983 q 568 924 540 951 q 611 860 596 897 q 626 779 626 822 q 608 687 626 728 q 561 614 590 646 q 494 557 532 582 q 417 511 456 532 l 675 247 m 371 67 q 515 97 451 67 q 625 181 578 128 l 333 479 q 276 447 306 465 q 222 402 246 429 q 182 338 197 375 q 167 249 167 300 q 178 184 167 217 q 213 126 189 151 q 275 83 236 100 q 371 67 314 67 m 540 778 q 503 869 540 832 q 408 906 467 906 q 301 867 338 906 q 264 763 264 829 q 285 666 264 714 q 368 563 307 618 q 492 647 443 599 q 540 778 540 696 z "},"'":{"ha":333,"x_min":117,"x_max":217,"o":"m 217 1056 l 217 1003 q 209 862 217 933 q 189 719 201 790 l 143 719 q 124 862 132 790 q 117 1004 117 933 l 117 1056 l 217 1056 z "},"(":{"ha":431,"x_min":115,"x_max":418,"o":"m 115 415 q 181 786 115 617 q 353 1088 247 956 l 418 1043 q 258 755 308 907 q 207 415 207 603 q 258 76 207 228 q 418 -212 308 -76 l 353 -257 q 181 44 247 -125 q 115 415 115 214 z "},")":{"ha":431,"x_min":13,"x_max":315,"o":"m 315 415 q 249 44 315 214 q 78 -257 183 -125 l 13 -212 q 173 76 122 -76 q 224 415 224 228 q 173 755 224 603 q 13 1043 122 907 l 78 1088 q 249 786 183 956 q 315 415 315 617 z "},"*":{"ha":656,"x_min":54,"x_max":601,"o":"m 361 678 q 447 592 408 631 q 526 497 485 553 l 449 440 q 413 494 429 468 q 383 545 397 519 q 356 598 369 571 q 328 654 343 625 q 299 598 313 625 q 272 545 286 571 q 242 494 258 519 q 207 440 226 468 l 129 497 q 169 548 150 525 q 208 592 189 571 q 249 633 228 613 q 294 678 271 654 q 174 697 229 688 q 54 728 119 707 l 83 818 q 144 796 117 807 q 199 772 172 785 q 251 747 225 760 q 307 719 278 733 q 297 782 301 753 q 288 840 292 811 q 283 898 285 868 q 281 963 281 928 l 375 963 q 373 898 375 928 q 367 840 371 868 q 359 782 364 811 q 349 719 354 753 q 404 747 378 733 q 457 772 431 760 q 511 796 483 785 q 572 818 539 807 l 601 728 q 481 697 536 707 q 361 678 426 688 z "},"+":{"ha":783,"x_min":78,"x_max":706,"o":"m 78 440 l 351 440 l 351 742 l 432 742 l 432 440 l 706 440 l 706 363 l 432 363 l 432 60 l 351 60 l 351 363 l 78 363 l 78 440 z "},",":{"ha":342,"x_min":68,"x_max":226,"o":"m 225 132 q 226 110 226 119 q 226 93 226 100 q 202 -72 226 7 q 135 -221 178 -151 l 68 -190 q 113 -62 100 -129 q 126 78 126 6 q 126 106 126 94 q 124 132 125 117 l 225 132 z "},"-":{"ha":392,"x_min":39,"x_max":353,"o":"m 39 446 l 353 446 l 353 358 l 39 358 l 39 446 z "},".":{"ha":342,"x_min":94,"x_max":247,"o":"m 247 60 q 227 6 247 28 q 171 -17 207 -17 q 115 6 135 -17 q 94 60 94 28 q 115 114 94 92 q 171 136 135 136 q 227 114 207 136 q 247 60 247 92 z "},"/":{"ha":499,"x_min":-32,"x_max":531,"o":"m 60 -257 l -32 -257 l 442 1088 l 531 1088 l 60 -257 z "},":":{"ha":342,"x_min":94,"x_max":247,"o":"m 247 60 q 227 6 247 28 q 171 -17 207 -17 q 115 6 135 -17 q 94 60 94 28 q 115 114 94 92 q 171 136 135 136 q 227 114 207 136 q 247 60 247 92 m 247 642 q 227 588 247 610 q 171 565 207 565 q 115 588 135 565 q 94 642 94 610 q 115 696 94 674 q 171 718 135 718 q 227 696 207 718 q 247 642 247 674 z "},";":{"ha":342,"x_min":68,"x_max":247,"o":"m 225 132 q 226 110 226 119 q 226 93 226 100 q 202 -72 226 7 q 135 -221 178 -151 l 68 -190 q 113 -62 100 -129 q 126 78 126 6 q 126 106 126 94 q 124 132 125 117 l 225 132 m 247 642 q 227 588 247 610 q 171 565 207 565 q 115 588 135 565 q 94 642 94 610 q 115 696 94 674 q 171 718 135 718 q 227 696 207 718 q 247 642 247 674 z "},"<":{"ha":783,"x_min":76,"x_max":706,"o":"m 182 400 l 706 181 l 678 104 l 76 360 l 76 440 l 678 696 l 706 619 l 182 400 z "},"=":{"ha":783,"x_min":78,"x_max":706,"o":"m 78 294 l 706 294 l 706 217 l 78 217 l 78 294 m 78 586 l 706 586 l 706 508 l 78 508 l 78 586 z "},">":{"ha":783,"x_min":76,"x_max":706,"o":"m 76 619 l 104 696 l 706 440 l 706 360 l 104 104 l 76 181 l 600 400 l 76 619 z "},"?":{"ha":528,"x_min":28,"x_max":489,"o":"m 224 903 q 54 861 131 903 l 28 936 q 112 968 57 953 q 233 983 167 983 q 356 965 307 983 q 435 916 406 946 q 476 849 464 886 q 489 775 489 811 q 471 686 489 725 q 425 614 453 647 q 366 550 397 581 q 307 487 335 519 q 261 417 279 454 q 243 333 243 379 q 243 310 243 318 q 244 296 243 303 l 172 296 q 168 326 169 310 q 167 358 167 342 q 183 442 167 406 q 225 511 200 479 q 279 572 250 543 q 333 630 308 600 q 375 694 358 660 q 392 771 392 728 q 378 835 392 810 q 341 876 364 861 q 288 897 318 892 q 224 903 257 903 m 292 60 q 272 6 292 28 q 215 -17 251 -17 q 159 6 179 -17 q 139 60 139 28 q 159 114 139 92 q 215 136 179 136 q 272 114 251 136 q 292 60 292 92 z "},"@":{"ha":1306,"x_min":100,"x_max":1206,"o":"m 954 81 q 883 96 910 81 q 843 129 856 111 q 775 96 818 113 q 681 79 732 79 q 563 98 617 79 q 470 155 510 117 q 408 251 431 193 q 386 389 386 310 q 406 511 386 454 q 465 610 426 568 q 559 677 503 653 q 688 701 615 701 q 808 690 754 701 q 892 665 861 678 l 892 258 q 910 181 892 204 q 960 157 929 157 q 1037 187 1007 157 q 1084 262 1067 217 q 1108 358 1101 307 q 1115 450 1115 408 q 1085 622 1115 540 q 997 766 1054 704 q 856 865 939 828 q 667 901 772 901 q 472 867 560 901 q 322 768 385 833 q 225 608 260 703 q 190 390 190 513 q 228 164 190 261 q 333 1 267 67 q 491 -97 400 -64 q 688 -129 582 -129 q 815 -122 768 -129 q 876 -108 861 -114 l 886 -185 q 807 -200 863 -192 q 688 -208 751 -208 q 460 -173 567 -208 q 273 -63 353 -137 q 147 124 193 11 q 100 390 100 236 q 144 650 100 539 q 266 835 189 761 q 447 944 343 908 q 667 981 550 981 q 876 943 778 981 q 1047 836 974 906 q 1163 668 1121 767 q 1206 447 1206 569 q 1186 288 1206 357 q 1133 174 1167 219 q 1053 104 1099 128 q 954 81 1007 81 m 675 154 q 751 162 722 154 q 813 189 781 169 q 805 224 807 203 q 803 261 803 246 l 803 614 q 767 622 792 617 q 697 626 742 626 q 603 609 644 626 q 535 560 563 592 q 493 485 507 529 q 479 390 479 442 q 494 285 479 329 q 536 211 510 240 q 599 168 563 182 q 675 154 635 154 z "},"A":{"ha":890,"x_min":14,"x_max":876,"o":"m 772 0 q 722 136 746 71 q 676 264 699 201 l 208 264 q 161 136 185 201 q 113 0 138 71 l 14 0 q 118 280 69 150 q 213 526 167 410 q 306 749 260 642 q 403 963 351 856 l 486 963 q 583 749 538 856 q 676 526 629 642 q 771 280 722 410 q 876 0 819 150 l 772 0 m 442 854 q 340 611 389 735 q 238 344 290 488 l 647 344 q 544 611 594 488 q 442 854 494 735 z "},"B":{"ha":875,"x_min":125,"x_max":799,"o":"m 356 -8 q 301 -6 332 -8 q 237 -1 269 -4 q 175 8 204 3 q 125 18 146 13 l 125 944 q 181 956 150 951 q 244 965 211 961 q 308 969 276 968 q 365 971 339 971 q 513 958 443 971 q 636 917 583 946 q 720 840 689 888 q 751 721 751 792 q 712 588 751 643 q 606 513 672 533 q 682 485 647 503 q 743 438 717 467 q 784 369 769 410 q 799 271 799 328 q 690 63 799 135 q 356 -8 582 -8 m 219 461 l 219 82 q 282 76 240 79 q 367 72 324 72 q 491 81 431 72 q 597 111 551 89 q 671 172 643 133 q 699 272 699 211 q 679 365 699 328 q 624 423 660 401 q 535 453 588 444 q 419 461 483 461 l 219 461 m 219 542 l 403 542 q 500 549 454 542 q 580 577 546 557 q 633 631 614 597 q 653 718 653 665 q 632 798 653 765 q 573 851 611 831 q 482 881 535 872 q 365 890 429 890 q 278 888 314 890 q 219 881 243 885 l 219 542 z "},"C":{"ha":846,"x_min":86,"x_max":807,"o":"m 525 -21 q 352 13 432 -21 q 213 110 272 46 q 120 267 154 174 q 86 482 86 361 q 123 697 86 603 q 221 854 160 790 q 363 951 282 918 q 531 983 443 983 q 629 976 585 983 q 707 959 674 969 q 764 938 740 949 q 800 919 788 928 l 769 838 q 681 878 735 858 q 549 899 628 899 q 391 868 458 899 q 278 782 324 838 q 209 650 232 726 q 186 481 186 574 q 209 308 186 385 q 276 176 232 231 q 385 93 321 122 q 533 64 450 64 q 687 81 625 64 q 781 117 749 99 l 807 36 q 774 20 797 29 q 714 1 750 11 q 631 -15 678 -8 q 525 -21 583 -21 z "},"D":{"ha":975,"x_min":125,"x_max":889,"o":"m 889 482 q 850 267 889 358 q 741 114 811 175 q 574 22 671 53 q 360 -8 476 -8 q 238 -2 301 -8 q 125 17 174 4 l 125 944 q 238 965 174 958 q 360 971 301 971 q 574 940 476 971 q 741 849 671 910 q 850 696 811 788 q 889 482 889 604 m 219 83 q 262 78 228 82 q 371 74 296 74 q 553 102 475 74 q 683 183 631 131 q 763 312 736 236 q 789 482 789 388 q 763 651 789 576 q 683 779 736 726 q 553 860 631 832 q 371 889 475 889 q 262 885 296 889 q 219 879 228 881 l 219 83 z "},"E":{"ha":771,"x_min":125,"x_max":717,"o":"m 125 0 l 125 963 l 681 963 l 681 881 l 219 881 l 219 546 l 631 546 l 631 465 l 219 465 l 219 82 l 717 82 l 717 0 l 125 0 z "},"F":{"ha":722,"x_min":125,"x_max":674,"o":"m 125 0 l 125 963 l 674 963 l 674 881 l 219 881 l 219 542 l 622 542 l 622 460 l 219 460 l 219 0 l 125 0 z "},"G":{"ha":914,"x_min":86,"x_max":819,"o":"m 725 456 l 819 456 l 819 26 q 716 -2 793 15 q 526 -19 639 -19 q 351 14 432 -19 q 212 110 271 47 q 119 267 153 174 q 86 482 86 361 q 122 697 86 603 q 220 853 158 790 q 364 950 282 917 q 539 983 446 983 q 715 960 646 983 q 817 917 785 938 l 785 836 q 679 881 746 864 q 535 899 613 899 q 399 872 463 899 q 288 793 335 846 q 213 663 240 740 q 186 482 186 585 q 208 309 186 386 q 276 177 231 232 q 388 93 321 122 q 542 64 454 64 q 660 72 613 64 q 725 86 708 79 l 725 456 z "},"H":{"ha":961,"x_min":125,"x_max":836,"o":"m 742 963 l 836 963 l 836 0 l 742 0 l 742 463 l 219 463 l 219 0 l 125 0 l 125 963 l 219 963 l 219 544 l 742 544 l 742 963 z "},"I":{"ha":344,"x_min":125,"x_max":219,"o":"m 125 963 l 219 963 l 219 0 l 125 0 l 125 963 z "},"J":{"ha":676,"x_min":11,"x_max":556,"o":"m 556 303 q 542 174 556 233 q 494 72 528 115 q 403 3 460 28 q 263 -21 347 -21 q 171 -12 213 -21 q 97 10 129 -3 q 44 36 65 22 q 11 61 22 50 l 56 138 q 87 113 68 126 q 131 89 106 100 q 186 71 156 78 q 253 64 217 64 q 410 120 360 64 q 461 313 461 176 l 461 963 l 556 963 l 556 303 z "},"K":{"ha":832,"x_min":125,"x_max":818,"o":"m 713 0 q 606 143 665 72 q 482 276 547 214 q 349 390 417 339 q 219 476 282 442 l 219 0 l 125 0 l 125 963 l 219 963 l 219 514 q 337 623 272 561 q 465 747 401 685 q 583 867 528 810 q 672 963 639 924 l 786 963 q 689 860 746 919 q 568 739 632 801 q 441 616 504 676 q 328 510 378 556 q 415 448 368 485 q 509 367 461 411 q 603 276 557 324 q 691 179 650 228 q 765 85 732 131 q 818 0 797 39 l 713 0 z "},"L":{"ha":697,"x_min":125,"x_max":672,"o":"m 672 82 l 672 0 l 125 0 l 125 963 l 219 963 l 219 82 l 672 82 z "},"M":{"ha":1201,"x_min":101,"x_max":1100,"o":"m 557 139 q 517 231 543 174 q 460 355 492 288 q 394 494 428 422 q 331 628 361 565 q 276 738 300 690 q 242 804 253 785 q 213 427 224 631 q 194 0 203 224 l 101 0 q 130 503 114 263 q 169 963 146 743 l 253 963 q 342 802 294 893 q 435 613 389 711 q 526 420 482 515 q 603 249 569 325 q 680 420 636 325 q 770 613 724 515 q 864 802 817 711 q 953 963 911 893 l 1032 963 q 1072 503 1056 743 q 1100 0 1088 263 l 1004 0 q 985 427 996 224 q 957 804 975 631 q 922 738 946 785 q 868 628 899 690 q 804 494 838 565 q 739 355 771 422 q 681 231 707 288 q 642 139 656 174 l 557 139 z "},"N":{"ha":985,"x_min":125,"x_max":860,"o":"m 781 0 q 713 114 754 49 q 624 253 672 179 q 521 406 575 328 q 413 559 467 485 q 309 699 360 633 q 218 811 258 764 l 218 0 l 125 0 l 125 963 l 200 963 q 352 780 271 883 q 511 569 433 676 q 656 358 589 461 q 767 179 724 256 l 767 963 l 860 963 l 860 0 l 781 0 z "},"O":{"ha":1075,"x_min":86,"x_max":989,"o":"m 989 482 q 953 264 989 358 q 855 106 917 169 q 711 11 793 43 q 538 -21 629 -21 q 364 11 446 -21 q 220 106 282 43 q 122 264 158 169 q 86 482 86 358 q 122 699 86 606 q 220 856 158 793 q 364 951 282 919 q 538 983 446 983 q 711 951 629 983 q 855 856 793 919 q 953 699 917 793 q 989 482 989 606 m 889 482 q 864 656 889 579 q 793 788 839 733 q 683 870 747 842 q 538 899 618 899 q 392 870 457 899 q 282 788 328 842 q 211 656 236 733 q 186 482 186 579 q 211 308 186 385 q 282 176 236 231 q 392 93 328 122 q 538 64 457 64 q 683 93 618 64 q 793 176 747 122 q 864 308 839 231 q 889 482 889 385 z "},"P":{"ha":822,"x_min":125,"x_max":772,"o":"m 368 971 q 672 893 572 971 q 772 672 772 815 q 743 533 772 590 q 660 440 714 475 q 527 388 606 404 q 350 372 449 372 l 219 372 l 219 0 l 125 0 l 125 944 q 242 965 175 958 q 368 971 310 971 m 372 889 q 283 885 319 889 q 219 879 246 882 l 219 454 l 339 454 q 477 463 415 454 q 583 497 539 472 q 650 564 626 521 q 674 674 674 607 q 648 779 674 738 q 580 845 622 821 q 483 879 538 869 q 372 889 429 889 z "},"Q":{"ha":1075,"x_min":86,"x_max":989,"o":"m 989 482 q 960 285 989 371 q 881 136 931 199 q 763 36 831 74 q 617 -14 694 -1 q 652 -81 622 -53 q 724 -128 682 -108 q 818 -159 767 -147 q 918 -178 869 -171 l 899 -257 q 785 -233 846 -247 q 669 -192 724 -218 q 574 -124 614 -165 q 521 -21 533 -83 q 353 15 432 -18 q 215 112 274 49 q 121 268 156 175 q 86 482 86 361 q 122 699 86 606 q 220 856 158 793 q 364 951 282 919 q 538 983 446 983 q 711 951 629 983 q 855 856 793 919 q 953 699 917 793 q 989 482 989 606 m 889 482 q 864 656 889 579 q 793 788 839 733 q 683 870 747 842 q 538 899 618 899 q 392 870 457 899 q 282 788 328 842 q 211 656 236 733 q 186 482 186 579 q 211 308 186 385 q 282 176 236 231 q 392 93 328 122 q 538 64 457 64 q 683 93 618 64 q 793 176 747 122 q 864 308 839 231 q 889 482 889 385 z "},"R":{"ha":858,"x_min":125,"x_max":825,"o":"m 767 674 q 710 503 767 565 q 560 413 653 440 q 617 338 582 385 q 690 234 653 290 q 764 117 728 178 q 825 0 800 56 l 724 0 q 660 111 694 56 q 591 219 626 167 q 522 315 556 271 q 464 393 489 360 q 375 389 419 389 l 219 389 l 219 0 l 125 0 l 125 944 q 242 965 175 958 q 367 971 310 971 q 666 896 565 971 q 767 674 767 821 m 378 889 q 285 885 325 889 q 219 879 246 882 l 219 469 l 350 469 q 474 476 415 469 q 575 503 532 482 q 643 565 618 525 q 668 675 668 606 q 643 781 668 739 q 578 847 618 822 q 485 880 538 871 q 378 889 433 889 z "},"S":{"ha":718,"x_min":47,"x_max":668,"o":"m 332 61 q 507 102 444 61 q 569 235 569 143 q 549 323 569 288 q 496 383 529 358 q 419 424 463 407 q 329 461 376 442 q 222 510 269 485 q 142 566 175 535 q 91 638 108 597 q 74 732 74 678 q 156 919 74 856 q 383 983 238 983 q 460 978 422 983 q 530 963 497 972 q 590 943 563 954 q 635 919 617 932 l 601 840 q 503 885 561 868 q 379 901 446 901 q 295 892 333 901 q 229 863 257 883 q 185 813 201 843 q 169 739 169 782 q 186 664 169 694 q 233 611 203 633 q 303 571 263 589 q 390 533 343 553 q 498 486 447 510 q 586 431 549 463 q 646 353 624 399 q 668 240 668 307 q 577 44 668 110 q 331 -21 486 -21 q 229 -14 275 -21 q 147 3 183 -7 q 86 25 111 14 q 47 44 61 36 l 78 126 q 115 107 92 118 q 171 85 139 96 q 243 68 203 75 q 332 61 283 61 z "},"T":{"ha":761,"x_min":25,"x_max":736,"o":"m 736 963 l 736 881 l 428 881 l 428 0 l 333 0 l 333 881 l 25 881 l 25 963 l 736 963 z "},"U":{"ha":944,"x_min":121,"x_max":824,"o":"m 472 -21 q 309 8 376 -21 q 200 89 242 38 q 140 209 158 140 q 121 357 121 278 l 121 963 l 215 963 l 215 369 q 234 233 215 290 q 286 138 253 175 q 367 82 319 100 q 472 64 414 64 q 578 82 531 64 q 658 138 625 100 q 710 233 692 175 q 729 369 729 290 l 729 963 l 824 963 l 824 357 q 805 209 824 278 q 744 89 786 140 q 635 8 703 38 q 472 -21 568 -21 z "},"V":{"ha":867,"x_min":14,"x_max":853,"o":"m 119 963 q 200 728 161 839 q 276 515 239 618 q 353 312 314 411 q 436 111 392 213 q 519 310 479 211 q 597 513 558 410 q 673 728 635 617 q 753 963 711 839 l 853 963 q 738 643 789 781 q 644 394 688 506 q 560 190 600 283 q 478 0 521 96 l 390 0 q 307 190 347 96 q 223 394 267 283 q 128 643 179 506 q 14 963 78 781 l 119 963 z "},"W":{"ha":1279,"x_min":50,"x_max":1229,"o":"m 682 844 q 816 440 749 621 q 947 107 883 258 q 1044 493 996 271 q 1136 963 1092 715 l 1229 963 q 1178 684 1204 814 q 1125 437 1153 554 q 1067 212 1097 319 q 1000 0 1036 104 l 899 0 q 833 158 865 79 q 768 322 800 238 q 704 497 736 406 q 639 692 672 589 q 573 497 606 589 q 508 322 540 406 q 444 158 476 238 q 378 0 411 79 l 278 0 q 209 212 240 104 q 151 437 178 319 q 99 684 124 554 q 50 963 75 814 l 147 963 q 190 723 168 840 q 237 496 213 606 q 287 288 261 386 q 338 107 313 190 q 465 441 397 261 q 600 844 533 621 l 682 844 z "},"X":{"ha":844,"x_min":38,"x_max":803,"o":"m 681 963 l 786 963 l 476 511 q 653 255 567 383 q 803 0 739 126 l 700 0 q 647 96 679 42 q 576 210 614 150 q 497 329 538 269 q 418 442 456 389 q 340 329 381 389 q 260 210 299 269 q 190 96 222 150 q 136 0 157 42 l 38 0 q 188 254 101 126 q 363 508 274 382 l 53 963 l 161 963 l 421 575 l 681 963 z "},"Y":{"ha":790,"x_min":14,"x_max":776,"o":"m 349 0 l 349 396 q 167 688 250 547 q 14 963 85 829 l 124 963 q 252 715 182 840 q 399 475 322 589 q 543 715 472 589 q 674 963 614 840 l 776 963 q 621 688 703 831 q 443 399 539 546 l 443 0 l 349 0 z "},"Z":{"ha":778,"x_min":53,"x_max":722,"o":"m 708 876 q 631 782 675 838 q 538 660 588 726 q 435 520 488 594 q 333 370 383 446 q 237 221 282 294 q 156 82 192 147 l 722 82 l 722 0 l 53 0 l 53 71 q 126 202 83 131 q 217 349 168 274 q 318 501 265 425 q 422 648 371 578 q 520 778 474 718 q 606 881 567 838 l 79 881 l 79 963 l 708 963 l 708 876 z "},"[":{"ha":431,"x_min":139,"x_max":419,"o":"m 139 1088 l 419 1088 l 419 1018 l 225 1018 l 225 -187 l 419 -187 l 419 -257 l 139 -257 l 139 1088 z "},"\\":{"ha":499,"x_min":-32,"x_max":531,"o":"m -32 1088 l 57 1088 l 531 -257 l 439 -257 l -32 1088 z "},"]":{"ha":431,"x_min":11,"x_max":292,"o":"m 292 -257 l 11 -257 l 11 -187 l 206 -187 l 206 1018 l 11 1018 l 11 1088 l 292 1088 l 292 -257 z "},"^":{"ha":783,"x_min":86,"x_max":697,"o":"m 697 494 l 629 458 l 392 886 l 154 458 l 86 494 l 347 963 l 436 963 l 697 494 z "},"_":{"ha":681,"x_min":-7,"x_max":688,"o":"m -7 -179 l 688 -179 l 688 -257 l -7 -257 l -7 -179 z "},"`":{"ha":522,"x_min":83,"x_max":367,"o":"m 147 1074 l 367 863 l 321 810 l 83 1003 l 147 1074 z "},"a":{"ha":707,"x_min":67,"x_max":596,"o":"m 346 65 q 438 69 399 65 q 506 78 478 72 l 506 331 q 457 345 490 338 q 365 353 424 353 q 296 348 332 353 q 229 327 260 343 q 179 283 199 311 q 160 210 160 256 q 173 142 160 169 q 210 97 186 114 q 269 73 235 81 q 346 65 303 65 m 338 735 q 458 715 408 735 q 538 659 507 694 q 582 575 568 624 q 596 469 596 526 l 596 17 q 556 8 582 13 q 494 -3 529 3 q 417 -12 460 -8 q 331 -15 375 -15 q 226 -3 274 -15 q 142 37 178 10 q 87 106 107 64 q 67 210 67 149 q 89 310 67 268 q 151 378 111 351 q 247 418 192 406 q 368 431 303 431 q 409 428 388 431 q 451 423 431 426 q 485 416 471 419 q 506 410 500 413 l 506 454 q 500 527 506 492 q 476 591 494 563 q 423 637 457 619 q 333 654 389 654 q 215 643 254 654 q 158 625 176 632 l 146 704 q 219 725 169 715 q 338 735 268 735 z "},"b":{"ha":810,"x_min":119,"x_max":733,"o":"m 210 675 q 285 713 233 693 q 408 733 338 733 q 547 706 486 733 q 649 628 607 678 q 712 509 690 578 q 733 358 733 440 q 708 201 733 271 q 635 83 682 132 q 524 9 589 35 q 381 -17 460 -17 q 222 -4 285 -17 q 119 22 160 8 l 119 1061 l 210 1078 l 210 675 m 210 85 q 272 72 231 78 q 379 65 313 65 q 567 141 496 65 q 638 358 638 217 q 625 472 638 418 q 585 565 613 525 q 512 628 557 604 q 400 651 467 651 q 339 645 368 651 q 285 629 310 639 q 241 608 260 619 q 210 588 222 597 l 210 85 z "},"c":{"ha":639,"x_min":76,"x_max":607,"o":"m 417 -15 q 269 11 333 -15 q 163 87 206 38 q 99 205 121 136 q 76 357 76 274 q 99 511 76 442 q 165 631 122 581 q 269 708 208 681 q 407 735 331 735 q 516 725 465 735 q 594 700 567 715 l 571 622 q 508 644 543 636 q 415 653 474 653 q 234 576 296 653 q 172 357 172 499 q 186 240 172 293 q 231 148 200 186 q 312 88 263 110 q 432 67 361 67 q 530 80 490 67 q 588 103 569 93 l 607 25 q 528 -2 582 11 q 417 -15 475 -15 z "},"d":{"ha":810,"x_min":76,"x_max":690,"o":"m 690 22 q 588 -4 650 8 q 429 -17 525 -17 q 285 9 350 -17 q 174 83 221 35 q 102 201 128 132 q 76 358 76 271 q 98 509 76 440 q 161 628 119 578 q 263 706 203 678 q 401 733 324 733 q 524 713 472 733 q 600 675 576 693 l 600 1061 l 690 1078 l 690 22 m 600 588 q 569 608 588 597 q 525 629 550 619 q 471 645 500 639 q 410 651 442 651 q 298 628 343 651 q 225 565 253 604 q 185 472 197 525 q 172 358 172 418 q 243 141 172 217 q 431 65 314 65 q 538 72 497 65 q 600 85 579 78 l 600 588 z "},"e":{"ha":761,"x_min":76,"x_max":679,"o":"m 76 360 q 103 524 76 454 q 174 642 131 594 q 274 712 218 689 q 390 735 331 735 q 601 649 522 735 q 679 383 679 563 q 678 361 679 372 q 676 340 678 350 l 172 340 q 238 138 176 208 q 432 67 299 67 q 549 81 506 67 q 611 104 592 94 l 628 26 q 555 0 608 15 q 429 -15 501 -15 q 268 13 335 -15 q 158 90 201 40 q 96 209 115 140 q 76 360 76 278 m 586 417 q 533 592 583 529 q 392 654 483 654 q 305 635 343 654 q 238 583 267 615 q 194 507 210 550 q 175 417 178 464 l 586 417 z "},"f":{"ha":522,"x_min":119,"x_max":526,"o":"m 383 1078 q 478 1069 442 1078 q 526 1053 515 1060 l 508 975 q 463 990 493 982 q 388 997 433 997 q 251 949 292 997 q 210 793 210 900 l 210 718 l 499 718 l 499 642 l 210 642 l 210 0 l 119 0 l 119 796 q 184 1007 119 936 q 383 1078 249 1078 z "},"g":{"ha":796,"x_min":76,"x_max":676,"o":"m 588 83 q 563 67 579 76 q 522 49 546 58 q 466 33 497 39 q 396 26 435 26 q 275 46 333 26 q 173 107 217 65 q 103 215 129 149 q 76 375 76 281 q 100 517 76 451 q 167 630 124 582 q 274 705 211 678 q 417 732 338 732 q 577 719 517 732 q 676 693 638 706 l 676 38 q 593 -192 676 -124 q 342 -261 510 -261 q 216 -251 272 -261 q 119 -226 160 -240 l 138 -144 q 228 -171 171 -160 q 344 -182 286 -182 q 530 -133 472 -182 q 588 36 588 -83 l 588 83 m 586 631 q 525 644 563 638 q 418 650 488 650 q 315 630 360 650 q 238 573 269 610 q 189 485 206 536 q 172 374 172 435 q 192 252 172 303 q 242 169 211 201 q 314 123 274 138 q 396 108 354 108 q 508 126 457 108 q 586 168 558 144 l 586 631 z "},"h":{"ha":790,"x_min":119,"x_max":679,"o":"m 119 0 l 119 1061 l 210 1078 l 210 697 q 300 723 254 714 q 392 732 346 732 q 531 708 475 732 q 619 641 586 685 q 666 536 653 597 q 679 401 679 475 l 679 0 l 589 0 l 589 372 q 578 501 589 449 q 544 588 568 554 q 479 635 519 621 q 378 650 439 650 q 327 646 354 650 q 276 637 300 642 q 234 626 253 632 q 210 618 215 621 l 210 0 l 119 0 z "},"i":{"ha":329,"x_min":97,"x_max":231,"o":"m 210 0 l 119 0 l 119 718 l 210 718 l 210 0 m 231 935 q 211 884 231 903 q 164 865 192 865 q 117 884 136 865 q 97 935 97 903 q 117 985 97 967 q 164 1004 136 1004 q 211 985 192 1004 q 231 935 231 967 z "},"j":{"ha":329,"x_min":-87,"x_max":231,"o":"m -15 -260 q -53 -256 -31 -260 q -87 -246 -76 -251 l -75 -172 q -49 -178 -65 -175 q -17 -181 -32 -181 q 92 -135 65 -181 q 119 3 119 -89 l 119 718 l 210 718 l 210 7 q 158 -194 210 -129 q -15 -260 107 -260 m 231 935 q 211 884 231 903 q 164 865 192 865 q 117 884 136 865 q 97 935 97 903 q 117 985 97 967 q 164 1004 136 1004 q 211 985 192 1004 q 231 935 231 967 z "},"k":{"ha":688,"x_min":119,"x_max":663,"o":"m 311 390 q 403 315 354 361 q 501 216 453 269 q 591 106 549 163 q 663 0 633 50 l 556 0 q 480 109 522 56 q 391 210 438 163 q 298 296 344 257 q 210 361 251 335 l 210 0 l 119 0 l 119 1061 l 210 1078 l 210 394 q 288 471 244 428 q 374 558 331 514 q 457 644 418 603 q 524 718 496 686 l 632 718 q 560 643 600 685 q 476 556 519 601 q 389 468 432 511 q 311 390 346 425 z "},"l":{"ha":354,"x_min":118,"x_max":314,"o":"m 301 -12 q 222 -1 256 -11 q 165 31 188 10 q 130 87 142 53 q 118 172 118 121 l 118 1061 l 208 1078 l 208 175 q 215 122 208 142 q 233 90 221 101 q 266 72 246 78 q 314 63 286 67 l 301 -12 z "},"m":{"ha":1199,"x_min":119,"x_max":1088,"o":"m 119 693 q 224 718 160 704 q 392 732 289 732 q 589 653 528 732 q 616 672 596 658 q 667 699 636 685 q 738 722 697 713 q 829 732 779 732 q 962 708 911 732 q 1040 640 1013 683 q 1078 535 1068 596 q 1088 401 1088 474 l 1088 0 l 997 0 l 997 372 q 991 495 997 443 q 966 581 985 547 q 913 633 947 615 q 822 650 878 650 q 747 642 781 650 q 688 624 713 635 q 647 601 663 613 q 624 585 631 590 q 642 503 636 549 q 649 408 649 458 l 649 0 l 558 0 l 558 372 q 552 495 558 443 q 526 581 546 547 q 472 633 507 615 q 378 650 436 650 q 267 643 313 650 q 210 631 222 636 l 210 0 l 119 0 l 119 693 z "},"n":{"ha":790,"x_min":119,"x_max":679,"o":"m 119 693 q 228 718 160 704 q 394 732 296 732 q 531 708 476 732 q 619 641 586 685 q 665 536 651 597 q 679 401 679 475 l 679 0 l 589 0 l 589 372 q 578 501 589 449 q 544 588 568 554 q 480 635 519 621 q 381 650 440 650 q 270 643 317 650 q 210 631 224 636 l 210 0 l 119 0 l 119 693 z "},"o":{"ha":808,"x_min":76,"x_max":732,"o":"m 732 358 q 708 204 732 274 q 640 86 683 135 q 536 10 596 38 q 404 -17 476 -17 q 272 10 332 -17 q 169 86 213 38 q 101 204 125 135 q 76 358 76 274 q 101 513 76 443 q 169 631 125 582 q 272 708 213 681 q 404 735 332 735 q 536 708 476 735 q 640 631 596 681 q 708 513 683 582 q 732 358 732 443 m 636 358 q 574 573 636 493 q 404 653 511 653 q 235 573 297 653 q 172 358 172 493 q 235 144 172 224 q 404 65 297 65 q 574 144 511 65 q 636 358 636 224 z "},"p":{"ha":810,"x_min":119,"x_max":733,"o":"m 210 129 q 241 108 222 119 q 285 88 260 97 q 339 72 310 78 q 400 65 368 65 q 512 88 467 65 q 585 151 557 111 q 625 244 613 190 q 638 357 638 297 q 567 574 638 499 q 379 650 496 650 q 272 644 313 650 q 210 631 231 638 l 210 129 m 210 -257 l 119 -257 l 119 693 q 222 719 160 707 q 381 732 285 732 q 524 706 460 732 q 635 632 589 681 q 708 514 682 583 q 733 357 733 444 q 712 206 733 275 q 649 88 690 138 q 547 11 607 39 q 408 -17 486 -17 q 285 3 338 -17 q 210 42 233 24 l 210 -257 z "},"q":{"ha":810,"x_min":76,"x_max":690,"o":"m 600 631 q 538 644 579 638 q 431 650 497 650 q 243 574 314 650 q 172 357 172 499 q 185 244 172 297 q 225 151 197 190 q 298 88 253 111 q 410 65 343 65 q 471 72 442 65 q 525 88 500 78 q 569 108 550 97 q 600 129 588 119 l 600 631 m 600 42 q 524 3 576 24 q 401 -17 472 -17 q 263 11 324 -17 q 161 88 203 39 q 98 206 119 138 q 76 357 76 275 q 102 514 76 444 q 174 632 128 583 q 285 706 221 681 q 429 732 350 732 q 588 719 525 732 q 690 693 650 707 l 690 -257 l 600 -257 l 600 42 z "},"r":{"ha":519,"x_min":119,"x_max":503,"o":"m 364 732 q 448 725 408 732 q 503 711 488 718 l 485 633 q 440 645 474 639 q 350 651 406 651 q 256 643 292 651 q 210 629 221 635 l 210 0 l 119 0 l 119 685 q 215 716 154 700 q 364 732 276 732 z "},"s":{"ha":594,"x_min":56,"x_max":539,"o":"m 267 64 q 395 90 344 64 q 446 176 446 115 q 437 226 446 206 q 407 264 428 247 q 352 296 386 281 q 268 332 318 311 q 192 366 228 349 q 128 406 156 383 q 83 461 100 429 q 67 539 67 493 q 133 681 67 626 q 314 735 199 735 q 435 722 388 735 q 503 700 483 710 l 482 619 q 426 642 465 628 q 310 656 386 656 q 252 649 279 656 q 204 630 225 643 q 171 597 183 617 q 158 547 158 576 q 169 497 158 518 q 202 460 181 476 q 255 431 224 444 q 326 400 286 417 q 406 366 368 383 q 474 324 444 349 q 521 266 503 300 q 539 181 539 232 q 466 33 539 83 q 267 -17 393 -17 q 122 -1 172 -17 q 56 24 72 15 l 79 106 q 97 97 83 103 q 135 83 111 90 q 191 69 158 75 q 267 64 224 64 z "},"t":{"ha":538,"x_min":114,"x_max":521,"o":"m 204 718 l 490 718 l 490 642 l 204 642 l 204 260 q 215 160 204 199 q 244 101 225 122 q 292 74 264 81 q 353 67 319 67 q 444 80 410 67 q 499 104 479 93 l 521 29 q 453 1 501 17 q 347 -15 404 -15 q 235 2 281 -15 q 163 55 190 19 q 125 143 136 90 q 114 268 114 196 l 114 929 l 204 946 l 204 718 z "},"u":{"ha":790,"x_min":111,"x_max":671,"o":"m 671 25 q 563 0 631 14 q 396 -14 494 -14 q 261 10 315 -14 q 174 76 207 33 q 126 181 140 119 q 111 315 111 242 l 111 718 l 201 718 l 201 344 q 213 215 201 268 q 249 130 224 163 q 313 83 274 97 q 410 68 353 68 q 521 75 474 68 q 581 88 568 82 l 581 718 l 671 718 l 671 25 z "},"v":{"ha":667,"x_min":28,"x_max":639,"o":"m 336 97 q 396 234 365 157 q 455 394 426 311 q 508 560 483 476 q 549 718 532 644 l 639 718 q 583 524 614 619 q 519 336 553 428 q 448 160 485 244 q 376 0 411 75 l 290 0 q 218 160 254 75 q 148 336 182 244 q 83 524 114 428 q 28 718 53 619 l 124 718 q 165 560 140 644 q 217 394 189 476 q 276 234 246 311 q 336 97 307 157 z "},"w":{"ha":1076,"x_min":32,"x_max":1044,"o":"m 582 718 q 615 570 594 649 q 659 410 635 492 q 710 250 683 329 q 765 101 738 171 q 815 230 789 154 q 868 390 842 306 q 917 559 894 474 q 956 718 940 644 l 1044 718 q 935 332 994 507 q 806 0 876 157 l 721 0 q 677 109 700 49 q 630 238 654 169 q 583 383 606 307 q 539 538 560 458 q 495 383 518 458 q 448 238 472 307 q 401 109 424 169 q 357 0 378 49 l 271 0 q 141 332 200 157 q 32 718 82 507 l 128 718 q 166 559 143 644 q 215 390 189 474 q 269 231 242 306 q 319 103 296 156 q 373 251 346 172 q 424 411 400 331 q 468 570 447 492 q 504 718 489 649 l 582 718 z "},"x":{"ha":693,"x_min":39,"x_max":654,"o":"m 344 325 q 283 240 314 285 q 224 153 253 196 q 172 70 196 110 q 132 0 149 31 l 39 0 q 158 199 96 107 q 286 381 221 292 l 53 718 l 158 718 l 344 443 l 533 718 l 632 718 l 403 386 q 465 301 432 347 q 532 206 499 256 q 597 104 565 157 q 654 0 628 51 l 557 0 q 517 70 540 31 q 465 153 493 110 q 405 240 436 196 q 344 325 374 285 z "},"y":{"ha":658,"x_min":1,"x_max":626,"o":"m 315 -15 q 227 161 269 69 q 148 347 185 253 q 81 534 111 440 q 28 718 50 628 l 124 718 q 163 574 139 651 q 216 415 186 497 q 282 247 246 333 q 360 78 318 161 q 414 240 390 164 q 458 392 438 317 q 497 547 478 468 q 536 718 515 626 l 626 718 q 525 326 582 517 q 401 -22 468 136 q 347 -130 375 -85 q 285 -204 319 -175 q 206 -247 251 -233 q 100 -261 161 -261 q 37 -253 65 -261 q 1 -240 8 -244 l 19 -165 q 51 -177 25 -169 q 104 -185 76 -185 q 174 -176 143 -185 q 231 -148 206 -168 q 276 -96 256 -128 q 315 -15 296 -64 z "},"z":{"ha":632,"x_min":53,"x_max":578,"o":"m 565 644 q 482 544 533 608 q 372 402 431 481 q 257 238 314 324 q 157 76 200 153 l 578 76 l 578 0 l 53 0 l 53 65 q 142 215 89 133 q 253 377 196 297 q 364 527 310 457 q 456 642 418 597 l 74 642 l 74 718 l 565 718 l 565 644 z "},"{":{"ha":443,"x_min":60,"x_max":432,"o":"m 183 401 q 224 372 206 389 q 254 328 242 354 q 273 264 267 301 q 279 175 279 226 l 279 26 q 282 -83 279 -39 q 299 -153 285 -126 q 344 -192 314 -181 q 432 -203 375 -203 l 432 -272 l 421 -272 q 310 -257 354 -272 q 240 -212 265 -242 q 203 -140 214 -183 q 193 -40 193 -97 l 193 229 q 185 278 193 254 q 161 322 178 303 q 119 354 144 342 q 60 367 94 367 l 60 435 q 119 447 94 435 q 161 479 144 460 q 185 523 178 499 q 193 572 193 547 l 193 842 q 203 941 193 897 q 240 1014 214 985 q 310 1058 265 1043 q 421 1074 354 1074 l 432 1074 l 432 1004 q 344 993 375 1004 q 299 955 314 982 q 282 884 285 928 q 279 775 279 840 l 279 626 q 273 538 279 575 q 254 475 267 501 q 224 431 242 449 q 183 401 206 414 z "},"|":{"ha":364,"x_min":139,"x_max":225,"o":"m 139 1088 l 225 1088 l 225 -257 l 139 -257 l 139 1088 z "},"}":{"ha":443,"x_min":11,"x_max":383,"o":"m 260 401 q 219 431 238 414 q 189 475 201 449 q 170 538 176 501 q 164 626 164 575 l 164 775 q 161 884 164 840 q 144 955 158 928 q 99 993 129 982 q 11 1004 68 1004 l 11 1074 l 22 1074 q 133 1058 89 1074 q 203 1014 178 1043 q 240 941 229 985 q 250 842 250 897 l 250 572 q 258 523 250 547 q 282 479 265 499 q 324 447 299 460 q 383 435 349 435 l 383 367 q 324 354 349 367 q 282 322 299 342 q 258 278 265 303 q 250 229 250 254 l 250 -40 q 240 -140 250 -97 q 203 -212 229 -183 q 133 -257 178 -242 q 22 -272 89 -272 l 11 -272 l 11 -203 q 99 -192 68 -203 q 144 -153 129 -181 q 161 -83 158 -126 q 164 26 164 -39 l 164 175 q 170 264 164 226 q 189 328 176 301 q 219 372 201 354 q 260 401 238 389 z "},"~":{"ha":783,"x_min":69,"x_max":714,"o":"m 533 308 q 449 328 486 308 q 377 371 411 347 q 310 414 343 394 q 242 433 278 433 q 197 420 215 433 q 167 388 179 407 q 149 351 156 369 q 140 321 143 332 l 69 338 q 87 392 75 363 q 119 448 99 422 q 171 491 139 474 q 250 508 203 508 q 335 489 297 508 q 406 446 372 469 q 473 403 440 422 q 542 383 506 383 q 586 397 568 383 q 616 428 604 410 q 634 466 628 447 q 643 496 640 485 l 714 479 q 696 424 707 454 q 665 369 685 394 q 613 326 644 343 q 533 308 581 308 z "},"€":{"ha":783,"x_min":63,"x_max":756,"o":"m 290 568 q 288 524 289 546 q 288 481 288 501 q 288 442 288 461 q 289 403 288 422 l 585 403 l 569 329 l 296 329 q 321 228 304 276 q 367 144 338 181 q 444 86 397 108 q 560 64 492 64 q 666 76 622 64 q 735 101 710 88 l 756 24 q 726 11 746 18 q 681 -2 707 4 q 622 -13 654 -8 q 557 -18 590 -18 q 403 10 467 -18 q 298 85 340 38 q 231 195 256 132 q 197 329 207 258 l 63 329 l 63 403 l 189 403 q 188 442 188 422 q 188 481 188 461 q 192 568 188 524 l 63 568 l 63 642 l 200 642 q 238 771 213 710 q 306 878 263 832 q 410 952 349 925 q 556 979 471 979 q 610 977 586 979 q 655 972 635 975 q 694 963 675 968 q 732 950 713 957 l 710 869 q 635 891 676 883 q 556 899 593 899 q 449 878 493 899 q 374 822 404 857 q 326 740 344 786 q 300 642 308 693 l 632 642 l 618 568 l 290 568 z "},"‚":{"ha":319,"x_min":56,"x_max":217,"o":"m 217 132 l 217 118 q 193 -33 217 39 q 122 -175 169 -104 l 56 -144 q 103 -22 90 -78 q 117 82 117 33 q 117 108 117 97 q 115 132 117 119 l 217 132 z "},"ƒ":{"ha":522,"x_min":-87,"x_max":526,"o":"m 210 7 q 158 -194 210 -129 q -15 -260 107 -260 q -53 -256 -31 -260 q -87 -246 -76 -251 l -75 -172 q -49 -178 -65 -175 q -17 -181 -32 -181 q 92 -135 65 -181 q 119 3 119 -89 l 119 796 q 184 1007 119 936 q 383 1078 249 1078 q 478 1069 442 1078 q 526 1053 515 1060 l 508 975 q 463 990 493 982 q 388 997 433 997 q 251 949 292 997 q 210 793 210 900 l 210 718 l 499 718 l 499 642 l 210 642 l 210 7 z "},"„":{"ha":544,"x_min":56,"x_max":442,"o":"m 217 132 l 217 118 q 193 -33 217 39 q 122 -175 169 -104 l 56 -144 q 103 -22 90 -78 q 117 82 117 33 q 117 108 117 97 q 115 132 117 119 l 217 132 m 442 132 l 442 118 q 418 -33 442 39 q 347 -175 394 -104 l 281 -144 q 328 -22 315 -78 q 342 82 342 33 q 342 108 342 97 q 340 132 342 119 l 442 132 z "},"…":{"ha":1383,"x_min":153,"x_max":1231,"o":"m 306 60 q 285 6 306 28 q 229 -17 265 -17 q 173 6 193 -17 q 153 60 153 28 q 173 114 153 92 q 229 136 193 136 q 285 114 265 136 q 306 60 306 92 m 768 60 q 748 6 768 28 q 692 -17 728 -17 q 635 6 656 -17 q 615 60 615 28 q 635 114 615 92 q 692 136 656 136 q 748 114 728 136 q 768 60 768 92 m 1231 60 q 1210 6 1231 28 q 1154 -17 1190 -17 q 1098 6 1118 -17 q 1078 60 1078 28 q 1098 114 1078 92 q 1154 136 1118 136 q 1210 114 1190 136 q 1231 60 1231 92 z "},"†":{"ha":651,"x_min":58,"x_max":593,"o":"m 367 571 l 367 197 q 361 -16 367 78 q 344 -201 356 -110 l 307 -201 q 290 -16 294 -110 q 285 197 285 78 l 285 571 l 58 571 l 58 650 l 285 650 l 285 963 l 367 963 l 367 650 l 593 650 l 593 571 l 367 571 z "},"‡":{"ha":651,"x_min":58,"x_max":593,"o":"m 367 197 q 361 -16 367 78 q 344 -201 356 -110 l 307 -201 q 290 -16 294 -110 q 285 197 285 78 l 285 204 l 58 204 l 58 283 l 285 283 l 285 571 l 58 571 l 58 650 l 285 650 l 285 963 l 367 963 l 367 650 l 593 650 l 593 571 l 367 571 l 367 283 l 593 283 l 593 204 l 367 204 l 367 197 z "},"ˆ":{"ha":522,"x_min":78,"x_max":444,"o":"m 117 811 l 78 854 l 261 1058 l 444 854 l 406 811 l 261 944 l 117 811 z "},"‰":{"ha":1644,"x_min":82,"x_max":1563,"o":"m 806 963 l 897 963 l 349 0 l 257 0 l 806 963 m 499 735 q 482 627 499 674 q 436 549 465 581 q 369 502 407 518 q 290 486 332 486 q 211 502 249 486 q 144 549 174 518 q 99 627 115 581 q 82 735 82 674 q 99 842 82 796 q 144 920 115 889 q 211 967 174 951 q 290 983 249 983 q 369 967 332 983 q 436 920 407 951 q 482 842 465 889 q 499 735 499 796 m 417 735 q 385 862 417 814 q 290 910 353 910 q 196 862 228 910 q 164 735 164 814 q 196 608 164 656 q 290 560 228 560 q 385 608 353 560 q 417 735 417 656 m 656 228 q 672 335 656 289 q 718 413 689 382 q 785 460 747 444 q 864 476 822 476 q 943 460 906 476 q 1010 413 981 444 q 1056 335 1039 382 q 1072 228 1072 289 q 1056 120 1072 167 q 1010 42 1039 74 q 943 -5 981 11 q 864 -21 906 -21 q 785 -5 822 -21 q 718 42 747 11 q 672 120 689 74 q 656 228 656 167 m 738 228 q 769 101 738 149 q 864 53 801 53 q 958 101 926 53 q 990 228 990 149 q 958 355 990 307 q 864 403 926 403 q 769 355 801 403 q 738 228 738 307 m 1146 228 q 1163 335 1146 289 q 1208 413 1179 382 q 1275 460 1238 444 q 1354 476 1313 476 q 1433 460 1396 476 q 1500 413 1471 444 q 1546 335 1529 382 q 1563 228 1563 289 q 1546 120 1563 167 q 1500 42 1529 74 q 1433 -5 1471 11 q 1354 -21 1396 -21 q 1275 -5 1313 -21 q 1208 42 1238 11 q 1163 120 1179 74 q 1146 228 1146 167 m 1228 228 q 1260 101 1228 149 q 1354 53 1292 53 q 1449 101 1417 53 q 1481 228 1481 149 q 1449 355 1481 307 q 1354 403 1417 403 q 1260 355 1292 403 q 1228 228 1228 307 z "},"Š":{"ha":718,"x_min":47,"x_max":668,"o":"m 332 61 q 507 102 444 61 q 569 235 569 143 q 549 323 569 288 q 496 383 529 358 q 419 424 463 407 q 329 461 376 442 q 222 510 269 485 q 142 566 175 535 q 91 638 108 597 q 74 732 74 678 q 156 919 74 856 q 383 983 238 983 q 460 978 422 983 q 530 963 497 972 q 590 943 563 954 q 635 919 617 932 l 601 840 q 503 885 561 868 q 379 901 446 901 q 295 892 333 901 q 229 863 257 883 q 185 813 201 843 q 169 739 169 782 q 186 664 169 694 q 233 611 203 633 q 303 571 263 589 q 390 533 343 553 q 498 486 447 510 q 586 431 549 463 q 646 353 624 399 q 668 240 668 307 q 577 44 668 110 q 331 -21 486 -21 q 229 -14 275 -21 q 147 3 183 -7 q 86 25 111 14 q 47 44 61 36 l 78 126 q 115 107 92 118 q 171 85 139 96 q 243 68 203 75 q 332 61 283 61 m 367 1146 l 511 1279 l 550 1236 l 367 1032 l 183 1236 l 222 1279 l 367 1146 z "},"‹":{"ha":382,"x_min":50,"x_max":318,"o":"m 261 100 l 50 394 l 261 688 l 318 651 l 157 394 l 318 136 l 261 100 z "},"Œ":{"ha":1375,"x_min":90,"x_max":1321,"o":"m 749 879 q 708 885 740 881 q 600 889 675 889 q 422 860 499 889 q 293 779 344 832 q 216 651 242 726 q 190 482 190 576 q 216 312 190 388 q 293 183 242 236 q 422 102 344 131 q 600 74 499 74 q 708 78 675 74 q 749 83 740 82 l 749 879 m 750 0 q 611 -8 681 -8 q 401 22 496 -8 q 236 114 306 53 q 128 267 167 175 q 90 482 90 358 q 128 696 90 604 q 236 849 167 788 q 401 940 306 910 q 611 971 496 971 q 680 969 644 971 q 749 963 715 967 l 1285 963 l 1285 881 l 843 881 l 843 546 l 1235 546 l 1235 465 l 843 465 l 843 82 l 1321 82 l 1321 0 l 750 0 z "},"‘":{"ha":319,"x_min":103,"x_max":264,"o":"m 103 753 q 126 903 103 832 q 197 1046 150 975 l 264 1015 q 216 893 229 949 q 203 789 203 838 q 203 763 203 774 q 204 739 203 751 l 103 739 l 103 753 z "},"’":{"ha":319,"x_min":56,"x_max":217,"o":"m 217 1015 q 193 865 217 936 q 122 722 169 793 l 56 753 q 103 875 90 819 q 117 979 117 931 q 117 1006 117 994 q 115 1029 117 1017 l 217 1029 l 217 1015 z "},"“":{"ha":544,"x_min":103,"x_max":489,"o":"m 103 753 q 126 903 103 832 q 197 1046 150 975 l 264 1015 q 216 893 229 949 q 203 789 203 838 q 203 763 203 774 q 204 739 203 751 l 103 739 l 103 753 m 328 753 q 351 903 328 832 q 422 1046 375 975 l 489 1015 q 441 893 454 949 q 428 789 428 838 q 428 763 428 774 q 429 739 428 751 l 328 739 l 328 753 z "},"”":{"ha":544,"x_min":56,"x_max":442,"o":"m 217 1015 q 193 865 217 936 q 122 722 169 793 l 56 753 q 103 875 90 819 q 117 979 117 931 q 117 1006 117 994 q 115 1029 117 1017 l 217 1029 l 217 1015 m 442 1015 q 418 865 442 936 q 347 722 394 793 l 281 753 q 328 875 315 819 q 342 979 342 931 q 342 1006 342 994 q 340 1029 342 1017 l 442 1029 l 442 1015 z "},"•":{"ha":500,"x_min":83,"x_max":417,"o":"m 417 490 q 405 426 417 457 q 372 373 393 396 q 319 337 350 350 q 250 324 289 324 q 180 337 211 324 q 127 373 149 350 q 94 426 106 396 q 83 490 83 457 q 94 553 83 524 q 127 606 106 583 q 180 643 149 629 q 250 657 211 657 q 319 643 289 657 q 372 606 350 629 q 405 553 393 583 q 417 490 417 524 z "},"–":{"ha":689,"x_min":-3,"x_max":692,"o":"m -3 442 l 692 442 l 692 363 l -3 363 l -3 442 z "},"—":{"ha":1383,"x_min":-3,"x_max":1386,"o":"m -3 442 l 1386 442 l 1386 363 l -3 363 l -3 442 z "},"˜":{"ha":522,"x_min":42,"x_max":482,"o":"m 349 874 q 293 883 318 874 q 244 904 268 893 q 201 923 218 918 q 171 928 185 928 q 125 908 142 928 q 94 865 108 889 l 42 890 q 60 926 49 907 q 88 963 72 946 q 126 990 104 979 q 175 1001 147 1001 q 231 992 206 1001 q 279 971 256 982 q 322 952 306 957 q 353 947 339 947 q 399 967 382 947 q 429 1010 415 986 l 482 985 q 463 949 475 968 q 435 913 451 929 q 398 885 419 896 q 349 874 376 874 z "},"™":{"ha":990,"x_min":28,"x_max":935,"o":"m 386 963 l 386 907 l 238 907 l 238 513 l 176 513 l 176 907 l 28 907 l 28 963 l 386 963 m 681 660 q 724 744 700 699 q 772 831 749 789 q 815 908 794 872 q 847 963 835 943 l 896 963 q 908 881 901 929 q 919 774 914 833 q 928 649 924 715 q 935 513 932 582 l 872 513 q 862 699 868 613 q 847 847 856 785 q 808 779 831 818 q 765 701 786 740 q 727 628 744 663 q 700 575 710 594 l 656 575 q 628 628 646 594 q 590 701 611 663 q 547 779 569 740 q 508 847 525 818 q 494 699 500 785 q 483 513 488 613 l 424 513 q 430 649 425 582 q 440 774 435 715 q 451 881 444 833 q 463 963 457 929 l 514 963 q 547 908 526 943 q 590 831 567 872 q 637 744 613 789 q 681 660 661 699 z "},"š":{"ha":594,"x_min":56,"x_max":539,"o":"m 267 64 q 395 90 344 64 q 446 176 446 115 q 437 226 446 206 q 407 264 428 247 q 352 296 386 281 q 268 332 318 311 q 192 366 228 349 q 128 406 156 383 q 83 461 100 429 q 67 539 67 493 q 133 681 67 626 q 314 735 199 735 q 435 722 388 735 q 503 700 483 710 l 482 619 q 426 642 465 628 q 310 656 386 656 q 252 649 279 656 q 204 630 225 643 q 171 597 183 617 q 158 547 158 576 q 169 497 158 518 q 202 460 181 476 q 255 431 224 444 q 326 400 286 417 q 406 366 368 383 q 474 324 444 349 q 521 266 503 300 q 539 181 539 232 q 466 33 539 83 q 267 -17 393 -17 q 122 -1 172 -17 q 56 24 72 15 l 79 106 q 97 97 83 103 q 135 83 111 90 q 191 69 158 75 q 267 64 224 64 m 290 929 l 435 1063 l 474 1019 l 290 815 l 107 1019 l 146 1063 l 290 929 z "},"›":{"ha":382,"x_min":64,"x_max":332,"o":"m 64 136 l 225 394 l 64 651 l 121 688 l 332 394 l 121 100 l 64 136 z "},"œ":{"ha":1311,"x_min":76,"x_max":1229,"o":"m 404 735 q 570 687 501 735 q 678 554 639 639 q 788 690 718 644 q 940 735 857 735 q 1151 649 1072 735 q 1229 383 1229 563 q 1228 361 1229 372 q 1226 340 1228 350 l 722 340 q 788 138 726 208 q 982 67 849 67 q 1099 81 1056 67 q 1161 104 1142 94 l 1178 26 q 1105 0 1158 15 q 979 -15 1051 -15 q 783 31 854 -15 q 676 157 713 76 q 568 29 636 75 q 404 -17 500 -17 q 272 10 332 -17 q 169 86 213 38 q 101 204 125 135 q 76 358 76 274 q 101 513 76 443 q 169 631 125 582 q 272 708 213 681 q 404 735 332 735 m 636 358 q 574 573 636 493 q 404 653 511 653 q 235 573 297 653 q 172 358 172 493 q 235 144 172 224 q 404 65 297 65 q 574 144 511 65 q 636 358 636 224 m 1136 417 q 1083 592 1133 529 q 942 654 1033 654 q 855 635 893 654 q 788 583 817 615 q 744 507 760 550 q 725 417 728 464 l 1136 417 z "},"Ÿ":{"ha":790,"x_min":14,"x_max":776,"o":"m 349 0 l 349 396 q 167 688 250 547 q 14 963 85 829 l 124 963 q 252 715 182 840 q 399 475 322 589 q 543 715 472 589 q 674 963 614 840 l 776 963 q 621 688 703 831 q 443 399 539 546 l 443 0 l 349 0 m 340 1151 q 322 1103 340 1121 q 276 1085 304 1085 q 231 1103 249 1085 q 213 1151 213 1121 q 231 1200 213 1182 q 276 1218 249 1218 q 322 1200 304 1218 q 340 1151 340 1182 m 579 1151 q 561 1103 579 1121 q 515 1085 543 1085 q 469 1103 488 1085 q 451 1151 451 1121 q 469 1200 451 1182 q 515 1218 488 1218 q 561 1200 543 1218 q 579 1151 579 1182 z "}," ":{"ha":317,"x_min":0,"x_max":0,"o":""},"¡":{"ha":381,"x_min":114,"x_max":267,"o":"m 239 -257 l 142 -257 l 142 7 q 149 219 142 126 q 169 406 157 313 l 211 406 q 222 314 217 360 q 231 219 226 268 q 237 119 235 171 q 239 7 239 67 l 239 -257 m 267 642 q 247 588 267 610 q 190 565 226 565 q 134 588 154 565 q 114 642 114 610 q 134 696 114 674 q 190 718 154 718 q 247 696 226 718 q 267 642 267 674 z "},"¢":{"ha":783,"x_min":149,"x_max":678,"o":"m 422 47 q 304 88 356 57 q 219 165 253 118 q 167 272 185 211 q 149 403 149 332 q 167 535 149 474 q 222 644 186 597 q 308 723 257 692 q 422 764 358 754 l 422 963 l 504 963 l 504 767 q 587 758 547 767 q 665 733 626 749 l 642 657 q 573 679 613 669 q 490 689 533 689 q 307 617 369 689 q 244 403 244 546 q 259 290 244 342 q 305 201 274 239 q 385 143 336 164 q 504 122 435 122 q 603 134 563 122 q 661 154 643 146 l 678 79 q 651 67 669 74 q 608 56 632 61 q 558 48 585 51 q 504 43 531 44 l 504 -151 l 422 -151 l 422 47 z "},"£":{"ha":783,"x_min":110,"x_max":733,"o":"m 336 506 l 615 506 l 615 429 l 336 429 l 336 417 q 331 249 336 335 q 313 79 326 164 l 733 79 l 733 0 l 207 0 q 233 197 222 96 q 243 413 243 297 l 243 429 l 110 429 l 110 506 l 243 506 l 243 639 q 264 808 243 742 q 323 913 285 875 q 413 966 361 951 q 528 981 465 981 q 630 969 586 981 q 706 942 674 957 l 681 860 q 517 896 613 896 q 440 885 474 896 q 383 845 406 874 q 348 769 360 817 q 336 651 336 722 l 336 506 z "},"¤":{"ha":783,"x_min":78,"x_max":706,"o":"m 132 482 q 144 569 132 528 q 181 642 157 610 l 78 747 l 133 804 l 239 696 q 310 732 271 719 q 392 744 349 744 q 474 732 435 744 q 544 696 513 719 l 650 804 l 706 747 l 603 642 q 639 569 626 610 q 651 482 651 528 q 639 395 651 436 q 603 322 626 354 l 706 217 l 650 160 l 544 268 q 474 232 513 244 q 392 219 435 219 q 310 232 349 219 q 239 268 271 244 l 133 160 l 78 217 l 181 322 q 144 395 157 354 q 132 482 132 436 m 571 482 q 557 558 571 524 q 519 618 543 593 q 462 657 494 643 q 392 671 429 671 q 322 657 354 671 q 265 618 289 643 q 226 558 240 593 q 213 482 213 524 q 226 406 213 440 q 265 346 240 371 q 322 307 289 321 q 392 293 354 293 q 462 307 429 293 q 519 346 494 321 q 557 406 543 371 q 571 482 571 440 z "},"¥":{"ha":783,"x_min":43,"x_max":740,"o":"m 347 0 l 347 160 l 121 160 l 121 233 l 347 233 l 347 399 l 121 399 l 121 472 l 328 472 q 174 722 244 601 q 43 963 103 842 l 139 963 q 258 734 193 847 q 394 515 324 621 q 530 734 465 621 q 649 963 594 847 l 740 963 q 609 722 681 842 q 454 472 538 601 l 664 472 l 664 399 l 438 399 l 438 233 l 664 233 l 664 160 l 438 160 l 438 0 l 347 0 z "},"¦":{"ha":364,"x_min":139,"x_max":225,"o":"m 139 265 l 225 265 l 225 -257 l 139 -257 l 139 265 m 139 1088 l 225 1088 l 225 565 l 139 565 l 139 1088 z "},"§":{"ha":669,"x_min":65,"x_max":607,"o":"m 100 -39 q 181 -67 136 -54 q 307 -81 225 -81 q 375 -74 343 -81 q 431 -52 407 -67 q 469 -15 456 -37 q 483 39 483 7 q 474 90 483 68 q 442 131 464 113 q 387 164 421 149 q 306 196 353 179 q 213 230 257 213 q 137 273 169 247 q 85 336 104 299 q 65 429 65 374 q 78 501 65 468 q 111 558 92 533 q 155 601 131 583 q 200 632 179 619 q 138 698 158 663 q 118 785 118 733 q 180 930 118 876 q 363 983 242 983 q 494 970 446 983 q 564 949 543 957 l 542 875 q 474 899 518 886 q 361 913 431 913 q 249 885 293 913 q 204 800 204 858 q 241 711 204 743 q 364 653 278 679 q 453 621 410 638 q 531 578 496 604 q 586 514 565 553 q 607 417 607 475 q 596 351 607 382 q 566 294 585 321 q 523 248 547 268 q 474 214 499 228 q 545 144 519 186 q 571 51 571 103 q 497 -100 571 -49 q 297 -151 422 -151 q 162 -138 214 -151 q 78 -110 110 -125 l 100 -39 m 315 583 q 285 594 300 589 q 264 601 271 599 q 183 538 215 576 q 151 440 151 499 q 167 374 151 400 q 211 328 183 347 q 276 294 239 308 q 357 265 314 279 q 386 256 371 261 q 411 246 401 250 q 492 317 464 272 q 521 410 521 361 q 503 476 521 449 q 456 524 485 504 q 390 557 426 543 q 315 583 353 571 z "},"¨":{"ha":522,"x_min":78,"x_max":444,"o":"m 206 935 q 188 886 206 904 q 142 868 169 868 q 96 886 114 868 q 78 935 78 904 q 96 983 78 965 q 142 1001 114 1001 q 188 983 169 1001 q 206 935 206 965 m 444 935 q 426 886 444 904 q 381 868 408 868 q 335 886 353 868 q 317 935 317 904 q 335 983 317 965 q 381 1001 353 1001 q 426 983 408 1001 q 444 935 444 965 z "},"©":{"ha":1147,"x_min":103,"x_max":1044,"o":"m 581 197 q 480 217 526 197 q 399 272 433 236 q 344 362 364 308 q 325 483 325 415 q 347 602 325 550 q 404 691 368 654 q 488 747 440 728 q 586 765 535 765 q 697 747 654 765 q 754 717 739 728 l 728 654 q 674 678 707 665 q 586 692 642 692 q 459 638 510 692 q 408 483 408 583 q 458 326 408 381 q 592 271 507 271 q 685 284 651 271 q 735 307 719 297 l 758 240 q 694 213 740 229 q 581 197 649 197 m 1044 482 q 1006 269 1044 363 q 902 112 967 176 q 752 13 838 47 q 574 -21 667 -21 q 395 13 481 -21 q 245 112 310 47 q 142 269 181 176 q 103 482 103 363 q 142 694 103 600 q 245 851 181 788 q 395 949 310 915 q 574 983 481 983 q 752 949 667 983 q 902 851 838 915 q 1006 694 967 788 q 1044 482 1044 600 m 963 482 q 933 657 963 578 q 853 792 904 736 q 730 879 801 849 q 574 910 658 910 q 417 879 489 910 q 294 792 346 849 q 214 657 243 736 q 185 482 185 578 q 214 307 185 386 q 294 172 243 228 q 417 84 346 115 q 574 53 489 53 q 730 84 658 53 q 853 172 801 115 q 933 307 904 228 q 963 482 963 386 z "},"ª":{"ha":536,"x_min":64,"x_max":450,"o":"m 271 526 q 331 528 301 526 q 375 533 360 531 l 375 700 q 333 706 357 703 q 285 708 310 708 q 229 704 256 708 q 183 690 203 700 q 151 663 163 681 q 140 621 140 646 q 168 551 140 576 q 271 526 196 526 m 263 978 q 350 965 314 978 q 408 927 386 951 q 440 869 431 903 q 450 794 450 835 l 450 481 q 410 473 433 476 q 363 467 388 469 q 315 463 339 464 q 272 461 290 461 q 122 498 179 461 q 64 615 64 535 q 81 687 64 657 q 128 735 99 717 q 198 763 158 754 q 282 772 238 772 q 322 769 297 772 q 375 761 347 767 l 375 774 q 372 823 375 799 q 358 867 369 847 q 324 899 347 886 q 263 911 301 911 q 192 908 226 911 q 131 894 158 904 l 121 958 q 181 972 144 965 q 263 978 218 978 z "},"«":{"ha":628,"x_min":50,"x_max":564,"o":"m 261 100 l 50 394 l 261 688 l 318 651 l 157 394 l 318 136 l 261 100 m 507 100 l 296 394 l 507 688 l 564 651 l 403 394 l 564 136 l 507 100 z "},"¬":{"ha":783,"x_min":78,"x_max":706,"o":"m 706 67 l 625 67 l 625 450 l 78 450 l 78 528 l 706 528 l 706 67 z "},"­":{"ha":392,"x_min":39,"x_max":353,"o":"m 39 446 l 353 446 l 353 358 l 39 358 l 39 446 z "},"®":{"ha":1147,"x_min":103,"x_max":1044,"o":"m 724 207 q 649 331 688 272 q 581 425 610 390 q 563 424 571 424 q 547 424 554 424 l 460 424 l 460 207 l 383 207 l 383 744 q 455 756 415 751 q 529 760 494 760 q 709 717 647 760 q 771 586 771 674 q 743 497 771 536 q 661 438 715 457 q 691 399 672 425 q 731 342 710 374 q 772 274 751 310 q 808 207 793 238 l 724 207 m 460 486 l 529 486 q 593 490 564 486 q 644 506 622 494 q 677 538 665 518 q 689 588 689 557 q 676 637 689 617 q 641 669 663 657 q 592 688 619 682 q 533 693 564 693 q 494 692 513 693 q 460 690 475 692 l 460 486 m 1044 482 q 1006 269 1044 363 q 902 112 967 176 q 752 13 838 47 q 574 -21 667 -21 q 395 13 481 -21 q 245 112 310 47 q 142 269 181 176 q 103 482 103 363 q 142 694 103 600 q 245 851 181 788 q 395 949 310 915 q 574 983 481 983 q 752 949 667 983 q 902 851 838 915 q 1006 694 967 788 q 1044 482 1044 600 m 963 482 q 933 657 963 578 q 853 792 904 736 q 730 879 801 849 q 574 910 658 910 q 417 879 489 910 q 294 792 346 849 q 214 657 243 736 q 185 482 185 578 q 214 307 185 386 q 294 172 243 228 q 417 84 346 115 q 574 53 489 53 q 730 84 658 53 q 853 172 801 115 q 933 307 904 228 q 963 482 963 386 z "},"¯":{"ha":522,"x_min":78,"x_max":446,"o":"m 78 901 l 78 978 l 446 978 l 446 901 l 78 901 z "},"°":{"ha":442,"x_min":40,"x_max":401,"o":"m 221 710 q 152 722 185 710 q 94 758 119 735 q 55 815 69 781 q 40 892 40 849 q 55 969 40 935 q 94 1026 69 1003 q 152 1061 119 1049 q 221 1074 185 1074 q 290 1061 257 1074 q 347 1026 322 1049 q 387 969 372 1003 q 401 892 401 935 q 387 815 401 849 q 347 758 372 781 q 290 722 322 735 q 221 710 257 710 m 221 772 q 302 804 269 772 q 335 892 335 836 q 302 979 335 947 q 221 1011 269 1011 q 140 979 172 1011 q 107 892 107 947 q 140 804 107 836 q 221 772 172 772 z "},"±":{"ha":783,"x_min":78,"x_max":706,"o":"m 78 78 l 706 78 l 706 0 l 78 0 l 78 78 m 78 557 l 351 557 l 351 858 l 432 858 l 432 557 l 706 557 l 706 479 l 432 479 l 432 178 l 351 178 l 351 479 l 78 479 l 78 557 z "},"²":{"ha":499,"x_min":60,"x_max":421,"o":"m 394 833 q 384 779 394 804 q 357 733 374 754 q 319 692 340 711 q 274 654 297 672 q 215 603 238 625 q 178 564 192 581 q 160 533 165 547 q 156 507 156 519 l 421 507 l 421 440 l 76 440 q 75 454 75 447 q 75 468 75 461 q 89 542 75 510 q 124 602 103 575 q 172 652 146 629 q 224 699 199 675 q 260 730 243 715 q 289 760 276 744 q 309 794 301 776 q 317 836 317 813 q 289 899 317 882 q 224 917 261 917 q 180 910 200 917 q 143 895 160 904 q 115 877 126 886 q 97 863 103 868 l 60 915 q 126 962 83 940 q 231 983 168 983 q 351 946 308 983 q 394 833 394 908 z "},"³":{"ha":499,"x_min":63,"x_max":415,"o":"m 203 496 q 310 523 282 496 q 338 590 338 550 q 324 639 338 619 q 288 671 310 658 q 235 688 265 683 q 175 693 206 693 l 157 693 l 157 756 l 178 756 q 227 759 203 756 q 269 773 251 763 q 299 800 288 783 q 310 844 310 817 q 284 901 310 885 q 215 918 258 918 q 140 905 171 918 q 92 879 110 892 l 64 938 q 119 967 79 950 q 218 983 160 983 q 347 947 308 983 q 385 851 385 910 q 300 731 385 765 q 383 681 351 715 q 415 588 415 646 q 403 527 415 556 q 367 476 392 499 q 302 442 342 454 q 207 429 263 429 q 119 438 154 429 q 63 458 85 447 l 81 524 q 130 505 100 514 q 203 496 160 496 z "},"´":{"ha":522,"x_min":156,"x_max":439,"o":"m 439 1003 l 201 810 l 156 863 l 375 1074 l 439 1003 z "},"µ":{"ha":799,"x_min":119,"x_max":679,"o":"m 404 -14 q 276 7 325 -14 q 200 64 228 28 q 206 -26 206 19 q 207 -110 207 -71 l 207 -257 l 119 -257 l 119 718 l 210 718 l 210 344 q 221 215 210 268 q 257 130 232 163 q 322 83 282 97 q 418 68 361 68 q 529 75 482 68 q 589 88 576 82 l 589 718 l 679 718 l 679 25 q 571 0 639 14 q 404 -14 503 -14 z "},"¶":{"ha":856,"x_min":64,"x_max":715,"o":"m 635 886 q 583 891 615 889 q 524 893 550 893 q 500 892 513 893 q 481 890 488 892 l 481 -257 l 400 -257 l 400 367 q 261 393 324 372 q 155 451 199 414 q 88 541 111 488 q 64 667 64 594 q 97 800 64 743 q 188 895 129 857 q 327 952 246 933 q 506 971 408 971 q 608 967 550 971 q 715 953 667 964 l 715 -257 l 635 -257 l 635 886 z "},"·":{"ha":342,"x_min":94,"x_max":247,"o":"m 247 408 q 227 354 247 376 q 171 332 207 332 q 115 354 135 332 q 94 408 94 376 q 115 463 94 440 q 171 485 135 485 q 227 463 207 485 q 247 408 247 440 z "},"¸":{"ha":522,"x_min":136,"x_max":371,"o":"m 286 -50 q 348 -91 325 -67 q 371 -156 371 -115 q 365 -191 371 -172 q 344 -225 360 -210 q 303 -250 329 -240 q 235 -260 276 -260 q 178 -255 207 -260 q 136 -243 149 -250 l 147 -183 q 182 -193 163 -190 q 229 -196 201 -196 q 286 -156 286 -196 q 267 -119 286 -132 q 206 -90 247 -107 q 218 -58 210 -76 q 235 -24 226 -40 q 251 7 243 -7 q 263 28 258 21 l 326 28 q 305 -10 317 13 q 286 -50 293 -33 z "},"¹":{"ha":499,"x_min":85,"x_max":317,"o":"m 103 803 l 85 861 q 182 903 133 876 q 265 971 231 931 l 317 971 l 317 440 l 242 440 l 242 863 q 206 842 226 851 q 167 824 186 832 q 130 810 147 815 q 103 803 113 804 z "},"º":{"ha":607,"x_min":64,"x_max":543,"o":"m 543 719 q 525 613 543 661 q 475 531 507 565 q 399 478 443 497 q 303 460 354 460 q 208 478 251 460 q 132 531 164 497 q 82 613 100 565 q 64 719 64 661 q 82 826 64 778 q 132 908 100 874 q 208 960 164 942 q 303 979 251 979 q 399 960 354 979 q 475 908 443 942 q 525 826 507 874 q 543 719 543 778 m 461 719 q 418 859 461 807 q 303 911 375 911 q 189 859 232 911 q 146 719 146 807 q 189 580 146 632 q 303 528 232 528 q 418 580 375 528 q 461 719 461 632 z "},"»":{"ha":628,"x_min":64,"x_max":578,"o":"m 64 136 l 225 394 l 64 651 l 121 688 l 332 394 l 121 100 l 64 136 m 310 136 l 471 394 l 310 651 l 367 688 l 578 394 l 367 100 l 310 136 z "},"¼":{"ha":1214,"x_min":85,"x_max":1167,"o":"m 103 803 l 85 861 q 182 903 133 876 q 265 971 231 931 l 317 971 l 317 440 l 242 440 l 242 863 q 206 842 226 851 q 167 824 186 832 q 130 810 147 815 q 103 803 113 804 m 835 963 l 926 963 l 378 0 l 286 0 l 835 963 m 1167 196 l 1167 135 l 1096 135 l 1096 1 l 1022 1 l 1022 135 l 761 135 l 761 181 q 803 254 775 208 q 869 351 832 300 q 948 451 906 403 q 1031 532 990 500 l 1096 532 l 1096 196 l 1167 196 m 1022 196 l 1022 444 q 972 389 999 421 q 922 323 946 357 q 876 255 897 289 q 840 196 854 221 l 1022 196 z "},"½":{"ha":1214,"x_min":85,"x_max":1136,"o":"m 103 803 l 85 861 q 182 903 133 876 q 265 971 231 931 l 317 971 l 317 440 l 242 440 l 242 863 q 206 842 226 851 q 167 824 186 832 q 130 810 147 815 q 103 803 113 804 m 806 963 l 897 963 l 349 0 l 257 0 l 806 963 m 1110 394 q 1099 340 1110 365 q 1072 294 1089 315 q 1034 253 1056 272 q 989 215 1013 233 q 930 164 953 186 q 894 125 907 142 q 876 94 881 108 q 871 68 871 81 l 1136 68 l 1136 1 l 792 1 q 790 15 790 8 q 790 29 790 22 q 804 103 790 71 q 840 163 818 136 q 888 213 861 190 q 939 260 914 236 q 975 291 958 276 q 1004 322 992 306 q 1024 356 1017 338 q 1032 397 1032 374 q 1004 460 1032 443 q 939 478 976 478 q 895 472 915 478 q 858 456 875 465 q 830 438 842 447 q 813 424 818 429 l 775 476 q 841 523 799 501 q 946 544 883 544 q 1067 507 1024 544 q 1110 394 1110 469 z "},"¾":{"ha":1214,"x_min":63,"x_max":1167,"o":"m 203 496 q 310 523 282 496 q 338 590 338 550 q 324 639 338 619 q 288 671 310 658 q 235 688 265 683 q 175 693 206 693 l 157 693 l 157 756 l 178 756 q 227 759 203 756 q 269 773 251 763 q 299 800 288 783 q 310 844 310 817 q 284 901 310 885 q 215 918 258 918 q 140 905 171 918 q 92 879 110 892 l 64 938 q 119 967 79 950 q 218 983 160 983 q 347 947 308 983 q 385 851 385 910 q 300 731 385 765 q 383 681 351 715 q 415 588 415 646 q 403 527 415 556 q 367 476 392 499 q 302 442 342 454 q 207 429 263 429 q 119 438 154 429 q 63 458 85 447 l 81 524 q 130 505 100 514 q 203 496 160 496 m 856 963 l 947 963 l 399 0 l 307 0 l 856 963 m 1167 196 l 1167 135 l 1096 135 l 1096 1 l 1022 1 l 1022 135 l 761 135 l 761 181 q 803 254 775 208 q 869 351 832 300 q 948 451 906 403 q 1031 532 990 500 l 1096 532 l 1096 196 l 1167 196 m 1022 196 l 1022 444 q 972 389 999 421 q 922 323 946 357 q 876 255 897 289 q 840 196 854 221 l 1022 196 z "},"¿":{"ha":528,"x_min":42,"x_max":504,"o":"m 138 -54 q 151 -114 138 -90 q 188 -151 165 -137 q 242 -172 211 -165 q 308 -178 274 -178 q 478 -136 400 -178 l 504 -211 q 420 -243 475 -228 q 299 -258 365 -258 q 174 -240 224 -258 q 95 -192 125 -221 q 53 -129 65 -164 q 42 -62 42 -94 q 59 24 42 -15 q 103 96 76 63 q 160 161 129 129 q 218 226 192 193 q 262 298 244 260 q 279 383 279 336 q 279 395 279 392 q 278 406 279 399 l 349 406 q 354 354 354 382 q 338 273 354 310 q 298 204 322 236 q 246 142 274 172 q 194 81 218 111 q 153 17 169 50 q 138 -54 138 -15 m 381 642 q 360 588 381 610 q 304 565 340 565 q 248 588 268 565 q 228 642 228 610 q 248 696 228 674 q 304 718 268 718 q 360 696 340 718 q 381 642 381 674 z "},"À":{"ha":890,"x_min":14,"x_max":876,"o":"m 772 0 q 722 136 746 71 q 676 264 699 201 l 208 264 q 161 136 185 201 q 113 0 138 71 l 14 0 q 118 280 69 150 q 213 526 167 410 q 306 749 260 642 q 403 963 351 856 l 486 963 q 583 749 538 856 q 676 526 629 642 q 771 280 722 410 q 876 0 819 150 l 772 0 m 442 854 q 340 611 389 735 q 238 344 290 488 l 647 344 q 544 611 594 488 q 442 854 494 735 m 317 1290 l 536 1079 l 490 1026 l 253 1219 l 317 1290 z "},"Á":{"ha":890,"x_min":14,"x_max":876,"o":"m 772 0 q 722 136 746 71 q 676 264 699 201 l 208 264 q 161 136 185 201 q 113 0 138 71 l 14 0 q 118 280 69 150 q 213 526 167 410 q 306 749 260 642 q 403 963 351 856 l 486 963 q 583 749 538 856 q 676 526 629 642 q 771 280 722 410 q 876 0 819 150 l 772 0 m 442 854 q 340 611 389 735 q 238 344 290 488 l 647 344 q 544 611 594 488 q 442 854 494 735 m 636 1219 l 399 1026 l 353 1079 l 572 1290 l 636 1219 z "},"Â":{"ha":890,"x_min":14,"x_max":876,"o":"m 772 0 q 722 136 746 71 q 676 264 699 201 l 208 264 q 161 136 185 201 q 113 0 138 71 l 14 0 q 118 280 69 150 q 213 526 167 410 q 306 749 260 642 q 403 963 351 856 l 486 963 q 583 749 538 856 q 676 526 629 642 q 771 280 722 410 q 876 0 819 150 l 772 0 m 442 854 q 340 611 389 735 q 238 344 290 488 l 647 344 q 544 611 594 488 q 442 854 494 735 m 300 1028 l 261 1071 l 444 1275 l 628 1071 l 589 1028 l 444 1161 l 300 1028 z "},"Ã":{"ha":890,"x_min":14,"x_max":876,"o":"m 772 0 q 722 136 746 71 q 676 264 699 201 l 208 264 q 161 136 185 201 q 113 0 138 71 l 14 0 q 118 280 69 150 q 213 526 167 410 q 306 749 260 642 q 403 963 351 856 l 486 963 q 583 749 538 856 q 676 526 629 642 q 771 280 722 410 q 876 0 819 150 l 772 0 m 442 854 q 340 611 389 735 q 238 344 290 488 l 647 344 q 544 611 594 488 q 442 854 494 735 m 532 1090 q 476 1100 501 1090 q 428 1121 451 1110 q 385 1140 401 1135 q 354 1144 368 1144 q 308 1125 325 1144 q 278 1082 292 1106 l 225 1107 q 244 1143 232 1124 q 272 1179 256 1163 q 309 1207 288 1196 q 358 1218 331 1218 q 414 1208 389 1218 q 463 1188 439 1199 q 506 1169 489 1174 q 536 1164 522 1164 q 582 1183 565 1164 q 613 1226 599 1203 l 665 1201 q 647 1165 658 1185 q 619 1129 635 1146 q 581 1101 603 1113 q 532 1090 560 1090 z "},"Ä":{"ha":890,"x_min":14,"x_max":876,"o":"m 772 0 q 722 136 746 71 q 676 264 699 201 l 208 264 q 161 136 185 201 q 113 0 138 71 l 14 0 q 118 280 69 150 q 213 526 167 410 q 306 749 260 642 q 403 963 351 856 l 486 963 q 583 749 538 856 q 676 526 629 642 q 771 280 722 410 q 876 0 819 150 l 772 0 m 442 854 q 340 611 389 735 q 238 344 290 488 l 647 344 q 544 611 594 488 q 442 854 494 735 m 388 1151 q 369 1103 388 1121 q 324 1085 351 1085 q 278 1103 296 1085 q 260 1151 260 1121 q 278 1200 260 1182 q 324 1218 296 1218 q 369 1200 351 1218 q 388 1151 388 1182 m 626 1151 q 608 1103 626 1121 q 563 1085 590 1085 q 517 1103 535 1085 q 499 1151 499 1121 q 517 1200 499 1182 q 563 1218 535 1218 q 608 1200 590 1218 q 626 1151 626 1182 z "},"Å":{"ha":890,"x_min":14,"x_max":876,"o":"m 576 1031 q 558 960 576 990 q 510 913 539 929 q 600 710 557 813 q 687 498 643 608 q 777 265 731 388 q 876 0 824 142 l 772 0 q 722 136 746 71 q 676 264 699 201 l 208 264 q 161 136 185 201 q 113 0 138 71 l 14 0 q 111 265 65 142 q 201 498 157 388 q 288 710 244 608 q 378 913 331 813 q 329 960 347 929 q 311 1031 311 990 q 351 1126 311 1090 q 444 1163 390 1163 q 495 1153 471 1163 q 538 1126 519 1143 q 566 1084 556 1108 q 576 1031 576 1060 m 442 854 q 340 611 389 735 q 238 344 290 488 l 647 344 q 544 611 594 488 q 442 854 494 735 m 524 1031 q 501 1091 524 1069 q 444 1113 478 1113 q 388 1091 411 1113 q 365 1031 365 1069 q 388 969 365 990 q 444 949 411 949 q 501 969 478 949 q 524 1031 524 990 z "},"Æ":{"ha":1271,"x_min":8,"x_max":1217,"o":"m 644 0 l 644 264 l 246 264 q 174 132 210 197 q 106 0 139 67 l 8 0 q 158 279 83 149 q 306 527 232 410 q 453 752 379 644 q 601 963 526 860 l 1181 963 l 1181 881 l 739 881 l 739 546 l 1131 546 l 1131 465 l 739 465 l 739 82 l 1217 82 l 1217 0 l 644 0 m 644 885 q 461 622 549 756 q 292 344 374 488 l 644 344 l 644 885 z "},"Ç":{"ha":846,"x_min":86,"x_max":807,"o":"m 506 -50 q 567 -91 544 -67 q 590 -156 590 -115 q 585 -191 590 -172 q 564 -225 579 -210 q 522 -250 549 -240 q 454 -260 496 -260 q 397 -255 426 -260 q 356 -243 368 -250 l 367 -183 q 401 -193 382 -190 q 449 -196 421 -196 q 506 -156 506 -196 q 486 -119 506 -132 q 425 -90 467 -107 q 439 -55 431 -75 q 457 -15 447 -35 q 308 33 376 -4 q 191 134 240 71 q 114 284 142 197 q 86 482 86 371 q 123 697 86 603 q 221 854 160 790 q 363 951 282 918 q 531 983 443 983 q 629 976 585 983 q 707 959 674 969 q 764 938 740 949 q 800 919 788 928 l 769 838 q 681 878 735 858 q 549 899 628 899 q 391 868 458 899 q 278 782 324 838 q 209 650 232 726 q 186 481 186 574 q 209 308 186 385 q 276 176 232 231 q 385 93 321 122 q 533 64 450 64 q 687 81 625 64 q 781 117 749 99 l 807 36 q 774 20 797 29 q 714 1 750 11 q 631 -15 678 -8 q 525 -21 583 -21 l 518 -21 q 511 -35 514 -28 q 506 -50 508 -43 z "},"È":{"ha":771,"x_min":125,"x_max":717,"o":"m 125 0 l 125 963 l 681 963 l 681 881 l 219 881 l 219 546 l 631 546 l 631 465 l 219 465 l 219 82 l 717 82 l 717 0 l 125 0 m 275 1290 l 494 1079 l 449 1026 l 211 1219 l 275 1290 z "},"É":{"ha":771,"x_min":125,"x_max":717,"o":"m 125 0 l 125 963 l 681 963 l 681 881 l 219 881 l 219 546 l 631 546 l 631 465 l 219 465 l 219 82 l 717 82 l 717 0 l 125 0 m 594 1219 l 357 1026 l 311 1079 l 531 1290 l 594 1219 z "},"Ê":{"ha":771,"x_min":125,"x_max":717,"o":"m 125 0 l 125 963 l 681 963 l 681 881 l 219 881 l 219 546 l 631 546 l 631 465 l 219 465 l 219 82 l 717 82 l 717 0 l 125 0 m 258 1028 l 219 1071 l 403 1275 l 586 1071 l 547 1028 l 403 1161 l 258 1028 z "},"Ë":{"ha":771,"x_min":125,"x_max":717,"o":"m 125 0 l 125 963 l 681 963 l 681 881 l 219 881 l 219 546 l 631 546 l 631 465 l 219 465 l 219 82 l 717 82 l 717 0 l 125 0 m 347 1151 q 329 1103 347 1121 q 283 1085 311 1085 q 238 1103 256 1085 q 219 1151 219 1121 q 238 1200 219 1182 q 283 1218 256 1218 q 329 1200 311 1218 q 347 1151 347 1182 m 586 1151 q 568 1103 586 1121 q 522 1085 550 1085 q 476 1103 494 1085 q 458 1151 458 1121 q 476 1200 458 1182 q 522 1218 494 1218 q 568 1200 550 1218 q 586 1151 586 1182 z "},"Ì":{"ha":344,"x_min":-18,"x_max":265,"o":"m 125 963 l 219 963 l 219 0 l 125 0 l 125 963 m 46 1290 l 265 1079 l 219 1026 l -18 1219 l 46 1290 z "},"Í":{"ha":344,"x_min":82,"x_max":365,"o":"m 125 963 l 219 963 l 219 0 l 125 0 l 125 963 m 365 1219 l 128 1026 l 82 1079 l 301 1290 l 365 1219 z "},"Î":{"ha":344,"x_min":-10,"x_max":357,"o":"m 125 963 l 219 963 l 219 0 l 125 0 l 125 963 m 29 1028 l -10 1071 l 174 1275 l 357 1071 l 318 1028 l 174 1161 l 29 1028 z "},"Ï":{"ha":344,"x_min":-10,"x_max":357,"o":"m 125 963 l 219 963 l 219 0 l 125 0 l 125 963 m 118 1151 q 100 1103 118 1121 q 54 1085 82 1085 q 8 1103 26 1085 q -10 1151 -10 1121 q 8 1200 -10 1182 q 54 1218 26 1218 q 100 1200 82 1218 q 118 1151 118 1182 m 357 1151 q 339 1103 357 1121 q 293 1085 321 1085 q 247 1103 265 1085 q 229 1151 229 1121 q 247 1200 229 1182 q 293 1218 265 1218 q 339 1200 321 1218 q 357 1151 357 1182 z "},"Ð":{"ha":994,"x_min":33,"x_max":908,"o":"m 908 482 q 869 267 908 358 q 760 114 831 175 q 593 22 690 53 q 379 -8 496 -8 q 257 -2 321 -8 q 144 17 193 4 l 144 465 l 33 465 l 33 542 l 144 542 l 144 944 q 257 965 193 958 q 379 971 321 971 q 593 940 496 971 q 760 849 690 910 q 869 696 831 788 q 908 482 908 604 m 239 83 q 281 78 247 82 q 390 74 315 74 q 572 102 494 74 q 703 183 650 131 q 782 312 756 236 q 808 482 808 388 q 782 651 808 576 q 703 779 756 726 q 572 860 650 832 q 390 889 494 889 q 281 885 315 889 q 239 879 247 881 l 239 542 l 422 542 l 422 465 l 239 465 l 239 83 z "},"Ñ":{"ha":985,"x_min":125,"x_max":860,"o":"m 781 0 q 713 114 754 49 q 624 253 672 179 q 521 406 575 328 q 413 559 467 485 q 309 699 360 633 q 218 811 258 764 l 218 0 l 125 0 l 125 963 l 200 963 q 352 780 271 883 q 511 569 433 676 q 656 358 589 461 q 767 179 724 256 l 767 963 l 860 963 l 860 0 l 781 0 m 579 1090 q 524 1100 549 1090 q 475 1121 499 1110 q 432 1140 449 1135 q 401 1144 415 1144 q 356 1125 372 1144 q 325 1082 339 1106 l 272 1107 q 291 1143 279 1124 q 319 1179 303 1163 q 356 1207 335 1196 q 406 1218 378 1218 q 461 1208 436 1218 q 510 1188 486 1199 q 553 1169 536 1174 q 583 1164 569 1164 q 629 1183 613 1164 q 660 1226 646 1203 l 713 1201 q 694 1165 706 1185 q 666 1129 682 1146 q 628 1101 650 1113 q 579 1090 607 1090 z "},"Ò":{"ha":1075,"x_min":86,"x_max":989,"o":"m 989 482 q 953 264 989 358 q 855 106 917 169 q 711 11 793 43 q 538 -21 629 -21 q 364 11 446 -21 q 220 106 282 43 q 122 264 158 169 q 86 482 86 358 q 122 699 86 606 q 220 856 158 793 q 364 951 282 919 q 538 983 446 983 q 711 951 629 983 q 855 856 793 919 q 953 699 917 793 q 989 482 989 606 m 889 482 q 864 656 889 579 q 793 788 839 733 q 683 870 747 842 q 538 899 618 899 q 392 870 457 899 q 282 788 328 842 q 211 656 236 733 q 186 482 186 579 q 211 308 186 385 q 282 176 236 231 q 392 93 328 122 q 538 64 457 64 q 683 93 618 64 q 793 176 747 122 q 864 308 839 231 q 889 482 889 385 m 410 1290 l 629 1079 l 583 1026 l 346 1219 l 410 1290 z "},"Ó":{"ha":1075,"x_min":86,"x_max":989,"o":"m 989 482 q 953 264 989 358 q 855 106 917 169 q 711 11 793 43 q 538 -21 629 -21 q 364 11 446 -21 q 220 106 282 43 q 122 264 158 169 q 86 482 86 358 q 122 699 86 606 q 220 856 158 793 q 364 951 282 919 q 538 983 446 983 q 711 951 629 983 q 855 856 793 919 q 953 699 917 793 q 989 482 989 606 m 889 482 q 864 656 889 579 q 793 788 839 733 q 683 870 747 842 q 538 899 618 899 q 392 870 457 899 q 282 788 328 842 q 211 656 236 733 q 186 482 186 579 q 211 308 186 385 q 282 176 236 231 q 392 93 328 122 q 538 64 457 64 q 683 93 618 64 q 793 176 747 122 q 864 308 839 231 q 889 482 889 385 m 729 1219 l 492 1026 l 446 1079 l 665 1290 l 729 1219 z "},"Ô":{"ha":1075,"x_min":86,"x_max":989,"o":"m 989 482 q 953 264 989 358 q 855 106 917 169 q 711 11 793 43 q 538 -21 629 -21 q 364 11 446 -21 q 220 106 282 43 q 122 264 158 169 q 86 482 86 358 q 122 699 86 606 q 220 856 158 793 q 364 951 282 919 q 538 983 446 983 q 711 951 629 983 q 855 856 793 919 q 953 699 917 793 q 989 482 989 606 m 889 482 q 864 656 889 579 q 793 788 839 733 q 683 870 747 842 q 538 899 618 899 q 392 870 457 899 q 282 788 328 842 q 211 656 236 733 q 186 482 186 579 q 211 308 186 385 q 282 176 236 231 q 392 93 328 122 q 538 64 457 64 q 683 93 618 64 q 793 176 747 122 q 864 308 839 231 q 889 482 889 385 m 393 1028 l 354 1071 l 538 1275 l 721 1071 l 682 1028 l 538 1161 l 393 1028 z "},"Õ":{"ha":1075,"x_min":86,"x_max":989,"o":"m 989 482 q 953 264 989 358 q 855 106 917 169 q 711 11 793 43 q 538 -21 629 -21 q 364 11 446 -21 q 220 106 282 43 q 122 264 158 169 q 86 482 86 358 q 122 699 86 606 q 220 856 158 793 q 364 951 282 919 q 538 983 446 983 q 711 951 629 983 q 855 856 793 919 q 953 699 917 793 q 989 482 989 606 m 889 482 q 864 656 889 579 q 793 788 839 733 q 683 870 747 842 q 538 899 618 899 q 392 870 457 899 q 282 788 328 842 q 211 656 236 733 q 186 482 186 579 q 211 308 186 385 q 282 176 236 231 q 392 93 328 122 q 538 64 457 64 q 683 93 618 64 q 793 176 747 122 q 864 308 839 231 q 889 482 889 385 m 625 1090 q 569 1100 594 1090 q 521 1121 544 1110 q 478 1140 494 1135 q 447 1144 461 1144 q 401 1125 418 1144 q 371 1082 385 1106 l 318 1107 q 337 1143 325 1124 q 365 1179 349 1163 q 402 1207 381 1196 q 451 1218 424 1218 q 507 1208 482 1218 q 556 1188 532 1199 q 599 1169 582 1174 q 629 1164 615 1164 q 675 1183 658 1164 q 706 1226 692 1203 l 758 1201 q 740 1165 751 1185 q 712 1129 728 1146 q 674 1101 696 1113 q 625 1090 653 1090 z "},"Ö":{"ha":1075,"x_min":86,"x_max":989,"o":"m 989 482 q 953 264 989 358 q 855 106 917 169 q 711 11 793 43 q 538 -21 629 -21 q 364 11 446 -21 q 220 106 282 43 q 122 264 158 169 q 86 482 86 358 q 122 699 86 606 q 220 856 158 793 q 364 951 282 919 q 538 983 446 983 q 711 951 629 983 q 855 856 793 919 q 953 699 917 793 q 989 482 989 606 m 889 482 q 864 656 889 579 q 793 788 839 733 q 683 870 747 842 q 538 899 618 899 q 392 870 457 899 q 282 788 328 842 q 211 656 236 733 q 186 482 186 579 q 211 308 186 385 q 282 176 236 231 q 392 93 328 122 q 538 64 457 64 q 683 93 618 64 q 793 176 747 122 q 864 308 839 231 q 889 482 889 385 m 482 1151 q 464 1103 482 1121 q 418 1085 446 1085 q 372 1103 390 1085 q 354 1151 354 1121 q 372 1200 354 1182 q 418 1218 390 1218 q 464 1200 446 1218 q 482 1151 482 1182 m 721 1151 q 703 1103 721 1121 q 657 1085 685 1085 q 611 1103 629 1085 q 593 1151 593 1121 q 611 1200 593 1182 q 657 1218 629 1218 q 703 1200 685 1218 q 721 1151 721 1182 z "},"×":{"ha":783,"x_min":125,"x_max":658,"o":"m 179 675 l 392 461 l 604 675 l 658 621 l 444 408 l 658 196 l 604 142 l 392 356 l 179 142 l 125 196 l 339 408 l 125 621 l 179 675 z "},"Ø":{"ha":1075,"x_min":86,"x_max":989,"o":"m 989 482 q 953 264 989 358 q 855 106 917 169 q 711 11 793 43 q 538 -21 629 -21 q 395 0 463 -21 q 269 64 328 21 l 185 -47 l 118 3 l 208 119 q 118 273 150 182 q 86 482 86 364 q 122 699 86 606 q 220 856 158 793 q 364 951 282 919 q 538 983 446 983 q 681 962 613 983 q 808 896 750 940 l 897 1011 l 964 961 l 869 839 q 957 688 925 776 q 989 482 989 599 m 186 482 q 207 320 186 393 q 267 194 228 247 l 754 825 q 538 899 664 899 q 392 870 457 899 q 282 788 328 842 q 211 656 236 733 q 186 482 186 579 m 889 482 q 869 640 889 569 q 811 764 849 711 l 324 133 q 538 64 410 64 q 683 93 618 64 q 793 176 747 122 q 864 308 839 231 q 889 482 889 385 z "},"Ù":{"ha":944,"x_min":121,"x_max":824,"o":"m 472 -21 q 309 8 376 -21 q 200 89 242 38 q 140 209 158 140 q 121 357 121 278 l 121 963 l 215 963 l 215 369 q 234 233 215 290 q 286 138 253 175 q 367 82 319 100 q 472 64 414 64 q 578 82 531 64 q 658 138 625 100 q 710 233 692 175 q 729 369 729 290 l 729 963 l 824 963 l 824 357 q 805 209 824 278 q 744 89 786 140 q 635 8 703 38 q 472 -21 568 -21 m 344 1290 l 564 1079 l 518 1026 l 281 1219 l 344 1290 z "},"Ú":{"ha":944,"x_min":121,"x_max":824,"o":"m 472 -21 q 309 8 376 -21 q 200 89 242 38 q 140 209 158 140 q 121 357 121 278 l 121 963 l 215 963 l 215 369 q 234 233 215 290 q 286 138 253 175 q 367 82 319 100 q 472 64 414 64 q 578 82 531 64 q 658 138 625 100 q 710 233 692 175 q 729 369 729 290 l 729 963 l 824 963 l 824 357 q 805 209 824 278 q 744 89 786 140 q 635 8 703 38 q 472 -21 568 -21 m 664 1219 l 426 1026 l 381 1079 l 600 1290 l 664 1219 z "},"Û":{"ha":944,"x_min":121,"x_max":824,"o":"m 472 -21 q 309 8 376 -21 q 200 89 242 38 q 140 209 158 140 q 121 357 121 278 l 121 963 l 215 963 l 215 369 q 234 233 215 290 q 286 138 253 175 q 367 82 319 100 q 472 64 414 64 q 578 82 531 64 q 658 138 625 100 q 710 233 692 175 q 729 369 729 290 l 729 963 l 824 963 l 824 357 q 805 209 824 278 q 744 89 786 140 q 635 8 703 38 q 472 -21 568 -21 m 328 1028 l 289 1071 l 472 1275 l 656 1071 l 617 1028 l 472 1161 l 328 1028 z "},"Ü":{"ha":944,"x_min":121,"x_max":824,"o":"m 472 -21 q 309 8 376 -21 q 200 89 242 38 q 140 209 158 140 q 121 357 121 278 l 121 963 l 215 963 l 215 369 q 234 233 215 290 q 286 138 253 175 q 367 82 319 100 q 472 64 414 64 q 578 82 531 64 q 658 138 625 100 q 710 233 692 175 q 729 369 729 290 l 729 963 l 824 963 l 824 357 q 805 209 824 278 q 744 89 786 140 q 635 8 703 38 q 472 -21 568 -21 m 417 1151 q 399 1103 417 1121 q 353 1085 381 1085 q 307 1103 325 1085 q 289 1151 289 1121 q 307 1200 289 1182 q 353 1218 325 1218 q 399 1200 381 1218 q 417 1151 417 1182 m 656 1151 q 638 1103 656 1121 q 592 1085 619 1085 q 546 1103 564 1085 q 528 1151 528 1121 q 546 1200 528 1182 q 592 1218 564 1218 q 638 1200 619 1218 q 656 1151 656 1182 z "},"Ý":{"ha":790,"x_min":14,"x_max":776,"o":"m 349 0 l 349 396 q 167 688 250 547 q 14 963 85 829 l 124 963 q 252 715 182 840 q 399 475 322 589 q 543 715 472 589 q 674 963 614 840 l 776 963 q 621 688 703 831 q 443 399 539 546 l 443 0 l 349 0 m 588 1219 l 350 1026 l 304 1079 l 524 1290 l 588 1219 z "},"Þ":{"ha":824,"x_min":125,"x_max":772,"o":"m 219 792 q 287 797 243 794 q 365 800 331 800 q 672 722 571 800 q 772 501 772 643 q 743 362 772 419 q 660 269 714 304 q 527 217 606 233 q 350 201 449 201 l 219 201 l 219 0 l 125 0 l 125 963 l 219 963 l 219 792 m 369 718 q 281 715 319 718 q 219 710 243 713 l 219 283 l 339 283 q 477 292 415 283 q 583 326 539 301 q 650 393 626 350 q 674 503 674 436 q 648 608 674 567 q 580 674 622 650 q 483 708 538 699 q 369 718 428 718 z "},"ß":{"ha":828,"x_min":119,"x_max":781,"o":"m 660 860 q 648 794 660 824 q 619 740 636 764 q 582 697 601 717 q 549 664 563 678 q 516 630 529 644 q 494 603 503 615 q 483 578 486 590 q 479 550 479 565 q 488 515 479 531 q 512 489 497 500 q 544 469 526 478 q 581 451 563 460 q 659 411 622 432 q 723 363 696 390 q 765 296 750 335 q 781 201 781 257 q 710 40 781 97 q 513 -17 639 -17 q 396 -2 444 -17 q 333 19 347 13 l 353 103 q 406 79 364 96 q 529 63 449 63 q 646 100 604 63 q 688 201 688 138 q 680 255 688 232 q 654 297 672 278 q 608 334 636 317 q 542 372 581 351 q 466 414 496 396 q 419 451 436 432 q 394 490 401 469 q 388 542 388 511 q 415 625 388 589 q 478 699 442 661 q 516 738 499 721 q 545 774 533 756 q 563 811 557 792 q 569 856 569 831 q 526 958 569 918 q 410 997 483 997 q 256 938 303 997 q 210 778 210 878 l 210 0 l 119 0 l 119 783 q 139 905 119 850 q 195 998 158 960 q 283 1057 232 1036 q 399 1078 335 1078 q 597 1017 535 1078 q 660 860 660 957 z "},"à":{"ha":707,"x_min":67,"x_max":596,"o":"m 346 65 q 438 69 399 65 q 506 78 478 72 l 506 331 q 457 345 490 338 q 365 353 424 353 q 296 348 332 353 q 229 327 260 343 q 179 283 199 311 q 160 210 160 256 q 173 142 160 169 q 210 97 186 114 q 269 73 235 81 q 346 65 303 65 m 338 735 q 458 715 408 735 q 538 659 507 694 q 582 575 568 624 q 596 469 596 526 l 596 17 q 556 8 582 13 q 494 -3 529 3 q 417 -12 460 -8 q 331 -15 375 -15 q 226 -3 274 -15 q 142 37 178 10 q 87 106 107 64 q 67 210 67 149 q 89 310 67 268 q 151 378 111 351 q 247 418 192 406 q 368 431 303 431 q 409 428 388 431 q 451 423 431 426 q 485 416 471 419 q 506 410 500 413 l 506 454 q 500 527 506 492 q 476 591 494 563 q 423 637 457 619 q 333 654 389 654 q 215 643 254 654 q 158 625 176 632 l 146 704 q 219 725 169 715 q 338 735 268 735 m 233 1074 l 453 863 l 407 810 l 169 1003 l 233 1074 z "},"á":{"ha":707,"x_min":67,"x_max":596,"o":"m 346 65 q 438 69 399 65 q 506 78 478 72 l 506 331 q 457 345 490 338 q 365 353 424 353 q 296 348 332 353 q 229 327 260 343 q 179 283 199 311 q 160 210 160 256 q 173 142 160 169 q 210 97 186 114 q 269 73 235 81 q 346 65 303 65 m 338 735 q 458 715 408 735 q 538 659 507 694 q 582 575 568 624 q 596 469 596 526 l 596 17 q 556 8 582 13 q 494 -3 529 3 q 417 -12 460 -8 q 331 -15 375 -15 q 226 -3 274 -15 q 142 37 178 10 q 87 106 107 64 q 67 210 67 149 q 89 310 67 268 q 151 378 111 351 q 247 418 192 406 q 368 431 303 431 q 409 428 388 431 q 451 423 431 426 q 485 416 471 419 q 506 410 500 413 l 506 454 q 500 527 506 492 q 476 591 494 563 q 423 637 457 619 q 333 654 389 654 q 215 643 254 654 q 158 625 176 632 l 146 704 q 219 725 169 715 q 338 735 268 735 m 553 1003 l 315 810 l 269 863 l 489 1074 l 553 1003 z "},"â":{"ha":707,"x_min":67,"x_max":596,"o":"m 346 65 q 438 69 399 65 q 506 78 478 72 l 506 331 q 457 345 490 338 q 365 353 424 353 q 296 348 332 353 q 229 327 260 343 q 179 283 199 311 q 160 210 160 256 q 173 142 160 169 q 210 97 186 114 q 269 73 235 81 q 346 65 303 65 m 338 735 q 458 715 408 735 q 538 659 507 694 q 582 575 568 624 q 596 469 596 526 l 596 17 q 556 8 582 13 q 494 -3 529 3 q 417 -12 460 -8 q 331 -15 375 -15 q 226 -3 274 -15 q 142 37 178 10 q 87 106 107 64 q 67 210 67 149 q 89 310 67 268 q 151 378 111 351 q 247 418 192 406 q 368 431 303 431 q 409 428 388 431 q 451 423 431 426 q 485 416 471 419 q 506 410 500 413 l 506 454 q 500 527 506 492 q 476 591 494 563 q 423 637 457 619 q 333 654 389 654 q 215 643 254 654 q 158 625 176 632 l 146 704 q 219 725 169 715 q 338 735 268 735 m 217 811 l 178 854 l 361 1058 l 544 854 l 506 811 l 361 944 l 217 811 z "},"ã":{"ha":707,"x_min":67,"x_max":596,"o":"m 346 65 q 438 69 399 65 q 506 78 478 72 l 506 331 q 457 345 490 338 q 365 353 424 353 q 296 348 332 353 q 229 327 260 343 q 179 283 199 311 q 160 210 160 256 q 173 142 160 169 q 210 97 186 114 q 269 73 235 81 q 346 65 303 65 m 338 735 q 458 715 408 735 q 538 659 507 694 q 582 575 568 624 q 596 469 596 526 l 596 17 q 556 8 582 13 q 494 -3 529 3 q 417 -12 460 -8 q 331 -15 375 -15 q 226 -3 274 -15 q 142 37 178 10 q 87 106 107 64 q 67 210 67 149 q 89 310 67 268 q 151 378 111 351 q 247 418 192 406 q 368 431 303 431 q 409 428 388 431 q 451 423 431 426 q 485 416 471 419 q 506 410 500 413 l 506 454 q 500 527 506 492 q 476 591 494 563 q 423 637 457 619 q 333 654 389 654 q 215 643 254 654 q 158 625 176 632 l 146 704 q 219 725 169 715 q 338 735 268 735 m 449 874 q 393 883 418 874 q 344 904 368 893 q 301 923 318 918 q 271 928 285 928 q 225 908 242 928 q 194 865 208 889 l 142 890 q 160 926 149 907 q 188 963 172 946 q 226 990 204 979 q 275 1001 247 1001 q 331 992 306 1001 q 379 971 356 982 q 422 952 406 957 q 453 947 439 947 q 499 967 482 947 q 529 1010 515 986 l 582 985 q 563 949 575 968 q 535 913 551 929 q 498 885 519 896 q 449 874 476 874 z "},"ä":{"ha":707,"x_min":67,"x_max":596,"o":"m 346 65 q 438 69 399 65 q 506 78 478 72 l 506 331 q 457 345 490 338 q 365 353 424 353 q 296 348 332 353 q 229 327 260 343 q 179 283 199 311 q 160 210 160 256 q 173 142 160 169 q 210 97 186 114 q 269 73 235 81 q 346 65 303 65 m 338 735 q 458 715 408 735 q 538 659 507 694 q 582 575 568 624 q 596 469 596 526 l 596 17 q 556 8 582 13 q 494 -3 529 3 q 417 -12 460 -8 q 331 -15 375 -15 q 226 -3 274 -15 q 142 37 178 10 q 87 106 107 64 q 67 210 67 149 q 89 310 67 268 q 151 378 111 351 q 247 418 192 406 q 368 431 303 431 q 409 428 388 431 q 451 423 431 426 q 485 416 471 419 q 506 410 500 413 l 506 454 q 500 527 506 492 q 476 591 494 563 q 423 637 457 619 q 333 654 389 654 q 215 643 254 654 q 158 625 176 632 l 146 704 q 219 725 169 715 q 338 735 268 735 m 306 935 q 288 886 306 904 q 242 868 269 868 q 196 886 214 868 q 178 935 178 904 q 196 983 178 965 q 242 1001 214 1001 q 288 983 269 1001 q 306 935 306 965 m 544 935 q 526 886 544 904 q 481 868 508 868 q 435 886 453 868 q 417 935 417 904 q 435 983 417 965 q 481 1001 453 1001 q 526 983 508 1001 q 544 935 544 965 z "},"å":{"ha":707,"x_min":67,"x_max":596,"o":"m 346 65 q 438 69 399 65 q 506 78 478 72 l 506 331 q 457 345 490 338 q 365 353 424 353 q 296 348 332 353 q 229 327 260 343 q 179 283 199 311 q 160 210 160 256 q 173 142 160 169 q 210 97 186 114 q 269 73 235 81 q 346 65 303 65 m 338 735 q 458 715 408 735 q 538 659 507 694 q 582 575 568 624 q 596 469 596 526 l 596 17 q 556 8 582 13 q 494 -3 529 3 q 417 -12 460 -8 q 331 -15 375 -15 q 226 -3 274 -15 q 142 37 178 10 q 87 106 107 64 q 67 210 67 149 q 89 310 67 268 q 151 378 111 351 q 247 418 192 406 q 368 431 303 431 q 409 428 388 431 q 451 423 431 426 q 485 416 471 419 q 506 410 500 413 l 506 454 q 500 527 506 492 q 476 591 494 563 q 423 637 457 619 q 333 654 389 654 q 215 643 254 654 q 158 625 176 632 l 146 704 q 219 725 169 715 q 338 735 268 735 m 494 939 q 484 884 494 908 q 456 842 474 860 q 413 815 438 825 q 363 806 389 806 q 269 842 308 806 q 229 939 229 878 q 269 1035 229 999 q 363 1071 308 1071 q 413 1061 389 1071 q 456 1034 438 1051 q 484 992 474 1017 q 494 939 494 968 m 442 939 q 419 999 442 978 q 363 1021 396 1021 q 306 999 329 1021 q 283 939 283 978 q 306 878 283 899 q 363 857 329 857 q 419 878 396 857 q 442 939 442 899 z "},"æ":{"ha":1186,"x_min":67,"x_max":1104,"o":"m 1011 417 q 958 592 1008 529 q 817 654 908 654 q 730 635 768 654 q 663 583 692 615 q 619 507 635 550 q 600 417 603 464 l 1011 417 m 350 -15 q 237 -3 289 -15 q 147 37 185 10 q 88 106 110 64 q 67 210 67 149 q 89 310 67 268 q 151 378 111 351 q 247 418 192 406 q 368 431 303 431 q 409 428 388 431 q 451 423 431 426 q 485 416 471 419 q 506 410 500 413 l 506 454 q 500 527 506 492 q 476 591 494 563 q 423 637 457 619 q 333 654 389 654 q 217 644 258 654 q 157 626 175 633 l 146 704 q 219 725 169 715 q 338 735 269 735 q 492 698 436 735 q 572 599 549 661 q 682 701 618 667 q 815 735 746 735 q 1026 649 947 735 q 1104 383 1104 563 q 1103 361 1104 372 q 1101 340 1103 350 l 597 340 q 663 138 601 208 q 857 67 724 67 q 974 81 931 67 q 1036 104 1017 94 l 1053 26 q 980 0 1033 15 q 854 -15 926 -15 q 714 4 775 -15 q 607 68 653 24 q 569 41 592 56 q 514 14 546 26 q 442 -7 482 1 q 350 -15 401 -15 m 507 331 q 458 345 492 338 q 365 353 424 353 q 296 348 332 353 q 229 327 260 343 q 179 283 199 311 q 160 210 160 256 q 174 142 160 169 q 213 97 188 114 q 274 73 239 81 q 350 65 308 65 q 486 88 436 65 q 556 129 536 111 q 521 215 533 165 q 507 331 508 264 z "},"ç":{"ha":639,"x_min":76,"x_max":607,"o":"m 408 -50 q 470 -91 447 -67 q 493 -156 493 -115 q 488 -191 493 -172 q 467 -225 482 -210 q 425 -250 451 -240 q 357 -260 399 -260 q 300 -255 329 -260 q 258 -243 271 -250 l 269 -183 q 304 -193 285 -190 q 351 -196 324 -196 q 408 -156 408 -196 q 389 -119 408 -132 q 328 -90 369 -107 q 342 -52 333 -74 q 363 -11 351 -31 q 149 104 222 6 q 76 357 76 203 q 99 511 76 442 q 165 631 122 581 q 269 708 208 681 q 407 735 331 735 q 516 725 465 735 q 594 700 567 715 l 571 622 q 508 644 543 636 q 415 653 474 653 q 234 576 296 653 q 172 357 172 499 q 186 240 172 293 q 231 148 200 186 q 312 88 263 110 q 432 67 361 67 q 530 80 490 67 q 588 103 569 93 l 607 25 q 532 -1 583 11 q 424 -15 481 -14 q 415 -34 419 -25 q 408 -50 411 -43 z "},"è":{"ha":761,"x_min":76,"x_max":679,"o":"m 76 360 q 103 524 76 454 q 174 642 131 594 q 274 712 218 689 q 390 735 331 735 q 601 649 522 735 q 679 383 679 563 q 678 361 679 372 q 676 340 678 350 l 172 340 q 238 138 176 208 q 432 67 299 67 q 549 81 506 67 q 611 104 592 94 l 628 26 q 555 0 608 15 q 429 -15 501 -15 q 268 13 335 -15 q 158 90 201 40 q 96 209 115 140 q 76 360 76 278 m 586 417 q 533 592 583 529 q 392 654 483 654 q 305 635 343 654 q 238 583 267 615 q 194 507 210 550 q 175 417 178 464 l 586 417 m 261 1074 l 481 863 l 435 810 l 197 1003 l 261 1074 z "},"é":{"ha":761,"x_min":76,"x_max":679,"o":"m 76 360 q 103 524 76 454 q 174 642 131 594 q 274 712 218 689 q 390 735 331 735 q 601 649 522 735 q 679 383 679 563 q 678 361 679 372 q 676 340 678 350 l 172 340 q 238 138 176 208 q 432 67 299 67 q 549 81 506 67 q 611 104 592 94 l 628 26 q 555 0 608 15 q 429 -15 501 -15 q 268 13 335 -15 q 158 90 201 40 q 96 209 115 140 q 76 360 76 278 m 586 417 q 533 592 583 529 q 392 654 483 654 q 305 635 343 654 q 238 583 267 615 q 194 507 210 550 q 175 417 178 464 l 586 417 m 581 1003 l 343 810 l 297 863 l 517 1074 l 581 1003 z "},"ê":{"ha":761,"x_min":76,"x_max":679,"o":"m 76 360 q 103 524 76 454 q 174 642 131 594 q 274 712 218 689 q 390 735 331 735 q 601 649 522 735 q 679 383 679 563 q 678 361 679 372 q 676 340 678 350 l 172 340 q 238 138 176 208 q 432 67 299 67 q 549 81 506 67 q 611 104 592 94 l 628 26 q 555 0 608 15 q 429 -15 501 -15 q 268 13 335 -15 q 158 90 201 40 q 96 209 115 140 q 76 360 76 278 m 586 417 q 533 592 583 529 q 392 654 483 654 q 305 635 343 654 q 238 583 267 615 q 194 507 210 550 q 175 417 178 464 l 586 417 m 244 811 l 206 854 l 389 1058 l 572 854 l 533 811 l 389 944 l 244 811 z "},"ë":{"ha":761,"x_min":76,"x_max":679,"o":"m 76 360 q 103 524 76 454 q 174 642 131 594 q 274 712 218 689 q 390 735 331 735 q 601 649 522 735 q 679 383 679 563 q 678 361 679 372 q 676 340 678 350 l 172 340 q 238 138 176 208 q 432 67 299 67 q 549 81 506 67 q 611 104 592 94 l 628 26 q 555 0 608 15 q 429 -15 501 -15 q 268 13 335 -15 q 158 90 201 40 q 96 209 115 140 q 76 360 76 278 m 586 417 q 533 592 583 529 q 392 654 483 654 q 305 635 343 654 q 238 583 267 615 q 194 507 210 550 q 175 417 178 464 l 586 417 m 333 935 q 315 886 333 904 q 269 868 297 868 q 224 886 242 868 q 206 935 206 904 q 224 983 206 965 q 269 1001 242 1001 q 315 983 297 1001 q 333 935 333 965 m 572 935 q 554 886 572 904 q 508 868 536 868 q 463 886 481 868 q 444 935 444 904 q 463 983 444 965 q 508 1001 481 1001 q 554 983 536 1001 q 572 935 572 965 z "},"ì":{"ha":329,"x_min":-26,"x_max":257,"o":"m 210 0 l 119 0 l 119 718 l 210 718 l 210 0 m 38 1074 l 257 863 l 211 810 l -26 1003 l 38 1074 z "},"í":{"ha":329,"x_min":74,"x_max":357,"o":"m 210 0 l 119 0 l 119 718 l 210 718 l 210 0 m 357 1003 l 119 810 l 74 863 l 293 1074 l 357 1003 z "},"î":{"ha":329,"x_min":-18,"x_max":349,"o":"m 210 0 l 119 0 l 119 718 l 210 718 l 210 0 m 21 811 l -18 854 l 165 1058 l 349 854 l 310 811 l 165 944 l 21 811 z "},"ï":{"ha":329,"x_min":-18,"x_max":349,"o":"m 210 0 l 119 0 l 119 718 l 210 718 l 210 0 m 110 935 q 92 886 110 904 q 46 868 74 868 q 0 886 18 868 q -18 935 -18 904 q 0 983 -18 965 q 46 1001 18 1001 q 92 983 74 1001 q 110 935 110 965 m 349 935 q 331 886 349 904 q 285 868 313 868 q 239 886 257 868 q 221 935 221 904 q 239 983 221 965 q 285 1001 257 1001 q 331 983 313 1001 q 349 935 349 965 z "},"ð":{"ha":803,"x_min":76,"x_max":750,"o":"m 601 881 q 689 688 658 793 q 719 458 719 582 q 706 290 719 375 q 656 138 693 206 q 554 26 619 69 q 385 -17 489 -17 q 256 12 313 -17 q 159 89 199 40 q 98 202 119 138 q 76 340 76 267 q 100 483 76 421 q 166 589 124 546 q 267 654 208 632 q 397 676 326 676 q 473 669 439 676 q 534 650 507 661 q 581 626 561 639 q 613 604 601 614 q 582 726 606 663 q 518 851 558 790 l 336 788 l 313 850 l 476 907 q 340 1024 419 975 l 400 1078 q 560 938 493 1021 l 726 996 l 750 933 l 601 881 m 625 460 q 625 484 625 472 q 624 508 625 496 q 521 576 575 557 q 408 596 467 596 q 301 576 346 596 q 227 522 256 556 q 185 441 199 488 q 171 340 171 394 q 185 235 171 285 q 226 147 199 185 q 292 88 253 110 q 385 65 332 65 q 506 99 460 65 q 579 189 553 133 q 615 315 606 244 q 625 460 625 386 z "},"ñ":{"ha":790,"x_min":119,"x_max":679,"o":"m 119 693 q 228 718 160 704 q 394 732 296 732 q 531 708 476 732 q 619 641 586 685 q 665 536 651 597 q 679 401 679 475 l 679 0 l 589 0 l 589 372 q 578 501 589 449 q 544 588 568 554 q 480 635 519 621 q 381 650 440 650 q 270 643 317 650 q 210 631 224 636 l 210 0 l 119 0 l 119 693 m 486 874 q 431 883 456 874 q 382 904 406 893 q 339 923 356 918 q 308 928 322 928 q 263 908 279 928 q 232 865 246 889 l 179 890 q 198 926 186 907 q 226 963 210 946 q 263 990 242 979 q 313 1001 285 1001 q 368 992 343 1001 q 417 971 393 982 q 460 952 443 957 q 490 947 476 947 q 536 967 519 947 q 567 1010 553 986 l 619 985 q 601 949 613 968 q 573 913 589 929 q 535 885 557 896 q 486 874 514 874 z "},"ò":{"ha":808,"x_min":76,"x_max":732,"o":"m 732 358 q 708 204 732 274 q 640 86 683 135 q 536 10 596 38 q 404 -17 476 -17 q 272 10 332 -17 q 169 86 213 38 q 101 204 125 135 q 76 358 76 274 q 101 513 76 443 q 169 631 125 582 q 272 708 213 681 q 404 735 332 735 q 536 708 476 735 q 640 631 596 681 q 708 513 683 582 q 732 358 732 443 m 636 358 q 574 573 636 493 q 404 653 511 653 q 235 573 297 653 q 172 358 172 493 q 235 144 172 224 q 404 65 297 65 q 574 144 511 65 q 636 358 636 224 m 276 1074 l 496 863 l 450 810 l 213 1003 l 276 1074 z "},"ó":{"ha":808,"x_min":76,"x_max":732,"o":"m 732 358 q 708 204 732 274 q 640 86 683 135 q 536 10 596 38 q 404 -17 476 -17 q 272 10 332 -17 q 169 86 213 38 q 101 204 125 135 q 76 358 76 274 q 101 513 76 443 q 169 631 125 582 q 272 708 213 681 q 404 735 332 735 q 536 708 476 735 q 640 631 596 681 q 708 513 683 582 q 732 358 732 443 m 636 358 q 574 573 636 493 q 404 653 511 653 q 235 573 297 653 q 172 358 172 493 q 235 144 172 224 q 404 65 297 65 q 574 144 511 65 q 636 358 636 224 m 596 1003 l 358 810 l 313 863 l 532 1074 l 596 1003 z "},"ô":{"ha":808,"x_min":76,"x_max":732,"o":"m 732 358 q 708 204 732 274 q 640 86 683 135 q 536 10 596 38 q 404 -17 476 -17 q 272 10 332 -17 q 169 86 213 38 q 101 204 125 135 q 76 358 76 274 q 101 513 76 443 q 169 631 125 582 q 272 708 213 681 q 404 735 332 735 q 536 708 476 735 q 640 631 596 681 q 708 513 683 582 q 732 358 732 443 m 636 358 q 574 573 636 493 q 404 653 511 653 q 235 573 297 653 q 172 358 172 493 q 235 144 172 224 q 404 65 297 65 q 574 144 511 65 q 636 358 636 224 m 260 811 l 221 854 l 404 1058 l 588 854 l 549 811 l 404 944 l 260 811 z "},"õ":{"ha":808,"x_min":76,"x_max":732,"o":"m 732 358 q 708 204 732 274 q 640 86 683 135 q 536 10 596 38 q 404 -17 476 -17 q 272 10 332 -17 q 169 86 213 38 q 101 204 125 135 q 76 358 76 274 q 101 513 76 443 q 169 631 125 582 q 272 708 213 681 q 404 735 332 735 q 536 708 476 735 q 640 631 596 681 q 708 513 683 582 q 732 358 732 443 m 636 358 q 574 573 636 493 q 404 653 511 653 q 235 573 297 653 q 172 358 172 493 q 235 144 172 224 q 404 65 297 65 q 574 144 511 65 q 636 358 636 224 m 492 874 q 436 883 461 874 q 388 904 411 893 q 344 923 361 918 q 314 928 328 928 q 268 908 285 928 q 238 865 251 889 l 185 890 q 203 926 192 907 q 231 963 215 946 q 269 990 247 979 q 318 1001 290 1001 q 374 992 349 1001 q 422 971 399 982 q 465 952 449 957 q 496 947 482 947 q 542 967 525 947 q 572 1010 558 986 l 625 985 q 606 949 618 968 q 578 913 594 929 q 541 885 563 896 q 492 874 519 874 z "},"ö":{"ha":808,"x_min":76,"x_max":732,"o":"m 732 358 q 708 204 732 274 q 640 86 683 135 q 536 10 596 38 q 404 -17 476 -17 q 272 10 332 -17 q 169 86 213 38 q 101 204 125 135 q 76 358 76 274 q 101 513 76 443 q 169 631 125 582 q 272 708 213 681 q 404 735 332 735 q 536 708 476 735 q 640 631 596 681 q 708 513 683 582 q 732 358 732 443 m 636 358 q 574 573 636 493 q 404 653 511 653 q 235 573 297 653 q 172 358 172 493 q 235 144 172 224 q 404 65 297 65 q 574 144 511 65 q 636 358 636 224 m 349 935 q 331 886 349 904 q 285 868 313 868 q 239 886 257 868 q 221 935 221 904 q 239 983 221 965 q 285 1001 257 1001 q 331 983 313 1001 q 349 935 349 965 m 588 935 q 569 886 588 904 q 524 868 551 868 q 478 886 496 868 q 460 935 460 904 q 478 983 460 965 q 524 1001 496 1001 q 569 983 551 1001 q 588 935 588 965 z "},"÷":{"ha":783,"x_min":78,"x_max":706,"o":"m 390 71 q 344 90 363 71 q 325 139 325 110 q 344 189 325 169 q 390 208 363 208 q 438 189 419 208 q 457 139 457 169 q 438 90 457 110 q 390 71 419 71 m 390 593 q 344 613 363 593 q 325 663 325 632 q 344 711 325 692 q 390 731 363 731 q 438 711 419 731 q 457 663 457 692 q 438 613 457 632 q 390 593 419 593 m 78 440 l 706 440 l 706 363 l 78 363 l 78 440 z "},"ø":{"ha":808,"x_min":76,"x_max":732,"o":"m 732 358 q 708 204 732 274 q 640 86 683 135 q 536 10 596 38 q 404 -17 476 -17 q 211 46 293 -17 l 140 -47 l 81 -3 l 158 97 q 97 212 118 146 q 76 358 76 278 q 101 513 76 443 q 169 631 125 582 q 272 708 213 681 q 404 735 332 735 q 600 668 517 735 l 671 761 l 729 718 l 651 617 q 711 503 690 568 q 732 358 732 438 m 172 358 q 215 172 172 247 l 547 600 q 483 639 519 625 q 404 653 447 653 q 235 573 297 653 q 172 358 172 493 m 636 358 q 593 542 636 467 l 264 114 q 404 65 321 65 q 574 144 511 65 q 636 358 636 224 z "},"ù":{"ha":790,"x_min":111,"x_max":671,"o":"m 671 25 q 563 0 631 14 q 396 -14 494 -14 q 261 10 315 -14 q 174 76 207 33 q 126 181 140 119 q 111 315 111 242 l 111 718 l 201 718 l 201 344 q 213 215 201 268 q 249 130 224 163 q 313 83 274 97 q 410 68 353 68 q 521 75 474 68 q 581 88 568 82 l 581 718 l 671 718 l 671 25 m 263 1074 l 482 863 l 436 810 l 199 1003 l 263 1074 z "},"ú":{"ha":790,"x_min":111,"x_max":671,"o":"m 671 25 q 563 0 631 14 q 396 -14 494 -14 q 261 10 315 -14 q 174 76 207 33 q 126 181 140 119 q 111 315 111 242 l 111 718 l 201 718 l 201 344 q 213 215 201 268 q 249 130 224 163 q 313 83 274 97 q 410 68 353 68 q 521 75 474 68 q 581 88 568 82 l 581 718 l 671 718 l 671 25 m 582 1003 l 344 810 l 299 863 l 518 1074 l 582 1003 z "},"û":{"ha":790,"x_min":111,"x_max":671,"o":"m 671 25 q 563 0 631 14 q 396 -14 494 -14 q 261 10 315 -14 q 174 76 207 33 q 126 181 140 119 q 111 315 111 242 l 111 718 l 201 718 l 201 344 q 213 215 201 268 q 249 130 224 163 q 313 83 274 97 q 410 68 353 68 q 521 75 474 68 q 581 88 568 82 l 581 718 l 671 718 l 671 25 m 246 811 l 207 854 l 390 1058 l 574 854 l 535 811 l 390 944 l 246 811 z "},"ü":{"ha":790,"x_min":111,"x_max":671,"o":"m 671 25 q 563 0 631 14 q 396 -14 494 -14 q 261 10 315 -14 q 174 76 207 33 q 126 181 140 119 q 111 315 111 242 l 111 718 l 201 718 l 201 344 q 213 215 201 268 q 249 130 224 163 q 313 83 274 97 q 410 68 353 68 q 521 75 474 68 q 581 88 568 82 l 581 718 l 671 718 l 671 25 m 335 935 q 317 886 335 904 q 271 868 299 868 q 225 886 243 868 q 207 935 207 904 q 225 983 207 965 q 271 1001 243 1001 q 317 983 299 1001 q 335 935 335 965 m 574 935 q 556 886 574 904 q 510 868 538 868 q 464 886 482 868 q 446 935 446 904 q 464 983 446 965 q 510 1001 482 1001 q 556 983 538 1001 q 574 935 574 965 z "},"ý":{"ha":658,"x_min":1,"x_max":626,"o":"m 315 -15 q 227 161 269 69 q 148 347 185 253 q 81 534 111 440 q 28 718 50 628 l 124 718 q 163 574 139 651 q 216 415 186 497 q 282 247 246 333 q 360 78 318 161 q 414 240 390 164 q 458 392 438 317 q 497 547 478 468 q 536 718 515 626 l 626 718 q 525 326 582 517 q 401 -22 468 136 q 347 -130 375 -85 q 285 -204 319 -175 q 206 -247 251 -233 q 100 -261 161 -261 q 37 -253 65 -261 q 1 -240 8 -244 l 19 -165 q 51 -177 25 -169 q 104 -185 76 -185 q 174 -176 143 -185 q 231 -148 206 -168 q 276 -96 256 -128 q 315 -15 296 -64 m 536 1003 l 299 810 l 253 863 l 472 1074 l 536 1003 z "},"þ":{"ha":810,"x_min":119,"x_max":733,"o":"m 210 1078 l 210 697 q 386 732 299 732 q 528 706 464 732 q 638 631 592 679 q 708 513 683 582 q 733 357 733 443 q 712 206 733 275 q 649 88 690 138 q 547 11 607 39 q 408 -17 486 -17 q 285 3 338 -17 q 210 42 233 24 l 210 -257 l 119 -257 l 119 1061 l 210 1078 m 210 129 q 241 108 222 119 q 285 88 260 97 q 339 72 310 78 q 400 65 368 65 q 512 88 467 65 q 585 151 557 111 q 625 244 613 190 q 638 357 638 297 q 566 574 638 497 q 378 650 494 650 q 272 638 319 650 q 210 618 225 625 l 210 129 z "},"ÿ":{"ha":658,"x_min":1,"x_max":626,"o":"m 315 -15 q 227 161 269 69 q 148 347 185 253 q 81 534 111 440 q 28 718 50 628 l 124 718 q 163 574 139 651 q 216 415 186 497 q 282 247 246 333 q 360 78 318 161 q 414 240 390 164 q 458 392 438 317 q 497 547 478 468 q 536 718 515 626 l 626 718 q 525 326 582 517 q 401 -22 468 136 q 347 -130 375 -85 q 285 -204 319 -175 q 206 -247 251 -233 q 100 -261 161 -261 q 37 -253 65 -261 q 1 -240 8 -244 l 19 -165 q 51 -177 25 -169 q 104 -185 76 -185 q 174 -176 143 -185 q 231 -148 206 -168 q 276 -96 256 -128 q 315 -15 296 -64 m 289 935 q 271 886 289 904 q 225 868 253 868 q 179 886 197 868 q 161 935 161 904 q 179 983 161 965 q 225 1001 197 1001 q 271 983 253 1001 q 289 935 289 965 m 528 935 q 510 886 528 904 q 464 868 492 868 q 418 886 436 868 q 400 935 400 904 q 418 983 400 965 q 464 1001 436 1001 q 510 983 492 1001 q 528 935 528 965 z "},"Ā":{"ha":890,"x_min":14,"x_max":876,"o":"m 772 0 q 722 136 746 71 q 676 264 699 201 l 208 264 q 161 136 185 201 q 113 0 138 71 l 14 0 q 118 280 69 150 q 213 526 167 410 q 306 749 260 642 q 403 963 351 856 l 486 963 q 583 749 538 856 q 676 526 629 642 q 771 280 722 410 q 876 0 819 150 l 772 0 m 442 854 q 340 611 389 735 q 238 344 290 488 l 647 344 q 544 611 594 488 q 442 854 494 735 m 261 1118 l 261 1194 l 629 1194 l 629 1118 l 261 1118 z "},"ā":{"ha":707,"x_min":67,"x_max":596,"o":"m 346 65 q 438 69 399 65 q 506 78 478 72 l 506 331 q 457 345 490 338 q 365 353 424 353 q 296 348 332 353 q 229 327 260 343 q 179 283 199 311 q 160 210 160 256 q 173 142 160 169 q 210 97 186 114 q 269 73 235 81 q 346 65 303 65 m 338 735 q 458 715 408 735 q 538 659 507 694 q 582 575 568 624 q 596 469 596 526 l 596 17 q 556 8 582 13 q 494 -3 529 3 q 417 -12 460 -8 q 331 -15 375 -15 q 226 -3 274 -15 q 142 37 178 10 q 87 106 107 64 q 67 210 67 149 q 89 310 67 268 q 151 378 111 351 q 247 418 192 406 q 368 431 303 431 q 409 428 388 431 q 451 423 431 426 q 485 416 471 419 q 506 410 500 413 l 506 454 q 500 527 506 492 q 476 591 494 563 q 423 637 457 619 q 333 654 389 654 q 215 643 254 654 q 158 625 176 632 l 146 704 q 219 725 169 715 q 338 735 268 735 m 178 901 l 178 978 l 546 978 l 546 901 l 178 901 z "},"Ă":{"ha":890,"x_min":14,"x_max":876,"o":"m 772 0 q 722 136 746 71 q 676 264 699 201 l 208 264 q 161 136 185 201 q 113 0 138 71 l 14 0 q 118 280 69 150 q 213 526 167 410 q 306 749 260 642 q 403 963 351 856 l 486 963 q 583 749 538 856 q 676 526 629 642 q 771 280 722 410 q 876 0 819 150 l 772 0 m 442 854 q 340 611 389 735 q 238 344 290 488 l 647 344 q 544 611 594 488 q 442 854 494 735 m 444 1068 q 380 1079 411 1068 q 324 1113 349 1090 q 287 1169 300 1135 q 275 1253 274 1204 l 335 1253 q 338 1225 335 1243 q 353 1190 342 1207 q 385 1159 364 1172 q 444 1146 407 1146 q 503 1159 482 1146 q 536 1190 525 1172 q 551 1225 547 1207 q 554 1253 554 1243 l 614 1253 q 602 1169 615 1204 q 565 1113 589 1135 q 509 1079 540 1090 q 444 1068 478 1068 z "},"ă":{"ha":707,"x_min":67,"x_max":596,"o":"m 346 65 q 438 69 399 65 q 506 78 478 72 l 506 331 q 457 345 490 338 q 365 353 424 353 q 296 348 332 353 q 229 327 260 343 q 179 283 199 311 q 160 210 160 256 q 173 142 160 169 q 210 97 186 114 q 269 73 235 81 q 346 65 303 65 m 338 735 q 458 715 408 735 q 538 659 507 694 q 582 575 568 624 q 596 469 596 526 l 596 17 q 556 8 582 13 q 494 -3 529 3 q 417 -12 460 -8 q 331 -15 375 -15 q 226 -3 274 -15 q 142 37 178 10 q 87 106 107 64 q 67 210 67 149 q 89 310 67 268 q 151 378 111 351 q 247 418 192 406 q 368 431 303 431 q 409 428 388 431 q 451 423 431 426 q 485 416 471 419 q 506 410 500 413 l 506 454 q 500 527 506 492 q 476 591 494 563 q 423 637 457 619 q 333 654 389 654 q 215 643 254 654 q 158 625 176 632 l 146 704 q 219 725 169 715 q 338 735 268 735 m 361 851 q 297 863 328 851 q 241 896 265 874 q 203 953 217 918 q 192 1036 190 988 l 251 1036 q 255 1008 251 1026 q 269 973 258 990 q 302 942 281 956 q 361 929 324 929 q 420 942 399 929 q 453 973 442 956 q 467 1008 464 990 q 471 1036 471 1026 l 531 1036 q 519 953 532 988 q 481 896 506 918 q 426 863 457 874 q 361 851 394 851 z "},"Ą":{"ha":890,"x_min":14,"x_max":882,"o":"m 749 -21 q 761 -9 756 -14 q 772 0 767 -4 q 722 136 746 71 q 676 264 699 201 l 208 264 q 161 136 185 201 q 113 0 138 71 l 14 0 q 118 280 69 150 q 213 526 167 410 q 306 749 260 642 q 403 963 351 856 l 486 963 q 583 749 538 856 q 675 526 629 642 q 769 282 721 411 q 875 3 818 153 q 844 -22 860 -8 q 813 -53 829 -35 q 777 -97 790 -76 q 764 -140 764 -117 q 781 -176 764 -165 q 822 -187 797 -187 q 849 -185 835 -187 q 875 -179 864 -183 l 882 -246 q 849 -254 871 -250 q 807 -258 828 -258 q 701 -231 732 -258 q 671 -161 671 -204 q 694 -84 671 -118 q 749 -21 718 -50 m 442 854 q 340 611 389 735 q 238 344 290 488 l 647 344 q 544 611 594 488 q 442 854 494 735 z "},"ą":{"ha":707,"x_min":67,"x_max":597,"o":"m 338 735 q 458 715 408 735 q 538 659 507 694 q 582 575 568 624 q 596 469 596 526 l 596 14 q 528 -50 563 -12 q 492 -95 506 -74 q 479 -140 479 -117 q 496 -176 479 -165 q 538 -187 513 -187 q 565 -185 550 -187 q 590 -179 579 -183 l 597 -246 q 565 -254 586 -250 q 522 -258 543 -258 q 417 -231 447 -258 q 386 -161 386 -204 q 395 -112 386 -135 q 419 -71 404 -90 q 452 -35 433 -51 q 489 -6 471 -19 q 414 -12 454 -10 q 331 -15 374 -15 q 226 -3 274 -15 q 142 37 178 10 q 87 106 107 64 q 67 210 67 149 q 89 310 67 268 q 151 378 111 351 q 247 418 192 406 q 368 431 303 431 q 409 428 388 431 q 451 423 431 426 q 485 416 471 419 q 506 410 500 413 l 506 454 q 500 527 506 492 q 476 591 494 563 q 423 637 457 619 q 333 654 389 654 q 217 644 258 654 q 157 626 175 633 l 146 704 q 219 725 169 715 q 338 735 269 735 m 346 65 q 438 69 399 65 q 506 78 478 72 l 506 331 q 457 345 490 338 q 365 353 424 353 q 296 348 332 353 q 229 327 260 343 q 179 283 199 311 q 160 210 160 256 q 173 142 160 169 q 210 97 186 114 q 269 73 235 81 q 346 65 303 65 z "},"Ć":{"ha":846,"x_min":86,"x_max":807,"o":"m 525 -21 q 352 13 432 -21 q 213 110 272 46 q 120 267 154 174 q 86 482 86 361 q 123 697 86 603 q 221 854 160 790 q 363 951 282 918 q 531 983 443 983 q 629 976 585 983 q 707 959 674 969 q 764 938 740 949 q 800 919 788 928 l 769 838 q 681 878 735 858 q 549 899 628 899 q 391 868 458 899 q 278 782 324 838 q 209 650 232 726 q 186 481 186 574 q 209 308 186 385 q 276 176 232 231 q 385 93 321 122 q 533 64 450 64 q 687 81 625 64 q 781 117 749 99 l 807 36 q 774 20 797 29 q 714 1 750 11 q 631 -15 678 -8 q 525 -21 583 -21 m 694 1219 l 457 1026 l 411 1079 l 631 1290 l 694 1219 z "},"ć":{"ha":639,"x_min":76,"x_max":607,"o":"m 417 -15 q 269 11 333 -15 q 163 87 206 38 q 99 205 121 136 q 76 357 76 274 q 99 511 76 442 q 165 631 122 581 q 269 708 208 681 q 407 735 331 735 q 516 725 465 735 q 594 700 567 715 l 571 622 q 508 644 543 636 q 415 653 474 653 q 234 576 296 653 q 172 357 172 499 q 186 240 172 293 q 231 148 200 186 q 312 88 263 110 q 432 67 361 67 q 530 80 490 67 q 588 103 569 93 l 607 25 q 528 -2 582 11 q 417 -15 475 -15 m 581 1003 l 343 810 l 297 863 l 517 1074 l 581 1003 z "},"Ĉ":{"ha":846,"x_min":86,"x_max":807,"o":"m 525 -21 q 352 13 432 -21 q 213 110 272 46 q 120 267 154 174 q 86 482 86 361 q 123 697 86 603 q 221 854 160 790 q 363 951 282 918 q 531 983 443 983 q 629 976 585 983 q 707 959 674 969 q 764 938 740 949 q 800 919 788 928 l 769 838 q 681 878 735 858 q 549 899 628 899 q 391 868 458 899 q 278 782 324 838 q 209 650 232 726 q 186 481 186 574 q 209 308 186 385 q 276 176 232 231 q 385 93 321 122 q 533 64 450 64 q 687 81 625 64 q 781 117 749 99 l 807 36 q 774 20 797 29 q 714 1 750 11 q 631 -15 678 -8 q 525 -21 583 -21 m 358 1028 l 319 1071 l 503 1275 l 686 1071 l 647 1028 l 503 1161 l 358 1028 z "},"ĉ":{"ha":639,"x_min":76,"x_max":607,"o":"m 417 -15 q 269 11 333 -15 q 163 87 206 38 q 99 205 121 136 q 76 357 76 274 q 99 511 76 442 q 165 631 122 581 q 269 708 208 681 q 407 735 331 735 q 516 725 465 735 q 594 700 567 715 l 571 622 q 508 644 543 636 q 415 653 474 653 q 234 576 296 653 q 172 357 172 499 q 186 240 172 293 q 231 148 200 186 q 312 88 263 110 q 432 67 361 67 q 530 80 490 67 q 588 103 569 93 l 607 25 q 528 -2 582 11 q 417 -15 475 -15 m 244 811 l 206 854 l 389 1058 l 572 854 l 533 811 l 389 944 l 244 811 z "},"Ċ":{"ha":846,"x_min":86,"x_max":807,"o":"m 525 -21 q 352 13 432 -21 q 213 110 272 46 q 120 267 154 174 q 86 482 86 361 q 123 697 86 603 q 221 854 160 790 q 363 951 282 918 q 531 983 443 983 q 629 976 585 983 q 707 959 674 969 q 764 938 740 949 q 800 919 788 928 l 769 838 q 681 878 735 858 q 549 899 628 899 q 391 868 458 899 q 278 782 324 838 q 209 650 232 726 q 186 481 186 574 q 209 308 186 385 q 276 176 232 231 q 385 93 321 122 q 533 64 450 64 q 687 81 625 64 q 781 117 749 99 l 807 36 q 774 20 797 29 q 714 1 750 11 q 631 -15 678 -8 q 525 -21 583 -21 m 503 1082 q 456 1101 475 1082 q 436 1151 436 1119 q 456 1202 436 1183 q 503 1221 475 1221 q 550 1202 531 1221 q 569 1151 569 1183 q 550 1101 569 1119 q 503 1082 531 1082 z "},"ċ":{"ha":639,"x_min":76,"x_max":607,"o":"m 417 -15 q 269 11 333 -15 q 163 87 206 38 q 99 205 121 136 q 76 357 76 274 q 99 511 76 442 q 165 631 122 581 q 269 708 208 681 q 407 735 331 735 q 516 725 465 735 q 594 700 567 715 l 571 622 q 508 644 543 636 q 415 653 474 653 q 234 576 296 653 q 172 357 172 499 q 186 240 172 293 q 231 148 200 186 q 312 88 263 110 q 432 67 361 67 q 530 80 490 67 q 588 103 569 93 l 607 25 q 528 -2 582 11 q 417 -15 475 -15 m 389 865 q 342 884 361 865 q 322 935 322 903 q 342 985 322 967 q 389 1004 361 1004 q 436 985 417 1004 q 456 935 456 967 q 436 884 456 903 q 389 865 417 865 z "},"Č":{"ha":846,"x_min":86,"x_max":807,"o":"m 525 -21 q 352 13 432 -21 q 213 110 272 46 q 120 267 154 174 q 86 482 86 361 q 123 697 86 603 q 221 854 160 790 q 363 951 282 918 q 531 983 443 983 q 629 976 585 983 q 707 959 674 969 q 764 938 740 949 q 800 919 788 928 l 769 838 q 681 878 735 858 q 549 899 628 899 q 391 868 458 899 q 278 782 324 838 q 209 650 232 726 q 186 481 186 574 q 209 308 186 385 q 276 176 232 231 q 385 93 321 122 q 533 64 450 64 q 687 81 625 64 q 781 117 749 99 l 807 36 q 774 20 797 29 q 714 1 750 11 q 631 -15 678 -8 q 525 -21 583 -21 m 503 1146 l 647 1279 l 686 1236 l 503 1032 l 319 1236 l 358 1279 l 503 1146 z "},"č":{"ha":639,"x_min":76,"x_max":607,"o":"m 417 -15 q 269 11 333 -15 q 163 87 206 38 q 99 205 121 136 q 76 357 76 274 q 99 511 76 442 q 165 631 122 581 q 269 708 208 681 q 407 735 331 735 q 516 725 465 735 q 594 700 567 715 l 571 622 q 508 644 543 636 q 415 653 474 653 q 234 576 296 653 q 172 357 172 499 q 186 240 172 293 q 231 148 200 186 q 312 88 263 110 q 432 67 361 67 q 530 80 490 67 q 588 103 569 93 l 607 25 q 528 -2 582 11 q 417 -15 475 -15 m 389 929 l 533 1063 l 572 1019 l 389 815 l 206 1019 l 244 1063 l 389 929 z "},"Ď":{"ha":975,"x_min":125,"x_max":889,"o":"m 889 482 q 850 267 889 358 q 741 114 811 175 q 574 22 671 53 q 360 -8 476 -8 q 238 -2 301 -8 q 125 17 174 4 l 125 944 q 238 965 174 958 q 360 971 301 971 q 574 940 476 971 q 741 849 671 910 q 850 696 811 788 q 889 482 889 604 m 219 83 q 262 78 228 82 q 371 74 296 74 q 553 102 475 74 q 683 183 631 131 q 763 312 736 236 q 789 482 789 388 q 763 651 789 576 q 683 779 736 726 q 553 860 631 832 q 371 889 475 889 q 262 885 296 889 q 219 879 228 881 l 219 83 m 485 1146 l 629 1279 l 668 1236 l 485 1032 l 301 1236 l 340 1279 l 485 1146 z "},"ď":{"ha":854,"x_min":76,"x_max":899,"o":"m 690 22 q 588 -4 650 8 q 429 -17 525 -17 q 285 9 350 -17 q 174 83 221 35 q 102 201 128 132 q 76 358 76 271 q 98 509 76 440 q 161 628 119 578 q 263 706 203 678 q 401 733 324 733 q 524 713 472 733 q 600 675 576 693 l 600 1061 l 690 1078 l 690 22 m 600 588 q 569 608 588 597 q 525 629 550 619 q 471 645 500 639 q 410 651 442 651 q 298 628 343 651 q 225 565 253 604 q 185 472 197 525 q 172 358 172 418 q 243 141 172 217 q 431 65 314 65 q 538 72 497 65 q 600 85 579 78 l 600 588 m 899 1078 l 865 776 l 800 776 l 800 1078 l 899 1078 z "},"Đ":{"ha":994,"x_min":33,"x_max":908,"o":"m 908 482 q 869 267 908 358 q 760 114 831 175 q 593 22 690 53 q 379 -8 496 -8 q 257 -2 321 -8 q 144 17 193 4 l 144 465 l 33 465 l 33 542 l 144 542 l 144 944 q 257 965 193 958 q 379 971 321 971 q 593 940 496 971 q 760 849 690 910 q 869 696 831 788 q 908 482 908 604 m 239 83 q 281 78 247 82 q 390 74 315 74 q 572 102 494 74 q 703 183 650 131 q 782 312 756 236 q 808 482 808 388 q 782 651 808 576 q 703 779 756 726 q 572 860 650 832 q 390 889 494 889 q 281 885 315 889 q 239 879 247 881 l 239 542 l 422 542 l 422 465 l 239 465 l 239 83 z "},"đ":{"ha":810,"x_min":76,"x_max":801,"o":"m 690 944 l 801 944 l 801 872 l 690 872 l 690 22 q 588 -4 650 8 q 429 -17 525 -17 q 285 9 350 -17 q 174 83 221 35 q 102 201 128 132 q 76 358 76 271 q 98 509 76 440 q 161 628 119 578 q 263 706 203 678 q 401 733 324 733 q 524 713 472 733 q 600 675 576 693 l 600 872 l 347 872 l 347 944 l 600 944 l 600 1061 l 690 1078 l 690 944 m 600 588 q 569 608 588 597 q 525 629 550 619 q 471 645 500 639 q 410 651 442 651 q 298 628 343 651 q 225 565 253 604 q 185 472 197 525 q 172 358 172 418 q 243 141 172 217 q 431 65 314 65 q 538 72 497 65 q 600 85 579 78 l 600 588 z "},"Ē":{"ha":771,"x_min":125,"x_max":717,"o":"m 125 0 l 125 963 l 681 963 l 681 881 l 219 881 l 219 546 l 631 546 l 631 465 l 219 465 l 219 82 l 717 82 l 717 0 l 125 0 m 219 1118 l 219 1194 l 588 1194 l 588 1118 l 219 1118 z "},"ē":{"ha":761,"x_min":76,"x_max":679,"o":"m 76 360 q 103 524 76 454 q 174 642 131 594 q 274 712 218 689 q 390 735 331 735 q 601 649 522 735 q 679 383 679 563 q 678 361 679 372 q 676 340 678 350 l 172 340 q 238 138 176 208 q 432 67 299 67 q 549 81 506 67 q 611 104 592 94 l 628 26 q 555 0 608 15 q 429 -15 501 -15 q 268 13 335 -15 q 158 90 201 40 q 96 209 115 140 q 76 360 76 278 m 586 417 q 533 592 583 529 q 392 654 483 654 q 305 635 343 654 q 238 583 267 615 q 194 507 210 550 q 175 417 178 464 l 586 417 m 206 901 l 206 978 l 574 978 l 574 901 l 206 901 z "},"Ĕ":{"ha":771,"x_min":125,"x_max":717,"o":"m 125 0 l 125 963 l 681 963 l 681 881 l 219 881 l 219 546 l 631 546 l 631 465 l 219 465 l 219 82 l 717 82 l 717 0 l 125 0 m 403 1068 q 338 1079 369 1068 q 283 1113 307 1090 q 245 1169 258 1135 q 233 1253 232 1204 l 293 1253 q 297 1225 293 1243 q 311 1190 300 1207 q 344 1159 322 1172 q 403 1146 365 1146 q 462 1159 440 1146 q 494 1190 483 1172 q 509 1225 506 1207 q 513 1253 513 1243 l 572 1253 q 560 1169 574 1204 q 523 1113 547 1135 q 467 1079 499 1090 q 403 1068 436 1068 z "},"ĕ":{"ha":761,"x_min":76,"x_max":679,"o":"m 76 360 q 103 524 76 454 q 174 642 131 594 q 274 712 218 689 q 390 735 331 735 q 601 649 522 735 q 679 383 679 563 q 678 361 679 372 q 676 340 678 350 l 172 340 q 238 138 176 208 q 432 67 299 67 q 549 81 506 67 q 611 104 592 94 l 628 26 q 555 0 608 15 q 429 -15 501 -15 q 268 13 335 -15 q 158 90 201 40 q 96 209 115 140 q 76 360 76 278 m 586 417 q 533 592 583 529 q 392 654 483 654 q 305 635 343 654 q 238 583 267 615 q 194 507 210 550 q 175 417 178 464 l 586 417 m 389 851 q 324 863 356 851 q 269 896 293 874 q 231 953 244 918 q 219 1036 218 988 l 279 1036 q 283 1008 279 1026 q 297 973 286 990 q 330 942 308 956 q 389 929 351 929 q 448 942 426 929 q 481 973 469 956 q 495 1008 492 990 q 499 1036 499 1026 l 558 1036 q 547 953 560 988 q 509 896 533 918 q 453 863 485 874 q 389 851 422 851 z "},"Ė":{"ha":771,"x_min":125,"x_max":717,"o":"m 125 0 l 125 963 l 681 963 l 681 881 l 219 881 l 219 546 l 631 546 l 631 465 l 219 465 l 219 82 l 717 82 l 717 0 l 125 0 m 403 1082 q 356 1101 375 1082 q 336 1151 336 1119 q 356 1202 336 1183 q 403 1221 375 1221 q 450 1202 431 1221 q 469 1151 469 1183 q 450 1101 469 1119 q 403 1082 431 1082 z "},"ė":{"ha":761,"x_min":76,"x_max":679,"o":"m 76 360 q 103 524 76 454 q 174 642 131 594 q 274 712 218 689 q 390 735 331 735 q 601 649 522 735 q 679 383 679 563 q 678 361 679 372 q 676 340 678 350 l 172 340 q 238 138 176 208 q 432 67 299 67 q 549 81 506 67 q 611 104 592 94 l 628 26 q 555 0 608 15 q 429 -15 501 -15 q 268 13 335 -15 q 158 90 201 40 q 96 209 115 140 q 76 360 76 278 m 586 417 q 533 592 583 529 q 392 654 483 654 q 305 635 343 654 q 238 583 267 615 q 194 507 210 550 q 175 417 178 464 l 586 417 m 389 865 q 342 884 361 865 q 322 935 322 903 q 342 985 322 967 q 389 1004 361 1004 q 436 985 417 1004 q 456 935 456 967 q 436 884 456 903 q 389 865 417 865 z "},"Ę":{"ha":771,"x_min":125,"x_max":724,"o":"m 125 0 l 125 963 l 681 963 l 681 881 l 219 881 l 219 546 l 631 546 l 631 465 l 219 465 l 219 82 l 717 82 l 717 3 q 686 -22 701 -8 q 654 -53 671 -35 q 619 -97 632 -76 q 606 -140 606 -117 q 622 -176 606 -165 q 664 -187 639 -187 q 691 -185 676 -187 q 717 -179 706 -183 l 724 -246 q 691 -254 713 -250 q 649 -258 669 -258 q 543 -231 574 -258 q 513 -161 513 -204 q 535 -85 513 -118 q 589 -24 558 -51 q 603 -11 596 -17 q 618 0 611 -6 l 125 0 z "},"ę":{"ha":761,"x_min":76,"x_max":679,"o":"m 76 360 q 103 524 76 454 q 174 642 131 594 q 274 712 218 689 q 390 735 331 735 q 601 649 522 735 q 679 383 679 563 q 678 361 679 372 q 676 340 678 350 l 172 340 q 238 138 176 208 q 432 67 299 67 q 549 81 506 67 q 611 104 592 94 l 628 26 q 536 -53 574 -15 q 501 -97 514 -76 q 488 -140 488 -118 q 504 -176 488 -165 q 546 -187 521 -187 q 573 -185 558 -187 q 599 -179 588 -183 l 606 -246 q 573 -254 594 -250 q 531 -258 551 -258 q 425 -231 456 -258 q 394 -161 394 -204 q 404 -114 394 -136 q 428 -72 414 -92 q 461 -35 443 -51 q 497 -7 479 -19 q 429 -14 463 -14 q 268 14 335 -14 q 158 91 201 42 q 96 209 115 140 q 76 360 76 278 m 586 417 q 533 592 583 529 q 392 654 483 654 q 305 635 343 654 q 238 583 267 615 q 194 507 210 550 q 175 417 178 464 l 586 417 z "},"Ě":{"ha":771,"x_min":125,"x_max":717,"o":"m 125 0 l 125 963 l 681 963 l 681 881 l 219 881 l 219 546 l 631 546 l 631 465 l 219 465 l 219 82 l 717 82 l 717 0 l 125 0 m 403 1146 l 547 1279 l 586 1236 l 403 1032 l 219 1236 l 258 1279 l 403 1146 z "},"ě":{"ha":761,"x_min":76,"x_max":679,"o":"m 76 360 q 103 524 76 454 q 174 642 131 594 q 274 712 218 689 q 390 735 331 735 q 601 649 522 735 q 679 383 679 563 q 678 361 679 372 q 676 340 678 350 l 172 340 q 238 138 176 208 q 432 67 299 67 q 549 81 506 67 q 611 104 592 94 l 628 26 q 555 0 608 15 q 429 -15 501 -15 q 268 13 335 -15 q 158 90 201 40 q 96 209 115 140 q 76 360 76 278 m 586 417 q 533 592 583 529 q 392 654 483 654 q 305 635 343 654 q 238 583 267 615 q 194 507 210 550 q 175 417 178 464 l 586 417 m 389 929 l 533 1063 l 572 1019 l 389 815 l 206 1019 l 244 1063 l 389 929 z "},"Ĝ":{"ha":914,"x_min":86,"x_max":819,"o":"m 725 456 l 819 456 l 819 26 q 716 -2 793 15 q 526 -19 639 -19 q 351 14 432 -19 q 212 110 271 47 q 119 267 153 174 q 86 482 86 361 q 122 697 86 603 q 220 853 158 790 q 364 950 282 917 q 539 983 446 983 q 715 960 646 983 q 817 917 785 938 l 785 836 q 679 881 746 864 q 535 899 613 899 q 399 872 463 899 q 288 793 335 846 q 213 663 240 740 q 186 482 186 585 q 208 309 186 386 q 276 177 231 232 q 388 93 321 122 q 542 64 454 64 q 660 72 613 64 q 725 86 708 79 l 725 456 m 365 1028 l 326 1071 l 510 1275 l 693 1071 l 654 1028 l 510 1161 l 365 1028 z "},"ĝ":{"ha":796,"x_min":76,"x_max":676,"o":"m 588 83 q 563 67 579 76 q 522 49 546 58 q 466 33 497 39 q 396 26 435 26 q 275 46 333 26 q 173 107 217 65 q 103 215 129 149 q 76 375 76 281 q 100 517 76 451 q 167 630 124 582 q 274 705 211 678 q 417 732 338 732 q 577 719 517 732 q 676 693 638 706 l 676 38 q 593 -192 676 -124 q 342 -261 510 -261 q 216 -251 272 -261 q 119 -226 160 -240 l 138 -144 q 228 -171 171 -160 q 344 -182 286 -182 q 530 -133 472 -182 q 588 36 588 -83 l 588 83 m 586 631 q 525 644 563 638 q 418 650 488 650 q 315 630 360 650 q 238 573 269 610 q 189 485 206 536 q 172 374 172 435 q 192 252 172 303 q 242 169 211 201 q 314 123 274 138 q 396 108 354 108 q 508 126 457 108 q 586 168 558 144 l 586 631 m 279 811 l 240 854 l 424 1058 l 607 854 l 568 811 l 424 944 l 279 811 z "},"Ğ":{"ha":914,"x_min":86,"x_max":819,"o":"m 725 456 l 819 456 l 819 26 q 716 -2 793 15 q 526 -19 639 -19 q 351 14 432 -19 q 212 110 271 47 q 119 267 153 174 q 86 482 86 361 q 122 697 86 603 q 220 853 158 790 q 364 950 282 917 q 539 983 446 983 q 715 960 646 983 q 817 917 785 938 l 785 836 q 679 881 746 864 q 535 899 613 899 q 399 872 463 899 q 288 793 335 846 q 213 663 240 740 q 186 482 186 585 q 208 309 186 386 q 276 177 231 232 q 388 93 321 122 q 542 64 454 64 q 660 72 613 64 q 725 86 708 79 l 725 456 m 510 1068 q 445 1079 476 1068 q 390 1113 414 1090 q 352 1169 365 1135 q 340 1253 339 1204 l 400 1253 q 403 1225 400 1243 q 418 1190 407 1207 q 451 1159 429 1172 q 510 1146 472 1146 q 569 1159 547 1146 q 601 1190 590 1172 q 616 1225 613 1207 q 619 1253 619 1243 l 679 1253 q 667 1169 681 1204 q 630 1113 654 1135 q 574 1079 606 1090 q 510 1068 543 1068 z "},"ğ":{"ha":796,"x_min":76,"x_max":676,"o":"m 588 83 q 563 67 579 76 q 522 49 546 58 q 466 33 497 39 q 396 26 435 26 q 275 46 333 26 q 173 107 217 65 q 103 215 129 149 q 76 375 76 281 q 100 517 76 451 q 167 630 124 582 q 274 705 211 678 q 417 732 338 732 q 577 719 517 732 q 676 693 638 706 l 676 38 q 593 -192 676 -124 q 342 -261 510 -261 q 216 -251 272 -261 q 119 -226 160 -240 l 138 -144 q 228 -171 171 -160 q 344 -182 286 -182 q 530 -133 472 -182 q 588 36 588 -83 l 588 83 m 586 631 q 525 644 563 638 q 418 650 488 650 q 315 630 360 650 q 238 573 269 610 q 189 485 206 536 q 172 374 172 435 q 192 252 172 303 q 242 169 211 201 q 314 123 274 138 q 396 108 354 108 q 508 126 457 108 q 586 168 558 144 l 586 631 m 424 851 q 359 863 390 851 q 303 896 328 874 q 266 953 279 918 q 254 1036 253 988 l 314 1036 q 317 1008 314 1026 q 332 973 321 990 q 365 942 343 956 q 424 929 386 929 q 483 942 461 929 q 515 973 504 956 q 530 1008 526 990 q 533 1036 533 1026 l 593 1036 q 581 953 594 988 q 544 896 568 918 q 488 863 519 874 q 424 851 457 851 z "},"Ġ":{"ha":914,"x_min":86,"x_max":819,"o":"m 725 456 l 819 456 l 819 26 q 716 -2 793 15 q 526 -19 639 -19 q 351 14 432 -19 q 212 110 271 47 q 119 267 153 174 q 86 482 86 361 q 122 697 86 603 q 220 853 158 790 q 364 950 282 917 q 539 983 446 983 q 715 960 646 983 q 817 917 785 938 l 785 836 q 679 881 746 864 q 535 899 613 899 q 399 872 463 899 q 288 793 335 846 q 213 663 240 740 q 186 482 186 585 q 208 309 186 386 q 276 177 231 232 q 388 93 321 122 q 542 64 454 64 q 660 72 613 64 q 725 86 708 79 l 725 456 m 510 1082 q 463 1101 482 1082 q 443 1151 443 1119 q 463 1202 443 1183 q 510 1221 482 1221 q 557 1202 538 1221 q 576 1151 576 1183 q 557 1101 576 1119 q 510 1082 538 1082 z "},"ġ":{"ha":796,"x_min":76,"x_max":676,"o":"m 588 83 q 563 67 579 76 q 522 49 546 58 q 466 33 497 39 q 396 26 435 26 q 275 46 333 26 q 173 107 217 65 q 103 215 129 149 q 76 375 76 281 q 100 517 76 451 q 167 630 124 582 q 274 705 211 678 q 417 732 338 732 q 577 719 517 732 q 676 693 638 706 l 676 38 q 593 -192 676 -124 q 342 -261 510 -261 q 216 -251 272 -261 q 119 -226 160 -240 l 138 -144 q 228 -171 171 -160 q 344 -182 286 -182 q 530 -133 472 -182 q 588 36 588 -83 l 588 83 m 586 631 q 525 644 563 638 q 418 650 488 650 q 315 630 360 650 q 238 573 269 610 q 189 485 206 536 q 172 374 172 435 q 192 252 172 303 q 242 169 211 201 q 314 123 274 138 q 396 108 354 108 q 508 126 457 108 q 586 168 558 144 l 586 631 m 424 865 q 376 884 396 865 q 357 935 357 903 q 376 985 357 967 q 424 1004 396 1004 q 471 985 451 1004 q 490 935 490 967 q 471 884 490 903 q 424 865 451 865 z "},"Ģ":{"ha":914,"x_min":86,"x_max":819,"o":"m 725 456 l 819 456 l 819 26 q 716 -2 793 15 q 526 -19 639 -19 q 351 14 432 -19 q 212 110 271 47 q 119 267 153 174 q 86 482 86 361 q 122 697 86 603 q 220 853 158 790 q 364 950 282 917 q 539 983 446 983 q 715 960 646 983 q 817 917 785 938 l 785 836 q 679 881 746 864 q 535 899 613 899 q 399 872 463 899 q 288 793 335 846 q 213 663 240 740 q 186 482 186 585 q 208 309 186 386 q 276 177 231 232 q 388 93 321 122 q 542 64 454 64 q 660 72 613 64 q 725 86 708 79 l 725 456 m 467 -94 l 467 -76 l 556 -76 q 557 -89 557 -82 q 557 -100 557 -96 q 515 -217 557 -175 q 407 -258 474 -258 q 383 -257 396 -258 q 364 -253 371 -256 l 364 -193 q 445 -169 424 -193 q 467 -94 467 -146 z "},"ģ":{"ha":796,"x_min":76,"x_max":676,"o":"m 588 83 q 563 67 579 76 q 522 49 546 58 q 466 33 497 39 q 396 26 435 26 q 275 46 333 26 q 173 107 217 65 q 103 215 129 149 q 76 375 76 281 q 100 517 76 451 q 167 630 124 582 q 274 705 211 678 q 417 732 338 732 q 577 719 517 732 q 676 693 638 706 l 676 38 q 593 -192 676 -124 q 342 -261 510 -261 q 216 -251 272 -261 q 119 -226 160 -240 l 138 -144 q 228 -171 171 -160 q 344 -182 286 -182 q 530 -133 472 -182 q 588 36 588 -83 l 588 83 m 586 631 q 525 644 563 638 q 418 650 488 650 q 315 630 360 650 q 238 573 269 610 q 189 485 206 536 q 172 374 172 435 q 192 252 172 303 q 242 169 211 201 q 314 123 274 138 q 396 108 354 108 q 508 126 457 108 q 586 168 558 144 l 586 631 m 368 879 q 382 965 368 929 q 417 1025 396 1001 q 462 1063 438 1049 q 507 1082 486 1076 l 535 1029 q 506 1008 519 1019 q 482 980 493 997 q 465 936 471 963 q 458 869 458 910 l 458 853 l 369 853 q 368 867 368 858 q 368 879 368 875 z "},"Ĥ":{"ha":961,"x_min":125,"x_max":836,"o":"m 742 963 l 836 963 l 836 0 l 742 0 l 742 463 l 219 463 l 219 0 l 125 0 l 125 963 l 219 963 l 219 544 l 742 544 l 742 963 m 336 1028 l 297 1071 l 481 1275 l 664 1071 l 625 1028 l 481 1161 l 336 1028 z "},"ĥ":{"ha":790,"x_min":81,"x_max":679,"o":"m 119 0 l 119 1061 l 210 1078 l 210 697 q 300 723 254 714 q 392 732 346 732 q 531 708 475 732 q 619 641 586 685 q 666 536 653 597 q 679 401 679 475 l 679 0 l 589 0 l 589 372 q 578 501 589 449 q 544 588 568 554 q 479 635 519 621 q 378 650 439 650 q 327 646 354 650 q 276 637 300 642 q 234 626 253 632 q 210 618 215 621 l 210 0 l 119 0 m 411 1194 l 381 1146 l 246 1240 l 111 1146 l 81 1194 l 246 1331 l 411 1194 z "},"Ħ":{"ha":1000,"x_min":33,"x_max":967,"o":"m 856 739 l 856 0 l 761 0 l 761 463 l 239 463 l 239 0 l 144 0 l 144 739 l 33 739 l 33 814 l 144 814 l 144 963 l 239 963 l 239 814 l 761 814 l 761 963 l 856 963 l 856 814 l 967 814 l 967 739 l 856 739 m 761 739 l 239 739 l 239 544 l 761 544 l 761 739 z "},"ħ":{"ha":790,"x_min":8,"x_max":679,"o":"m 119 0 l 119 872 l 8 872 l 8 944 l 119 944 l 119 1061 l 210 1078 l 210 944 l 469 944 l 469 872 l 210 872 l 210 697 q 300 723 254 714 q 392 732 346 732 q 531 708 475 732 q 619 641 586 685 q 666 536 653 597 q 679 401 679 475 l 679 0 l 589 0 l 589 372 q 578 501 589 449 q 544 588 568 554 q 479 635 519 621 q 378 650 439 650 q 327 646 354 650 q 276 637 300 642 q 234 626 253 632 q 210 618 215 621 l 210 0 l 119 0 z "},"Ĩ":{"ha":344,"x_min":-46,"x_max":394,"o":"m 125 963 l 219 963 l 219 0 l 125 0 l 125 963 m 261 1090 q 206 1100 231 1090 q 157 1121 181 1110 q 114 1140 131 1135 q 83 1144 97 1144 q 38 1125 54 1144 q 7 1082 21 1106 l -46 1107 q -27 1143 -39 1124 q 1 1179 -15 1163 q 38 1207 17 1196 q 88 1218 60 1218 q 143 1208 118 1218 q 192 1188 168 1199 q 235 1169 218 1174 q 265 1164 251 1164 q 311 1183 294 1164 q 342 1226 328 1203 l 394 1201 q 376 1165 388 1185 q 348 1129 364 1146 q 310 1101 332 1113 q 261 1090 289 1090 z "},"ĩ":{"ha":329,"x_min":-54,"x_max":386,"o":"m 210 0 l 119 0 l 119 718 l 210 718 l 210 0 m 253 874 q 197 883 222 874 q 149 904 172 893 q 106 923 122 918 q 75 928 89 928 q 29 908 46 928 q -1 865 13 889 l -54 890 q -35 926 -47 907 q -8 963 -24 946 q 30 990 8 979 q 79 1001 51 1001 q 135 992 110 1001 q 183 971 160 982 q 226 952 210 957 q 257 947 243 947 q 303 967 286 947 q 333 1010 319 986 l 386 985 q 367 949 379 968 q 340 913 356 929 q 302 885 324 896 q 253 874 281 874 z "},"Ī":{"ha":344,"x_min":-10,"x_max":358,"o":"m 125 963 l 219 963 l 219 0 l 125 0 l 125 963 m -10 1118 l -10 1194 l 358 1194 l 358 1118 l -10 1118 z "},"ī":{"ha":329,"x_min":-18,"x_max":350,"o":"m 210 0 l 119 0 l 119 718 l 210 718 l 210 0 m -18 901 l -18 978 l 350 978 l 350 901 l -18 901 z "},"Ĭ":{"ha":344,"x_min":3,"x_max":344,"o":"m 125 963 l 219 963 l 219 0 l 125 0 l 125 963 m 174 1068 q 109 1079 140 1068 q 53 1113 78 1090 q 16 1169 29 1135 q 4 1253 3 1204 l 64 1253 q 67 1225 64 1243 q 82 1190 71 1207 q 115 1159 93 1172 q 174 1146 136 1146 q 233 1159 211 1146 q 265 1190 254 1172 q 280 1225 276 1207 q 283 1253 283 1243 l 343 1253 q 331 1169 344 1204 q 294 1113 318 1135 q 238 1079 269 1090 q 174 1068 207 1068 z "},"ĭ":{"ha":329,"x_min":-6,"x_max":336,"o":"m 210 0 l 119 0 l 119 718 l 210 718 l 210 0 m 165 851 q 101 863 132 851 q 45 896 69 874 q 8 953 21 918 q -4 1036 -6 988 l 56 1036 q 59 1008 56 1026 q 74 973 63 990 q 106 942 85 956 q 165 929 128 929 q 224 942 203 929 q 257 973 246 956 q 272 1008 268 990 q 275 1036 275 1026 l 335 1036 q 323 953 336 988 q 285 896 310 918 q 230 863 261 874 q 165 851 199 851 z "},"Į":{"ha":344,"x_min":21,"x_max":232,"o":"m 219 0 q 191 -24 206 -11 q 161 -53 176 -36 q 126 -97 139 -76 q 114 -140 114 -117 q 131 -176 114 -165 q 172 -187 147 -187 q 199 -185 185 -187 q 225 -179 214 -183 l 232 -246 q 199 -254 221 -250 q 157 -258 178 -258 q 51 -231 82 -258 q 21 -161 21 -204 q 43 -85 21 -118 q 96 -24 65 -51 q 110 -11 103 -17 q 125 0 118 -6 l 125 963 l 219 963 l 219 0 z "},"į":{"ha":329,"x_min":15,"x_max":231,"o":"m 210 0 q 183 -24 199 -11 q 153 -53 168 -36 q 119 -97 131 -76 q 108 -140 108 -117 q 125 -176 108 -165 q 167 -187 142 -187 q 194 -185 179 -187 q 219 -179 208 -183 l 226 -246 q 194 -254 215 -250 q 151 -258 172 -258 q 46 -231 76 -258 q 15 -161 15 -204 q 38 -85 15 -118 q 90 -24 60 -51 q 105 -11 97 -17 q 119 0 113 -6 l 119 718 l 210 718 l 210 0 m 231 935 q 211 884 231 903 q 164 865 192 865 q 117 884 136 865 q 97 935 97 903 q 117 985 97 967 q 164 1004 136 1004 q 211 985 192 1004 q 231 935 231 967 z "},"İ":{"ha":344,"x_min":107,"x_max":240,"o":"m 125 963 l 219 963 l 219 0 l 125 0 l 125 963 m 174 1082 q 126 1101 146 1082 q 107 1151 107 1119 q 126 1202 107 1183 q 174 1221 146 1221 q 221 1202 201 1221 q 240 1151 240 1183 q 221 1101 240 1119 q 174 1082 201 1082 z "},"ı":{"ha":329,"x_min":119,"x_max":210,"o":"m 210 0 l 119 0 l 119 718 l 210 718 l 210 0 z "},"Ĳ":{"ha":1021,"x_min":125,"x_max":900,"o":"m 125 963 l 219 963 l 219 0 l 125 0 l 125 963 m 900 303 q 886 174 900 233 q 838 72 872 115 q 748 3 804 28 q 607 -21 692 -21 q 515 -12 557 -21 q 442 10 474 -3 q 388 36 410 22 q 356 61 367 50 l 400 138 q 431 113 413 126 q 475 89 450 100 q 531 71 500 78 q 597 64 561 64 q 755 120 704 64 q 806 313 806 176 l 806 963 l 900 963 l 900 303 z "},"ĳ":{"ha":658,"x_min":97,"x_max":560,"o":"m 210 0 l 119 0 l 119 718 l 210 718 l 210 0 m 231 935 q 211 884 231 903 q 164 865 192 865 q 117 884 136 865 q 97 935 97 903 q 117 985 97 967 q 164 1004 136 1004 q 211 985 192 1004 q 231 935 231 967 m 314 -260 q 276 -256 299 -260 q 242 -246 253 -251 l 254 -172 q 281 -178 264 -175 q 313 -181 297 -181 q 422 -135 394 -181 q 449 3 449 -89 l 449 718 l 539 718 l 539 7 q 488 -194 539 -129 q 314 -260 436 -260 m 560 935 q 540 884 560 903 q 493 865 521 865 q 446 884 465 865 q 426 935 426 903 q 446 985 426 967 q 493 1004 465 1004 q 540 985 521 1004 q 560 935 560 967 z "},"Ĵ":{"ha":676,"x_min":11,"x_max":692,"o":"m 556 303 q 542 174 556 233 q 494 72 528 115 q 403 3 460 28 q 263 -21 347 -21 q 171 -12 213 -21 q 97 10 129 -3 q 44 36 65 22 q 11 61 22 50 l 56 138 q 87 113 68 126 q 131 89 106 100 q 186 71 156 78 q 253 64 217 64 q 410 120 360 64 q 461 313 461 176 l 461 963 l 556 963 l 556 303 m 364 1028 l 325 1071 l 508 1275 l 692 1071 l 653 1028 l 508 1161 l 364 1028 z "},"ĵ":{"ha":329,"x_min":-87,"x_max":349,"o":"m -15 -260 q -53 -256 -31 -260 q -87 -246 -76 -251 l -75 -172 q -49 -178 -65 -175 q -17 -181 -32 -181 q 92 -135 65 -181 q 119 3 119 -89 l 119 718 l 210 718 l 210 7 q 158 -194 210 -129 q -15 -260 107 -260 m 21 811 l -18 854 l 165 1058 l 349 854 l 310 811 l 165 944 l 21 811 z "},"Ķ":{"ha":832,"x_min":125,"x_max":818,"o":"m 713 0 q 606 143 665 72 q 482 276 547 214 q 349 390 417 339 q 219 476 282 442 l 219 0 l 125 0 l 125 963 l 219 963 l 219 514 q 337 623 272 561 q 465 747 401 685 q 583 867 528 810 q 672 963 639 924 l 786 963 q 689 860 746 919 q 568 739 632 801 q 441 616 504 676 q 328 510 378 556 q 415 448 368 485 q 509 367 461 411 q 603 276 557 324 q 691 179 650 228 q 765 85 732 131 q 818 0 797 39 l 713 0 m 411 -94 l 411 -76 l 500 -76 q 501 -89 501 -82 q 501 -100 501 -96 q 460 -217 501 -175 q 351 -258 418 -258 q 328 -257 340 -258 q 308 -253 315 -256 l 308 -193 q 390 -169 368 -193 q 411 -94 411 -146 z "},"ķ":{"ha":688,"x_min":119,"x_max":663,"o":"m 311 390 q 403 315 354 361 q 501 216 453 269 q 591 106 549 163 q 663 0 633 50 l 556 0 q 480 109 522 56 q 391 210 438 163 q 298 296 344 257 q 210 361 251 335 l 210 0 l 119 0 l 119 1061 l 210 1078 l 210 394 q 288 471 244 428 q 374 558 331 514 q 457 644 418 603 q 524 718 496 686 l 632 718 q 560 643 600 685 q 476 556 519 601 q 389 468 432 511 q 311 390 346 425 m 332 -94 l 332 -76 l 421 -76 q 422 -89 422 -82 q 422 -100 422 -96 q 381 -217 422 -175 q 272 -258 339 -258 q 249 -257 261 -258 q 229 -253 236 -256 l 229 -193 q 310 -169 289 -193 q 332 -94 332 -146 z "},"ĸ":{"ha":703,"x_min":119,"x_max":678,"o":"m 119 0 l 119 718 l 210 718 l 210 386 q 297 470 249 424 q 390 563 344 517 q 476 651 436 610 q 539 718 515 692 l 647 718 q 571 637 615 682 q 480 546 526 592 q 390 457 433 500 q 313 383 346 414 q 413 308 360 353 q 515 210 465 263 q 606 103 564 158 q 678 0 649 49 l 571 0 q 492 104 538 51 q 398 205 447 157 q 299 292 349 253 q 210 354 250 331 l 210 0 l 119 0 z "},"Ĺ":{"ha":697,"x_min":110,"x_max":672,"o":"m 672 82 l 672 0 l 125 0 l 125 963 l 219 963 l 219 82 l 672 82 m 393 1219 l 156 1026 l 110 1079 l 329 1290 l 393 1219 z "},"ĺ":{"ha":354,"x_min":94,"x_max":346,"o":"m 301 -12 q 222 -1 256 -11 q 165 31 188 10 q 130 87 142 53 q 118 172 118 121 l 118 1061 l 208 1078 l 208 175 q 215 122 208 142 q 233 90 221 101 q 266 72 246 78 q 314 63 286 67 l 301 -12 m 314 1306 l 346 1225 l 115 1143 l 94 1200 l 314 1306 z "},"Ļ":{"ha":697,"x_min":125,"x_max":672,"o":"m 672 82 l 672 0 l 125 0 l 125 963 l 219 963 l 219 82 l 672 82 m 364 -94 l 364 -76 l 453 -76 q 454 -89 454 -82 q 454 -100 454 -96 q 413 -217 454 -175 q 304 -258 371 -258 q 281 -257 293 -258 q 261 -253 268 -256 l 261 -193 q 342 -169 321 -193 q 364 -94 364 -146 z "},"ļ":{"ha":354,"x_min":53,"x_max":314,"o":"m 301 -12 q 222 -1 256 -11 q 165 31 188 10 q 130 87 142 53 q 118 172 118 121 l 118 1061 l 208 1078 l 208 175 q 215 122 208 142 q 233 90 221 101 q 266 72 246 78 q 314 63 286 67 l 301 -12 m 156 -94 l 156 -76 l 244 -76 q 246 -89 246 -82 q 246 -100 246 -96 q 204 -217 246 -175 q 96 -258 163 -258 q 72 -257 85 -258 q 53 -253 60 -256 l 53 -193 q 134 -169 113 -193 q 156 -94 156 -146 z "},"Ľ":{"ha":697,"x_min":125,"x_max":672,"o":"m 672 82 l 672 0 l 125 0 l 125 963 l 219 963 l 219 82 l 672 82 m 456 964 l 422 663 l 357 663 l 357 964 l 456 964 z "},"ľ":{"ha":372,"x_min":118,"x_max":417,"o":"m 301 -12 q 222 -1 256 -11 q 165 31 188 10 q 130 87 142 53 q 118 172 118 121 l 118 1061 l 208 1078 l 208 175 q 215 122 208 142 q 233 90 221 101 q 266 72 246 78 q 314 63 286 67 l 301 -12 m 417 1078 l 383 776 l 318 776 l 318 1078 l 417 1078 z "},"Ŀ":{"ha":697,"x_min":125,"x_max":672,"o":"m 672 82 l 672 0 l 125 0 l 125 963 l 219 963 l 219 82 l 672 82 m 521 436 q 474 455 493 436 q 454 506 454 474 q 474 556 454 538 q 521 575 493 575 q 568 556 549 575 q 588 506 588 538 q 568 455 588 474 q 521 436 549 436 z "},"ŀ":{"ha":429,"x_min":118,"x_max":446,"o":"m 301 -12 q 222 -1 256 -11 q 165 31 188 10 q 130 87 142 53 q 118 172 118 121 l 118 1061 l 208 1078 l 208 175 q 215 122 208 142 q 233 90 221 101 q 266 72 246 78 q 314 63 286 67 l 301 -12 m 379 436 q 332 455 351 436 q 313 506 313 474 q 332 556 313 538 q 379 575 351 575 q 426 556 407 575 q 446 506 446 538 q 426 455 446 474 q 379 436 407 436 z "},"Ł":{"ha":717,"x_min":1,"x_max":692,"o":"m 396 624 l 428 557 l 239 458 l 239 82 l 692 82 l 692 0 l 144 0 l 144 410 l 36 354 l 1 421 l 144 494 l 144 963 l 239 963 l 239 543 l 396 624 z "},"ł":{"ha":354,"x_min":18,"x_max":349,"o":"m 318 663 l 349 596 l 215 526 l 215 174 q 222 120 215 140 q 240 88 228 100 q 273 71 253 76 q 321 61 293 65 l 308 -14 q 228 -1 263 -11 q 172 31 194 10 q 137 85 149 51 q 125 171 125 119 l 125 479 l 50 440 l 18 506 l 125 561 l 125 1061 l 215 1078 l 215 610 l 318 663 z "},"Ń":{"ha":985,"x_min":125,"x_max":860,"o":"m 781 0 q 713 114 754 49 q 624 253 672 179 q 521 406 575 328 q 413 559 467 485 q 309 699 360 633 q 218 811 258 764 l 218 0 l 125 0 l 125 963 l 200 963 q 352 780 271 883 q 511 569 433 676 q 656 358 589 461 q 767 179 724 256 l 767 963 l 860 963 l 860 0 l 781 0 m 683 1219 l 446 1026 l 400 1079 l 619 1290 l 683 1219 z "},"ń":{"ha":790,"x_min":119,"x_max":679,"o":"m 119 693 q 228 718 160 704 q 394 732 296 732 q 531 708 476 732 q 619 641 586 685 q 665 536 651 597 q 679 401 679 475 l 679 0 l 589 0 l 589 372 q 578 501 589 449 q 544 588 568 554 q 480 635 519 621 q 381 650 440 650 q 270 643 317 650 q 210 631 224 636 l 210 0 l 119 0 l 119 693 m 590 1003 l 353 810 l 307 863 l 526 1074 l 590 1003 z "},"Ņ":{"ha":985,"x_min":125,"x_max":860,"o":"m 781 0 q 713 114 754 49 q 624 253 672 179 q 521 406 575 328 q 413 559 467 485 q 309 699 360 633 q 218 811 258 764 l 218 0 l 125 0 l 125 963 l 200 963 q 352 780 271 883 q 511 569 433 676 q 656 358 589 461 q 767 179 724 256 l 767 963 l 860 963 l 860 0 l 781 0 m 454 -94 l 454 -76 l 543 -76 q 544 -89 544 -82 q 544 -100 544 -96 q 503 -217 544 -175 q 394 -258 461 -258 q 371 -257 383 -258 q 351 -253 358 -256 l 351 -193 q 433 -169 411 -193 q 454 -94 454 -146 z "},"ņ":{"ha":790,"x_min":119,"x_max":679,"o":"m 119 693 q 228 718 160 704 q 394 732 296 732 q 531 708 476 732 q 619 641 586 685 q 665 536 651 597 q 679 401 679 475 l 679 0 l 589 0 l 589 372 q 578 501 589 449 q 544 588 568 554 q 480 635 519 621 q 381 650 440 650 q 270 643 317 650 q 210 631 224 636 l 210 0 l 119 0 l 119 693 m 358 -94 l 358 -76 l 447 -76 q 449 -89 449 -82 q 449 -100 449 -96 q 407 -217 449 -175 q 299 -258 365 -258 q 275 -257 288 -258 q 256 -253 263 -256 l 256 -193 q 337 -169 315 -193 q 358 -94 358 -146 z "},"Ň":{"ha":985,"x_min":125,"x_max":860,"o":"m 781 0 q 713 114 754 49 q 624 253 672 179 q 521 406 575 328 q 413 559 467 485 q 309 699 360 633 q 218 811 258 764 l 218 0 l 125 0 l 125 963 l 200 963 q 352 780 271 883 q 511 569 433 676 q 656 358 589 461 q 767 179 724 256 l 767 963 l 860 963 l 860 0 l 781 0 m 492 1146 l 636 1279 l 675 1236 l 492 1032 l 308 1236 l 347 1279 l 492 1146 z "},"ň":{"ha":790,"x_min":119,"x_max":679,"o":"m 119 693 q 228 718 160 704 q 394 732 296 732 q 531 708 476 732 q 619 641 586 685 q 665 536 651 597 q 679 401 679 475 l 679 0 l 589 0 l 589 372 q 578 501 589 449 q 544 588 568 554 q 480 635 519 621 q 381 650 440 650 q 270 643 317 650 q 210 631 224 636 l 210 0 l 119 0 l 119 693 m 399 929 l 543 1063 l 582 1019 l 399 815 l 215 1019 l 254 1063 l 399 929 z "},"ŉ":{"ha":790,"x_min":40,"x_max":679,"o":"m 119 693 q 228 718 160 704 q 394 732 296 732 q 531 708 476 732 q 619 641 586 685 q 665 536 651 597 q 679 401 679 475 l 679 0 l 589 0 l 589 372 q 578 501 589 449 q 544 588 568 554 q 480 635 519 621 q 381 650 440 650 q 270 643 317 650 q 210 631 224 636 l 210 0 l 119 0 l 119 693 m 194 1078 q 169 925 194 990 q 103 790 144 860 l 40 819 q 80 922 64 868 q 96 1029 96 976 q 95 1056 96 1042 q 93 1078 94 1071 l 194 1078 z "},"Ŋ":{"ha":985,"x_min":125,"x_max":860,"o":"m 767 24 q 697 140 738 75 q 608 278 656 206 q 508 425 560 350 q 404 571 456 500 q 305 703 353 642 q 218 811 257 765 l 218 0 l 125 0 l 125 963 l 200 963 q 352 780 271 883 q 511 569 433 676 q 656 358 589 461 q 767 179 724 256 l 767 963 l 860 963 l 860 -36 q 854 -124 860 -83 q 830 -195 849 -165 q 777 -242 811 -225 q 685 -260 743 -260 q 640 -256 661 -260 q 607 -247 618 -251 l 619 -172 q 640 -178 626 -175 q 671 -181 654 -181 q 745 -149 724 -181 q 767 -51 767 -118 l 767 24 z "},"ŋ":{"ha":790,"x_min":119,"x_max":679,"o":"m 589 372 q 578 501 589 449 q 544 588 568 554 q 480 635 519 621 q 381 650 440 650 q 270 643 317 650 q 210 631 224 636 l 210 0 l 119 0 l 119 693 q 228 718 160 704 q 394 732 296 732 q 531 708 476 732 q 619 641 586 685 q 665 536 651 597 q 679 401 679 475 l 679 -36 q 674 -124 679 -83 q 650 -195 668 -165 q 598 -242 632 -225 q 506 -258 564 -258 q 463 -255 482 -258 q 432 -247 443 -251 l 444 -174 q 494 -181 461 -181 q 568 -149 547 -181 q 589 -51 589 -118 l 589 372 z "},"Ō":{"ha":1075,"x_min":86,"x_max":989,"o":"m 989 482 q 953 264 989 358 q 855 106 917 169 q 711 11 793 43 q 538 -21 629 -21 q 364 11 446 -21 q 220 106 282 43 q 122 264 158 169 q 86 482 86 358 q 122 699 86 606 q 220 856 158 793 q 364 951 282 919 q 538 983 446 983 q 711 951 629 983 q 855 856 793 919 q 953 699 917 793 q 989 482 989 606 m 889 482 q 864 656 889 579 q 793 788 839 733 q 683 870 747 842 q 538 899 618 899 q 392 870 457 899 q 282 788 328 842 q 211 656 236 733 q 186 482 186 579 q 211 308 186 385 q 282 176 236 231 q 392 93 328 122 q 538 64 457 64 q 683 93 618 64 q 793 176 747 122 q 864 308 839 231 q 889 482 889 385 m 354 1118 l 354 1194 l 722 1194 l 722 1118 l 354 1118 z "},"ō":{"ha":808,"x_min":76,"x_max":732,"o":"m 732 358 q 708 204 732 274 q 640 86 683 135 q 536 10 596 38 q 404 -17 476 -17 q 272 10 332 -17 q 169 86 213 38 q 101 204 125 135 q 76 358 76 274 q 101 513 76 443 q 169 631 125 582 q 272 708 213 681 q 404 735 332 735 q 536 708 476 735 q 640 631 596 681 q 708 513 683 582 q 732 358 732 443 m 636 358 q 574 573 636 493 q 404 653 511 653 q 235 573 297 653 q 172 358 172 493 q 235 144 172 224 q 404 65 297 65 q 574 144 511 65 q 636 358 636 224 m 221 901 l 221 978 l 589 978 l 589 901 l 221 901 z "},"Ŏ":{"ha":1075,"x_min":86,"x_max":989,"o":"m 989 482 q 953 264 989 358 q 855 106 917 169 q 711 11 793 43 q 538 -21 629 -21 q 364 11 446 -21 q 220 106 282 43 q 122 264 158 169 q 86 482 86 358 q 122 699 86 606 q 220 856 158 793 q 364 951 282 919 q 538 983 446 983 q 711 951 629 983 q 855 856 793 919 q 953 699 917 793 q 989 482 989 606 m 889 482 q 864 656 889 579 q 793 788 839 733 q 683 870 747 842 q 538 899 618 899 q 392 870 457 899 q 282 788 328 842 q 211 656 236 733 q 186 482 186 579 q 211 308 186 385 q 282 176 236 231 q 392 93 328 122 q 538 64 457 64 q 683 93 618 64 q 793 176 747 122 q 864 308 839 231 q 889 482 889 385 m 538 1068 q 473 1079 504 1068 q 417 1113 442 1090 q 380 1169 393 1135 q 368 1253 367 1204 l 428 1253 q 431 1225 428 1243 q 446 1190 435 1207 q 478 1159 457 1172 q 538 1146 500 1146 q 597 1159 575 1146 q 629 1190 618 1172 q 644 1225 640 1207 q 647 1253 647 1243 l 707 1253 q 695 1169 708 1204 q 658 1113 682 1135 q 602 1079 633 1090 q 538 1068 571 1068 z "},"ŏ":{"ha":808,"x_min":76,"x_max":732,"o":"m 732 358 q 708 204 732 274 q 640 86 683 135 q 536 10 596 38 q 404 -17 476 -17 q 272 10 332 -17 q 169 86 213 38 q 101 204 125 135 q 76 358 76 274 q 101 513 76 443 q 169 631 125 582 q 272 708 213 681 q 404 735 332 735 q 536 708 476 735 q 640 631 596 681 q 708 513 683 582 q 732 358 732 443 m 636 358 q 574 573 636 493 q 404 653 511 653 q 235 573 297 653 q 172 358 172 493 q 235 144 172 224 q 404 65 297 65 q 574 144 511 65 q 636 358 636 224 m 404 851 q 340 863 371 851 q 284 896 308 874 q 247 953 260 918 q 235 1036 233 988 l 294 1036 q 298 1008 294 1026 q 313 973 301 990 q 345 942 324 956 q 404 929 367 929 q 463 942 442 929 q 496 973 485 956 q 510 1008 507 990 q 514 1036 514 1026 l 574 1036 q 562 953 575 988 q 524 896 549 918 q 469 863 500 874 q 404 851 438 851 z "},"Ő":{"ha":1075,"x_min":86,"x_max":989,"o":"m 989 482 q 953 264 989 358 q 855 106 917 169 q 711 11 793 43 q 538 -21 629 -21 q 364 11 446 -21 q 220 106 282 43 q 122 264 158 169 q 86 482 86 358 q 122 699 86 606 q 220 856 158 793 q 364 951 282 919 q 538 983 446 983 q 711 951 629 983 q 855 856 793 919 q 953 699 917 793 q 989 482 989 606 m 889 482 q 864 656 889 579 q 793 788 839 733 q 683 870 747 842 q 538 899 618 899 q 392 870 457 899 q 282 788 328 842 q 211 656 236 733 q 186 482 186 579 q 211 308 186 385 q 282 176 236 231 q 392 93 328 122 q 538 64 457 64 q 683 93 618 64 q 793 176 747 122 q 864 308 839 231 q 889 482 889 385 m 611 1232 l 436 1025 l 382 1065 l 547 1290 l 611 1232 m 829 1232 l 654 1025 l 600 1065 l 765 1290 l 829 1232 z "},"ő":{"ha":808,"x_min":76,"x_max":732,"o":"m 732 358 q 708 204 732 274 q 640 86 683 135 q 536 10 596 38 q 404 -17 476 -17 q 272 10 332 -17 q 169 86 213 38 q 101 204 125 135 q 76 358 76 274 q 101 513 76 443 q 169 631 125 582 q 272 708 213 681 q 404 735 332 735 q 536 708 476 735 q 640 631 596 681 q 708 513 683 582 q 732 358 732 443 m 636 358 q 574 573 636 493 q 404 653 511 653 q 235 573 297 653 q 172 358 172 493 q 235 144 172 224 q 404 65 297 65 q 574 144 511 65 q 636 358 636 224 m 478 1015 l 303 808 l 249 849 l 414 1074 l 478 1015 m 696 1015 l 521 808 l 467 849 l 632 1074 l 696 1015 z "},"Ŕ":{"ha":858,"x_min":125,"x_max":825,"o":"m 767 674 q 710 503 767 565 q 560 413 653 440 q 617 338 582 385 q 690 234 653 290 q 764 117 728 178 q 825 0 800 56 l 724 0 q 660 111 694 56 q 591 219 626 167 q 522 315 556 271 q 464 393 489 360 q 375 389 419 389 l 219 389 l 219 0 l 125 0 l 125 944 q 242 965 175 958 q 367 971 310 971 q 666 896 565 971 q 767 674 767 821 m 378 889 q 285 885 325 889 q 219 879 246 882 l 219 469 l 350 469 q 474 476 415 469 q 575 503 532 482 q 643 565 618 525 q 668 675 668 606 q 643 781 668 739 q 578 847 618 822 q 485 880 538 871 q 378 889 433 889 m 593 1219 l 356 1026 l 310 1079 l 529 1290 l 593 1219 z "},"ŕ":{"ha":519,"x_min":119,"x_max":507,"o":"m 364 732 q 448 725 408 732 q 503 711 488 718 l 485 633 q 440 645 474 639 q 350 651 406 651 q 256 643 292 651 q 210 629 221 635 l 210 0 l 119 0 l 119 685 q 215 716 154 700 q 364 732 276 732 m 507 1003 l 269 810 l 224 863 l 443 1074 l 507 1003 z "},"Ŗ":{"ha":858,"x_min":125,"x_max":825,"o":"m 767 674 q 710 503 767 565 q 560 413 653 440 q 617 338 582 385 q 690 234 653 290 q 764 117 728 178 q 825 0 800 56 l 724 0 q 660 111 694 56 q 591 219 626 167 q 522 315 556 271 q 464 393 489 360 q 375 389 419 389 l 219 389 l 219 0 l 125 0 l 125 944 q 242 965 175 958 q 367 971 310 971 q 666 896 565 971 q 767 674 767 821 m 378 889 q 285 885 325 889 q 219 879 246 882 l 219 469 l 350 469 q 474 476 415 469 q 575 503 532 482 q 643 565 618 525 q 668 675 668 606 q 643 781 668 739 q 578 847 618 822 q 485 880 538 871 q 378 889 433 889 m 410 -94 l 410 -76 l 499 -76 q 500 -89 500 -82 q 500 -100 500 -96 q 458 -217 500 -175 q 350 -258 417 -258 q 326 -257 339 -258 q 307 -253 314 -256 l 307 -193 q 388 -169 367 -193 q 410 -94 410 -146 z "},"ŗ":{"ha":519,"x_min":18,"x_max":503,"o":"m 364 732 q 448 725 408 732 q 503 711 488 718 l 485 633 q 440 645 474 639 q 350 651 406 651 q 256 643 292 651 q 210 629 221 635 l 210 0 l 119 0 l 119 685 q 215 716 154 700 q 364 732 276 732 m 121 -94 l 121 -76 l 210 -76 q 211 -89 211 -82 q 211 -100 211 -96 q 169 -217 211 -175 q 61 -258 128 -258 q 38 -257 50 -258 q 18 -253 25 -256 l 18 -193 q 99 -169 78 -193 q 121 -94 121 -146 z "},"Ř":{"ha":858,"x_min":125,"x_max":825,"o":"m 767 674 q 710 503 767 565 q 560 413 653 440 q 617 338 582 385 q 690 234 653 290 q 764 117 728 178 q 825 0 800 56 l 724 0 q 660 111 694 56 q 591 219 626 167 q 522 315 556 271 q 464 393 489 360 q 375 389 419 389 l 219 389 l 219 0 l 125 0 l 125 944 q 242 965 175 958 q 367 971 310 971 q 666 896 565 971 q 767 674 767 821 m 378 889 q 285 885 325 889 q 219 879 246 882 l 219 469 l 350 469 q 474 476 415 469 q 575 503 532 482 q 643 565 618 525 q 668 675 668 606 q 643 781 668 739 q 578 847 618 822 q 485 880 538 871 q 378 889 433 889 m 401 1146 l 546 1279 l 585 1236 l 401 1032 l 218 1236 l 257 1279 l 401 1146 z "},"ř":{"ha":519,"x_min":119,"x_max":503,"o":"m 364 732 q 448 725 408 732 q 503 711 488 718 l 485 633 q 440 645 474 639 q 350 651 406 651 q 256 643 292 651 q 210 629 221 635 l 210 0 l 119 0 l 119 685 q 215 716 154 700 q 364 732 276 732 m 315 929 l 460 1063 l 499 1019 l 315 815 l 132 1019 l 171 1063 l 315 929 z "},"Ś":{"ha":718,"x_min":47,"x_max":668,"o":"m 332 61 q 507 102 444 61 q 569 235 569 143 q 549 323 569 288 q 496 383 529 358 q 419 424 463 407 q 329 461 376 442 q 222 510 269 485 q 142 566 175 535 q 91 638 108 597 q 74 732 74 678 q 156 919 74 856 q 383 983 238 983 q 460 978 422 983 q 530 963 497 972 q 590 943 563 954 q 635 919 617 932 l 601 840 q 503 885 561 868 q 379 901 446 901 q 295 892 333 901 q 229 863 257 883 q 185 813 201 843 q 169 739 169 782 q 186 664 169 694 q 233 611 203 633 q 303 571 263 589 q 390 533 343 553 q 498 486 447 510 q 586 431 549 463 q 646 353 624 399 q 668 240 668 307 q 577 44 668 110 q 331 -21 486 -21 q 229 -14 275 -21 q 147 3 183 -7 q 86 25 111 14 q 47 44 61 36 l 78 126 q 115 107 92 118 q 171 85 139 96 q 243 68 203 75 q 332 61 283 61 m 558 1219 l 321 1026 l 275 1079 l 494 1290 l 558 1219 z "},"ś":{"ha":594,"x_min":56,"x_max":539,"o":"m 267 64 q 395 90 344 64 q 446 176 446 115 q 437 226 446 206 q 407 264 428 247 q 352 296 386 281 q 268 332 318 311 q 192 366 228 349 q 128 406 156 383 q 83 461 100 429 q 67 539 67 493 q 133 681 67 626 q 314 735 199 735 q 435 722 388 735 q 503 700 483 710 l 482 619 q 426 642 465 628 q 310 656 386 656 q 252 649 279 656 q 204 630 225 643 q 171 597 183 617 q 158 547 158 576 q 169 497 158 518 q 202 460 181 476 q 255 431 224 444 q 326 400 286 417 q 406 366 368 383 q 474 324 444 349 q 521 266 503 300 q 539 181 539 232 q 466 33 539 83 q 267 -17 393 -17 q 122 -1 172 -17 q 56 24 72 15 l 79 106 q 97 97 83 103 q 135 83 111 90 q 191 69 158 75 q 267 64 224 64 m 482 1003 l 244 810 l 199 863 l 418 1074 l 482 1003 z "},"Ŝ":{"ha":718,"x_min":47,"x_max":668,"o":"m 332 61 q 507 102 444 61 q 569 235 569 143 q 549 323 569 288 q 496 383 529 358 q 419 424 463 407 q 329 461 376 442 q 222 510 269 485 q 142 566 175 535 q 91 638 108 597 q 74 732 74 678 q 156 919 74 856 q 383 983 238 983 q 460 978 422 983 q 530 963 497 972 q 590 943 563 954 q 635 919 617 932 l 601 840 q 503 885 561 868 q 379 901 446 901 q 295 892 333 901 q 229 863 257 883 q 185 813 201 843 q 169 739 169 782 q 186 664 169 694 q 233 611 203 633 q 303 571 263 589 q 390 533 343 553 q 498 486 447 510 q 586 431 549 463 q 646 353 624 399 q 668 240 668 307 q 577 44 668 110 q 331 -21 486 -21 q 229 -14 275 -21 q 147 3 183 -7 q 86 25 111 14 q 47 44 61 36 l 78 126 q 115 107 92 118 q 171 85 139 96 q 243 68 203 75 q 332 61 283 61 m 222 1028 l 183 1071 l 367 1275 l 550 1071 l 511 1028 l 367 1161 l 222 1028 z "},"ŝ":{"ha":594,"x_min":56,"x_max":539,"o":"m 267 64 q 395 90 344 64 q 446 176 446 115 q 437 226 446 206 q 407 264 428 247 q 352 296 386 281 q 268 332 318 311 q 192 366 228 349 q 128 406 156 383 q 83 461 100 429 q 67 539 67 493 q 133 681 67 626 q 314 735 199 735 q 435 722 388 735 q 503 700 483 710 l 482 619 q 426 642 465 628 q 310 656 386 656 q 252 649 279 656 q 204 630 225 643 q 171 597 183 617 q 158 547 158 576 q 169 497 158 518 q 202 460 181 476 q 255 431 224 444 q 326 400 286 417 q 406 366 368 383 q 474 324 444 349 q 521 266 503 300 q 539 181 539 232 q 466 33 539 83 q 267 -17 393 -17 q 122 -1 172 -17 q 56 24 72 15 l 79 106 q 97 97 83 103 q 135 83 111 90 q 191 69 158 75 q 267 64 224 64 m 146 811 l 107 854 l 290 1058 l 474 854 l 435 811 l 290 944 l 146 811 z "},"Ş":{"ha":718,"x_min":47,"x_max":668,"o":"m 367 -50 q 428 -91 406 -67 q 451 -156 451 -115 q 446 -191 451 -172 q 425 -225 440 -210 q 383 -250 410 -240 q 315 -260 357 -260 q 258 -255 288 -260 q 217 -243 229 -250 l 228 -183 q 263 -193 243 -190 q 310 -196 282 -196 q 367 -156 367 -196 q 347 -119 367 -132 q 286 -90 328 -107 q 299 -57 290 -75 q 317 -21 307 -39 q 220 -12 264 -19 q 142 5 176 -6 q 84 26 108 15 q 47 44 60 36 l 78 126 q 115 107 92 118 q 171 85 139 96 q 243 68 203 75 q 332 61 283 61 q 507 102 444 61 q 569 235 569 143 q 549 323 569 288 q 496 383 529 358 q 419 424 463 407 q 329 461 376 442 q 222 510 269 485 q 142 566 175 535 q 91 638 108 597 q 74 732 74 678 q 156 919 74 856 q 383 983 238 983 q 460 978 422 983 q 530 963 497 972 q 590 943 563 954 q 635 919 617 932 l 601 840 q 503 885 561 868 q 379 901 446 901 q 295 892 333 901 q 229 863 257 883 q 185 813 201 843 q 169 739 169 782 q 186 664 169 694 q 233 611 203 633 q 303 571 263 589 q 390 533 343 553 q 498 486 447 510 q 586 431 549 463 q 646 353 624 399 q 668 240 668 307 q 592 56 668 119 q 381 -18 515 -8 q 373 -35 376 -26 q 367 -50 369 -43 z "},"ş":{"ha":594,"x_min":56,"x_max":539,"o":"m 307 -50 q 369 -91 346 -67 q 392 -156 392 -115 q 386 -191 392 -172 q 365 -225 381 -210 q 324 -250 350 -240 q 256 -260 297 -260 q 199 -255 228 -260 q 157 -243 169 -250 l 168 -183 q 203 -193 183 -190 q 250 -196 222 -196 q 307 -156 307 -196 q 288 -119 307 -132 q 226 -90 268 -107 q 240 -55 232 -75 q 258 -17 249 -35 q 119 0 168 -15 q 56 24 71 15 l 79 106 q 97 97 83 103 q 135 83 111 90 q 191 69 158 75 q 267 64 224 64 q 395 90 344 64 q 446 176 446 115 q 437 226 446 206 q 407 264 428 247 q 352 296 386 281 q 268 332 318 311 q 192 366 228 349 q 128 406 156 383 q 83 461 100 429 q 67 539 67 493 q 133 681 67 626 q 314 735 199 735 q 435 722 388 735 q 503 700 483 710 l 482 619 q 426 642 465 628 q 310 656 386 656 q 252 649 279 656 q 204 630 225 643 q 171 597 183 617 q 158 547 158 576 q 169 497 158 518 q 202 460 181 476 q 255 431 224 444 q 326 400 286 417 q 406 366 368 383 q 474 324 444 349 q 521 266 503 300 q 539 181 539 232 q 481 46 539 94 q 324 -12 424 -3 q 307 -50 313 -33 z "},"Ţ":{"ha":761,"x_min":25,"x_max":736,"o":"m 390 -50 q 452 -91 429 -67 q 475 -156 475 -115 q 469 -191 475 -172 q 449 -225 464 -210 q 407 -250 433 -240 q 339 -260 381 -260 q 282 -255 311 -260 q 240 -243 253 -250 l 251 -183 q 286 -193 267 -190 q 333 -196 306 -196 q 390 -156 390 -196 q 371 -119 390 -132 q 310 -90 351 -107 q 328 -45 317 -71 q 350 0 339 -19 l 333 0 l 333 881 l 25 881 l 25 963 l 736 963 l 736 881 l 428 881 l 428 0 l 414 0 q 401 -26 407 -12 q 390 -50 394 -39 z "},"ţ":{"ha":538,"x_min":114,"x_max":521,"o":"m 338 -50 q 399 -91 376 -67 q 422 -156 422 -115 q 417 -191 422 -172 q 396 -225 411 -210 q 354 -250 381 -240 q 286 -260 328 -260 q 229 -255 258 -260 q 188 -243 200 -250 l 199 -183 q 233 -193 214 -190 q 281 -196 253 -196 q 338 -156 338 -196 q 318 -119 338 -132 q 257 -90 299 -107 q 269 -58 261 -76 q 286 -24 278 -40 q 292 -11 289 -17 q 235 1 260 -7 q 163 55 190 19 q 125 143 136 90 q 114 268 114 196 l 114 929 l 204 946 l 204 718 l 490 718 l 490 642 l 204 642 l 204 260 q 215 160 204 199 q 244 101 225 122 q 292 74 264 81 q 353 67 319 67 q 444 80 410 67 q 499 104 479 93 l 521 29 q 453 0 501 17 q 353 -15 407 -14 q 338 -50 343 -35 z "},"Ť":{"ha":761,"x_min":25,"x_max":736,"o":"m 736 963 l 736 881 l 428 881 l 428 0 l 333 0 l 333 881 l 25 881 l 25 963 l 736 963 m 376 1146 l 521 1279 l 560 1236 l 376 1032 l 193 1236 l 232 1279 l 376 1146 z "},"ť":{"ha":538,"x_min":114,"x_max":521,"o":"m 204 718 l 490 718 l 490 642 l 204 642 l 204 260 q 215 160 204 199 q 244 101 225 122 q 292 74 264 81 q 353 67 319 67 q 444 80 410 67 q 499 104 479 93 l 521 29 q 453 1 501 17 q 347 -15 404 -15 q 235 2 281 -15 q 163 55 190 19 q 125 143 136 90 q 114 268 114 196 l 114 929 l 204 946 l 204 718 m 399 1078 l 363 808 l 300 808 l 300 1078 l 399 1078 z "},"Ŧ":{"ha":761,"x_min":25,"x_max":736,"o":"m 736 963 l 736 881 l 428 881 l 428 532 l 600 532 l 600 457 l 428 457 l 428 0 l 333 0 l 333 457 l 161 457 l 161 532 l 333 532 l 333 881 l 25 881 l 25 963 l 736 963 z "},"ŧ":{"ha":538,"x_min":114,"x_max":521,"o":"m 204 718 l 490 718 l 490 642 l 204 642 l 204 414 l 485 414 l 485 340 l 204 340 l 204 260 q 215 160 204 199 q 244 101 225 122 q 292 74 264 81 q 353 67 319 67 q 444 80 410 67 q 499 104 479 93 l 521 29 q 453 1 501 17 q 347 -15 404 -15 q 235 2 281 -15 q 163 55 190 19 q 125 143 136 90 q 114 268 114 196 l 114 929 l 204 946 l 204 718 z "},"Ũ":{"ha":944,"x_min":121,"x_max":824,"o":"m 472 -21 q 309 8 376 -21 q 200 89 242 38 q 140 209 158 140 q 121 357 121 278 l 121 963 l 215 963 l 215 369 q 234 233 215 290 q 286 138 253 175 q 367 82 319 100 q 472 64 414 64 q 578 82 531 64 q 658 138 625 100 q 710 233 692 175 q 729 369 729 290 l 729 963 l 824 963 l 824 357 q 805 209 824 278 q 744 89 786 140 q 635 8 703 38 q 472 -21 568 -21 m 560 1090 q 504 1100 529 1090 q 456 1121 479 1110 q 413 1140 429 1135 q 382 1144 396 1144 q 336 1125 353 1144 q 306 1082 319 1106 l 253 1107 q 272 1143 260 1124 q 299 1179 283 1163 q 337 1207 315 1196 q 386 1218 358 1218 q 442 1208 417 1218 q 490 1188 467 1199 q 533 1169 517 1174 q 564 1164 550 1164 q 610 1183 593 1164 q 640 1226 626 1203 l 693 1201 q 674 1165 686 1185 q 647 1129 663 1146 q 609 1101 631 1113 q 560 1090 588 1090 z "},"ũ":{"ha":790,"x_min":111,"x_max":671,"o":"m 671 25 q 563 0 631 14 q 396 -14 494 -14 q 261 10 315 -14 q 174 76 207 33 q 126 181 140 119 q 111 315 111 242 l 111 718 l 201 718 l 201 344 q 213 215 201 268 q 249 130 224 163 q 313 83 274 97 q 410 68 353 68 q 521 75 474 68 q 581 88 568 82 l 581 718 l 671 718 l 671 25 m 478 874 q 422 883 447 874 q 374 904 397 893 q 331 923 347 918 q 300 928 314 928 q 254 908 271 928 q 224 865 238 889 l 171 890 q 190 926 178 907 q 217 963 201 946 q 255 990 233 979 q 304 1001 276 1001 q 360 992 335 1001 q 408 971 385 982 q 451 952 435 957 q 482 947 468 947 q 528 967 511 947 q 558 1010 544 986 l 611 985 q 592 949 604 968 q 565 913 581 929 q 527 885 549 896 q 478 874 506 874 z "},"Ū":{"ha":944,"x_min":121,"x_max":824,"o":"m 472 -21 q 309 8 376 -21 q 200 89 242 38 q 140 209 158 140 q 121 357 121 278 l 121 963 l 215 963 l 215 369 q 234 233 215 290 q 286 138 253 175 q 367 82 319 100 q 472 64 414 64 q 578 82 531 64 q 658 138 625 100 q 710 233 692 175 q 729 369 729 290 l 729 963 l 824 963 l 824 357 q 805 209 824 278 q 744 89 786 140 q 635 8 703 38 q 472 -21 568 -21 m 289 1118 l 289 1194 l 657 1194 l 657 1118 l 289 1118 z "},"ū":{"ha":790,"x_min":111,"x_max":671,"o":"m 671 25 q 563 0 631 14 q 396 -14 494 -14 q 261 10 315 -14 q 174 76 207 33 q 126 181 140 119 q 111 315 111 242 l 111 718 l 201 718 l 201 344 q 213 215 201 268 q 249 130 224 163 q 313 83 274 97 q 410 68 353 68 q 521 75 474 68 q 581 88 568 82 l 581 718 l 671 718 l 671 25 m 207 901 l 207 978 l 575 978 l 575 901 l 207 901 z "},"Ŭ":{"ha":944,"x_min":121,"x_max":824,"o":"m 472 -21 q 309 8 376 -21 q 200 89 242 38 q 140 209 158 140 q 121 357 121 278 l 121 963 l 215 963 l 215 369 q 234 233 215 290 q 286 138 253 175 q 367 82 319 100 q 472 64 414 64 q 578 82 531 64 q 658 138 625 100 q 710 233 692 175 q 729 369 729 290 l 729 963 l 824 963 l 824 357 q 805 209 824 278 q 744 89 786 140 q 635 8 703 38 q 472 -21 568 -21 m 472 1068 q 408 1079 439 1068 q 352 1113 376 1090 q 315 1169 328 1135 q 303 1253 301 1204 l 363 1253 q 366 1225 363 1243 q 381 1190 369 1207 q 413 1159 392 1172 q 472 1146 435 1146 q 531 1159 510 1146 q 564 1190 553 1172 q 578 1225 575 1207 q 582 1253 582 1243 l 642 1253 q 630 1169 643 1204 q 592 1113 617 1135 q 537 1079 568 1090 q 472 1068 506 1068 z "},"ŭ":{"ha":790,"x_min":111,"x_max":671,"o":"m 671 25 q 563 0 631 14 q 396 -14 494 -14 q 261 10 315 -14 q 174 76 207 33 q 126 181 140 119 q 111 315 111 242 l 111 718 l 201 718 l 201 344 q 213 215 201 268 q 249 130 224 163 q 313 83 274 97 q 410 68 353 68 q 521 75 474 68 q 581 88 568 82 l 581 718 l 671 718 l 671 25 m 390 851 q 326 863 357 851 q 270 896 294 874 q 233 953 246 918 q 221 1036 219 988 l 281 1036 q 284 1008 281 1026 q 299 973 288 990 q 331 942 310 956 q 390 929 353 929 q 449 942 428 929 q 482 973 471 956 q 497 1008 493 990 q 500 1036 500 1026 l 560 1036 q 548 953 561 988 q 510 896 535 918 q 455 863 486 874 q 390 851 424 851 z "},"Ů":{"ha":944,"x_min":121,"x_max":824,"o":"m 472 -21 q 309 8 376 -21 q 200 89 242 38 q 140 209 158 140 q 121 357 121 278 l 121 963 l 215 963 l 215 369 q 234 233 215 290 q 286 138 253 175 q 367 82 319 100 q 472 64 414 64 q 578 82 531 64 q 658 138 625 100 q 710 233 692 175 q 729 369 729 290 l 729 963 l 824 963 l 824 357 q 805 209 824 278 q 744 89 786 140 q 635 8 703 38 q 472 -21 568 -21 m 606 1156 q 595 1101 606 1125 q 567 1059 585 1076 q 524 1032 549 1042 q 474 1022 500 1022 q 380 1058 419 1022 q 340 1156 340 1094 q 380 1251 340 1215 q 474 1288 419 1288 q 524 1278 500 1288 q 567 1251 549 1268 q 595 1209 585 1233 q 606 1156 606 1185 m 553 1156 q 530 1216 553 1194 q 474 1238 507 1238 q 417 1216 440 1238 q 394 1156 394 1194 q 417 1094 394 1115 q 474 1074 440 1074 q 530 1094 507 1074 q 553 1156 553 1115 z "},"ů":{"ha":790,"x_min":111,"x_max":671,"o":"m 671 25 q 563 0 631 14 q 396 -14 494 -14 q 261 10 315 -14 q 174 76 207 33 q 126 181 140 119 q 111 315 111 242 l 111 718 l 201 718 l 201 344 q 213 215 201 268 q 249 130 224 163 q 313 83 274 97 q 410 68 353 68 q 521 75 474 68 q 581 88 568 82 l 581 718 l 671 718 l 671 25 m 524 939 q 513 884 524 908 q 485 842 503 860 q 442 815 467 825 q 392 806 418 806 q 298 842 338 806 q 258 939 258 878 q 298 1035 258 999 q 392 1071 338 1071 q 442 1061 418 1071 q 485 1034 467 1051 q 513 992 503 1017 q 524 939 524 968 m 471 939 q 448 999 471 978 q 392 1021 425 1021 q 335 999 358 1021 q 313 939 313 978 q 335 878 313 899 q 392 857 358 857 q 448 878 425 857 q 471 939 471 899 z "},"Ű":{"ha":944,"x_min":121,"x_max":824,"o":"m 472 -21 q 309 8 376 -21 q 200 89 242 38 q 140 209 158 140 q 121 357 121 278 l 121 963 l 215 963 l 215 369 q 234 233 215 290 q 286 138 253 175 q 367 82 319 100 q 472 64 414 64 q 578 82 531 64 q 658 138 625 100 q 710 233 692 175 q 729 369 729 290 l 729 963 l 824 963 l 824 357 q 805 209 824 278 q 744 89 786 140 q 635 8 703 38 q 472 -21 568 -21 m 546 1232 l 371 1025 l 317 1065 l 482 1290 l 546 1232 m 764 1232 l 589 1025 l 535 1065 l 700 1290 l 764 1232 z "},"ű":{"ha":790,"x_min":111,"x_max":682,"o":"m 671 25 q 563 0 631 14 q 396 -14 494 -14 q 261 10 315 -14 q 174 76 207 33 q 126 181 140 119 q 111 315 111 242 l 111 718 l 201 718 l 201 344 q 213 215 201 268 q 249 130 224 163 q 313 83 274 97 q 410 68 353 68 q 521 75 474 68 q 581 88 568 82 l 581 718 l 671 718 l 671 25 m 464 1015 l 289 808 l 235 849 l 400 1074 l 464 1015 m 682 1015 l 507 808 l 453 849 l 618 1074 l 682 1015 z "},"Ų":{"ha":944,"x_min":121,"x_max":824,"o":"m 501 -19 q 486 -21 493 -21 q 472 -21 479 -21 q 309 8 376 -21 q 200 89 242 38 q 140 209 158 140 q 121 357 121 278 l 121 963 l 215 963 l 215 369 q 234 233 215 290 q 286 138 253 175 q 367 82 319 100 q 472 64 414 64 q 578 82 531 64 q 658 138 625 100 q 710 233 692 175 q 729 369 729 290 l 729 963 l 824 963 l 824 357 q 788 161 824 249 q 671 26 753 74 q 615 -8 643 11 q 561 -53 586 -26 q 526 -97 539 -76 q 513 -140 513 -117 q 529 -176 513 -165 q 571 -187 546 -187 q 598 -185 583 -187 q 624 -179 613 -183 l 631 -246 q 598 -254 619 -250 q 556 -258 576 -258 q 450 -231 481 -258 q 419 -161 419 -204 q 443 -84 419 -118 q 501 -19 467 -50 z "},"ų":{"ha":790,"x_min":111,"x_max":671,"o":"m 572 1 q 492 -9 536 -4 q 396 -14 449 -14 q 261 10 315 -14 q 174 76 207 33 q 126 181 140 119 q 111 315 111 242 l 111 718 l 201 718 l 201 344 q 213 215 201 268 q 249 130 224 163 q 313 83 274 97 q 410 68 353 68 q 521 75 474 68 q 581 88 568 82 l 581 718 l 671 718 l 671 18 q 638 -13 654 4 q 601 -50 621 -31 q 566 -95 579 -74 q 553 -140 553 -117 q 569 -176 553 -165 q 611 -187 586 -187 q 638 -185 624 -187 q 664 -179 653 -183 l 671 -246 q 638 -254 660 -250 q 596 -258 617 -258 q 490 -231 521 -258 q 460 -161 460 -204 q 494 -69 460 -108 q 572 1 528 -31 z "},"Ŵ":{"ha":1279,"x_min":50,"x_max":1229,"o":"m 682 844 q 816 440 749 621 q 947 107 883 258 q 1044 493 996 271 q 1136 963 1092 715 l 1229 963 q 1178 684 1204 814 q 1125 437 1153 554 q 1067 212 1097 319 q 1000 0 1036 104 l 899 0 q 833 158 865 79 q 768 322 800 238 q 704 497 736 406 q 639 692 672 589 q 573 497 606 589 q 508 322 540 406 q 444 158 476 238 q 378 0 411 79 l 278 0 q 209 212 240 104 q 151 437 178 319 q 99 684 124 554 q 50 963 75 814 l 147 963 q 190 723 168 840 q 237 496 213 606 q 287 288 261 386 q 338 107 313 190 q 465 441 397 261 q 600 844 533 621 l 682 844 m 494 1028 l 456 1071 l 639 1275 l 822 1071 l 783 1028 l 639 1161 l 494 1028 z "},"ŵ":{"ha":1076,"x_min":32,"x_max":1044,"o":"m 582 718 q 615 570 594 649 q 659 410 635 492 q 710 250 683 329 q 765 101 738 171 q 815 230 789 154 q 868 390 842 306 q 917 559 894 474 q 956 718 940 644 l 1044 718 q 935 332 994 507 q 806 0 876 157 l 721 0 q 677 109 700 49 q 630 238 654 169 q 583 383 606 307 q 539 538 560 458 q 495 383 518 458 q 448 238 472 307 q 401 109 424 169 q 357 0 378 49 l 271 0 q 141 332 200 157 q 32 718 82 507 l 128 718 q 166 559 143 644 q 215 390 189 474 q 269 231 242 306 q 319 103 296 156 q 373 251 346 172 q 424 411 400 331 q 468 570 447 492 q 504 718 489 649 l 582 718 m 396 811 l 357 854 l 540 1058 l 724 854 l 685 811 l 540 944 l 396 811 z "},"Ŷ":{"ha":790,"x_min":14,"x_max":776,"o":"m 349 0 l 349 396 q 167 688 250 547 q 14 963 85 829 l 124 963 q 252 715 182 840 q 399 475 322 589 q 543 715 472 589 q 674 963 614 840 l 776 963 q 621 688 703 831 q 443 399 539 546 l 443 0 l 349 0 m 251 1028 l 213 1071 l 396 1275 l 579 1071 l 540 1028 l 396 1161 l 251 1028 z "},"ŷ":{"ha":658,"x_min":1,"x_max":626,"o":"m 315 -15 q 227 161 269 69 q 148 347 185 253 q 81 534 111 440 q 28 718 50 628 l 124 718 q 163 574 139 651 q 216 415 186 497 q 282 247 246 333 q 360 78 318 161 q 414 240 390 164 q 458 392 438 317 q 497 547 478 468 q 536 718 515 626 l 626 718 q 525 326 582 517 q 401 -22 468 136 q 347 -130 375 -85 q 285 -204 319 -175 q 206 -247 251 -233 q 100 -261 161 -261 q 37 -253 65 -261 q 1 -240 8 -244 l 19 -165 q 51 -177 25 -169 q 104 -185 76 -185 q 174 -176 143 -185 q 231 -148 206 -168 q 276 -96 256 -128 q 315 -15 296 -64 m 200 811 l 161 854 l 344 1058 l 528 854 l 489 811 l 344 944 l 200 811 z "},"Ź":{"ha":778,"x_min":53,"x_max":722,"o":"m 708 876 q 631 782 675 838 q 538 660 588 726 q 435 520 488 594 q 333 370 383 446 q 237 221 282 294 q 156 82 192 147 l 722 82 l 722 0 l 53 0 l 53 71 q 126 202 83 131 q 217 349 168 274 q 318 501 265 425 q 422 648 371 578 q 520 778 474 718 q 606 881 567 838 l 79 881 l 79 963 l 708 963 l 708 876 m 590 1219 l 353 1026 l 307 1079 l 526 1290 l 590 1219 z "},"ź":{"ha":632,"x_min":53,"x_max":578,"o":"m 565 644 q 482 544 533 608 q 372 402 431 481 q 257 238 314 324 q 157 76 200 153 l 578 76 l 578 0 l 53 0 l 53 65 q 142 215 89 133 q 253 377 196 297 q 364 527 310 457 q 456 642 418 597 l 74 642 l 74 718 l 565 718 l 565 644 m 504 1003 l 267 810 l 221 863 l 440 1074 l 504 1003 z "},"Ż":{"ha":778,"x_min":53,"x_max":722,"o":"m 708 876 q 631 782 675 838 q 538 660 588 726 q 435 520 488 594 q 333 370 383 446 q 237 221 282 294 q 156 82 192 147 l 722 82 l 722 0 l 53 0 l 53 71 q 126 202 83 131 q 217 349 168 274 q 318 501 265 425 q 422 648 371 578 q 520 778 474 718 q 606 881 567 838 l 79 881 l 79 963 l 708 963 l 708 876 m 399 1082 q 351 1101 371 1082 q 332 1151 332 1119 q 351 1202 332 1183 q 399 1221 371 1221 q 446 1202 426 1221 q 465 1151 465 1183 q 446 1101 465 1119 q 399 1082 426 1082 z "},"ż":{"ha":632,"x_min":53,"x_max":578,"o":"m 565 644 q 482 544 533 608 q 372 402 431 481 q 257 238 314 324 q 157 76 200 153 l 578 76 l 578 0 l 53 0 l 53 65 q 142 215 89 133 q 253 377 196 297 q 364 527 310 457 q 456 642 418 597 l 74 642 l 74 718 l 565 718 l 565 644 m 313 865 q 265 884 285 865 q 246 935 246 903 q 265 985 246 967 q 313 1004 285 1004 q 360 985 340 1004 q 379 935 379 967 q 360 884 379 903 q 313 865 340 865 z "},"Ž":{"ha":778,"x_min":53,"x_max":722,"o":"m 708 876 q 631 782 675 838 q 538 660 588 726 q 435 520 488 594 q 333 370 383 446 q 237 221 282 294 q 156 82 192 147 l 722 82 l 722 0 l 53 0 l 53 71 q 126 202 83 131 q 217 349 168 274 q 318 501 265 425 q 422 648 371 578 q 520 778 474 718 q 606 881 567 838 l 79 881 l 79 963 l 708 963 l 708 876 m 399 1146 l 543 1279 l 582 1236 l 399 1032 l 215 1236 l 254 1279 l 399 1146 z "},"ž":{"ha":632,"x_min":53,"x_max":578,"o":"m 565 644 q 482 544 533 608 q 372 402 431 481 q 257 238 314 324 q 157 76 200 153 l 578 76 l 578 0 l 53 0 l 53 65 q 142 215 89 133 q 253 377 196 297 q 364 527 310 457 q 456 642 418 597 l 74 642 l 74 718 l 565 718 l 565 644 m 313 929 l 457 1063 l 496 1019 l 313 815 l 129 1019 l 168 1063 l 313 929 z "},"ſ":{"ha":343,"x_min":119,"x_max":526,"o":"m 210 0 l 119 0 l 119 796 q 184 1007 119 936 q 383 1078 249 1078 q 478 1069 442 1078 q 526 1053 515 1060 l 508 975 q 463 990 493 982 q 388 997 433 997 q 251 949 292 997 q 210 793 210 900 l 210 0 z "},"Ș":{"ha":718,"x_min":47,"x_max":668,"o":"m 332 61 q 507 102 444 61 q 569 235 569 143 q 549 323 569 288 q 496 383 529 358 q 419 424 463 407 q 329 461 376 442 q 222 510 269 485 q 142 566 175 535 q 91 638 108 597 q 74 732 74 678 q 156 919 74 856 q 383 983 238 983 q 460 978 422 983 q 530 963 497 972 q 590 943 563 954 q 635 919 617 932 l 601 840 q 503 885 561 868 q 379 901 446 901 q 295 892 333 901 q 229 863 257 883 q 185 813 201 843 q 169 739 169 782 q 186 664 169 694 q 233 611 203 633 q 303 571 263 589 q 390 533 343 553 q 498 486 447 510 q 586 431 549 463 q 646 353 624 399 q 668 240 668 307 q 577 44 668 110 q 331 -21 486 -21 q 229 -14 275 -21 q 147 3 183 -7 q 86 25 111 14 q 47 44 61 36 l 78 126 q 115 107 92 118 q 171 85 139 96 q 243 68 203 75 q 332 61 283 61 m 318 -94 l 318 -76 l 407 -76 q 408 -89 408 -82 q 408 -100 408 -96 q 367 -217 408 -175 q 258 -258 325 -258 q 235 -257 247 -258 q 215 -253 222 -256 l 215 -193 q 297 -169 275 -193 q 318 -94 318 -146 z "},"ș":{"ha":594,"x_min":56,"x_max":539,"o":"m 267 64 q 395 90 344 64 q 446 176 446 115 q 437 226 446 206 q 407 264 428 247 q 352 296 386 281 q 268 332 318 311 q 192 366 228 349 q 128 406 156 383 q 83 461 100 429 q 67 539 67 493 q 133 681 67 626 q 314 735 199 735 q 435 722 388 735 q 503 700 483 710 l 482 619 q 426 642 465 628 q 310 656 386 656 q 252 649 279 656 q 204 630 225 643 q 171 597 183 617 q 158 547 158 576 q 169 497 158 518 q 202 460 181 476 q 255 431 224 444 q 326 400 286 417 q 406 366 368 383 q 474 324 444 349 q 521 266 503 300 q 539 181 539 232 q 466 33 539 83 q 267 -17 393 -17 q 122 -1 172 -17 q 56 24 72 15 l 79 106 q 97 97 83 103 q 135 83 111 90 q 191 69 158 75 q 267 64 224 64 m 254 -94 l 254 -76 l 343 -76 q 344 -89 344 -82 q 344 -100 344 -96 q 303 -217 344 -175 q 194 -258 261 -258 q 171 -257 183 -258 q 151 -253 158 -256 l 151 -193 q 233 -169 211 -193 q 254 -94 254 -146 z "},"Ț":{"ha":761,"x_min":25,"x_max":736,"o":"m 736 963 l 736 881 l 428 881 l 428 0 l 333 0 l 333 881 l 25 881 l 25 963 l 736 963 m 332 -94 l 332 -76 l 421 -76 q 422 -89 422 -82 q 422 -100 422 -96 q 381 -217 422 -175 q 272 -258 339 -258 q 249 -257 261 -258 q 229 -253 236 -256 l 229 -193 q 310 -169 289 -193 q 332 -94 332 -146 z "},"ț":{"ha":538,"x_min":114,"x_max":521,"o":"m 204 718 l 490 718 l 490 642 l 204 642 l 204 260 q 215 160 204 199 q 244 101 225 122 q 292 74 264 81 q 353 67 319 67 q 444 80 410 67 q 499 104 479 93 l 521 29 q 453 1 501 17 q 347 -15 404 -15 q 235 2 281 -15 q 163 55 190 19 q 125 143 136 90 q 114 268 114 196 l 114 929 l 204 946 l 204 718 m 278 -94 l 278 -76 l 367 -76 q 368 -89 368 -82 q 368 -100 368 -96 q 326 -217 368 -175 q 218 -258 285 -258 q 194 -257 207 -258 q 175 -253 182 -256 l 175 -193 q 256 -169 235 -193 q 278 -94 278 -146 z "},"ȷ":{"ha":329,"x_min":-87,"x_max":210,"o":"m -15 -260 q -53 -256 -31 -260 q -87 -246 -76 -251 l -75 -172 q -49 -178 -65 -175 q -17 -181 -32 -181 q 92 -135 65 -181 q 119 3 119 -89 l 119 718 l 210 718 l 210 7 q 158 -194 210 -129 q -15 -260 107 -260 z "},"ʼ":{"ha":522,"x_min":172,"x_max":326,"o":"m 326 1078 q 301 925 326 990 q 235 790 276 860 l 172 819 q 212 922 196 868 q 228 1029 228 976 q 227 1056 228 1042 q 225 1078 226 1071 l 326 1078 z "},"ˇ":{"ha":522,"x_min":78,"x_max":444,"o":"m 261 929 l 406 1063 l 444 1019 l 261 815 l 78 1019 l 117 1063 l 261 929 z "},"ˉ":{"ha":522,"x_min":78,"x_max":446,"o":"m 78 901 l 78 978 l 446 978 l 446 901 l 78 901 z "},"˘":{"ha":522,"x_min":90,"x_max":432,"o":"m 261 851 q 197 863 228 851 q 141 896 165 874 q 103 953 117 918 q 92 1036 90 988 l 151 1036 q 155 1008 151 1026 q 169 973 158 990 q 202 942 181 956 q 261 929 224 929 q 320 942 299 929 q 353 973 342 956 q 367 1008 364 990 q 371 1036 371 1026 l 431 1036 q 419 953 432 988 q 381 896 406 918 q 326 863 357 874 q 261 851 294 851 z "},"˙":{"ha":522,"x_min":194,"x_max":328,"o":"m 261 865 q 214 884 233 865 q 194 935 194 903 q 214 985 194 967 q 261 1004 233 1004 q 308 985 289 1004 q 328 935 328 967 q 308 884 328 903 q 261 865 289 865 z "},"˚":{"ha":522,"x_min":128,"x_max":393,"o":"m 393 939 q 383 884 393 908 q 354 842 372 860 q 312 815 336 825 q 261 806 288 806 q 167 842 207 806 q 128 939 128 878 q 167 1035 128 999 q 261 1071 207 1071 q 312 1061 288 1071 q 354 1034 336 1051 q 383 992 372 1017 q 393 939 393 968 m 340 939 q 317 999 340 978 q 261 1021 294 1021 q 205 999 228 1021 q 182 939 182 978 q 205 878 182 899 q 261 857 228 857 q 317 878 294 857 q 340 939 340 899 z "},"˛":{"ha":522,"x_min":110,"x_max":325,"o":"m 246 -258 q 140 -231 171 -258 q 110 -161 110 -204 q 133 -85 110 -118 q 186 -24 156 -51 q 208 -5 197 -14 q 229 11 218 4 l 325 11 q 290 -17 308 -1 q 251 -53 271 -32 q 216 -97 229 -76 q 203 -140 203 -117 q 219 -176 203 -165 q 261 -187 236 -187 q 288 -185 274 -187 q 314 -179 303 -183 l 321 -246 q 288 -254 310 -250 q 246 -258 267 -258 z "},"˝":{"ha":522,"x_min":35,"x_max":482,"o":"m 264 1015 l 89 808 l 35 849 l 200 1074 l 264 1015 m 482 1015 l 307 808 l 253 849 l 418 1074 l 482 1015 z "},"Ẁ":{"ha":1279,"x_min":50,"x_max":1229,"o":"m 682 844 q 816 440 749 621 q 947 107 883 258 q 1044 493 996 271 q 1136 963 1092 715 l 1229 963 q 1178 684 1204 814 q 1125 437 1153 554 q 1067 212 1097 319 q 1000 0 1036 104 l 899 0 q 833 158 865 79 q 768 322 800 238 q 704 497 736 406 q 639 692 672 589 q 573 497 606 589 q 508 322 540 406 q 444 158 476 238 q 378 0 411 79 l 278 0 q 209 212 240 104 q 151 437 178 319 q 99 684 124 554 q 50 963 75 814 l 147 963 q 190 723 168 840 q 237 496 213 606 q 287 288 261 386 q 338 107 313 190 q 465 441 397 261 q 600 844 533 621 l 682 844 m 511 1290 l 731 1079 l 685 1026 l 447 1219 l 511 1290 z "},"ẁ":{"ha":1076,"x_min":32,"x_max":1044,"o":"m 582 718 q 615 570 594 649 q 659 410 635 492 q 710 250 683 329 q 765 101 738 171 q 815 230 789 154 q 868 390 842 306 q 917 559 894 474 q 956 718 940 644 l 1044 718 q 935 332 994 507 q 806 0 876 157 l 721 0 q 677 109 700 49 q 630 238 654 169 q 583 383 606 307 q 539 538 560 458 q 495 383 518 458 q 448 238 472 307 q 401 109 424 169 q 357 0 378 49 l 271 0 q 141 332 200 157 q 32 718 82 507 l 128 718 q 166 559 143 644 q 215 390 189 474 q 269 231 242 306 q 319 103 296 156 q 373 251 346 172 q 424 411 400 331 q 468 570 447 492 q 504 718 489 649 l 582 718 m 413 1074 l 632 863 l 586 810 l 349 1003 l 413 1074 z "},"Ẃ":{"ha":1279,"x_min":50,"x_max":1229,"o":"m 682 844 q 816 440 749 621 q 947 107 883 258 q 1044 493 996 271 q 1136 963 1092 715 l 1229 963 q 1178 684 1204 814 q 1125 437 1153 554 q 1067 212 1097 319 q 1000 0 1036 104 l 899 0 q 833 158 865 79 q 768 322 800 238 q 704 497 736 406 q 639 692 672 589 q 573 497 606 589 q 508 322 540 406 q 444 158 476 238 q 378 0 411 79 l 278 0 q 209 212 240 104 q 151 437 178 319 q 99 684 124 554 q 50 963 75 814 l 147 963 q 190 723 168 840 q 237 496 213 606 q 287 288 261 386 q 338 107 313 190 q 465 441 397 261 q 600 844 533 621 l 682 844 m 831 1219 l 593 1026 l 547 1079 l 767 1290 l 831 1219 z "},"ẃ":{"ha":1076,"x_min":32,"x_max":1044,"o":"m 582 718 q 615 570 594 649 q 659 410 635 492 q 710 250 683 329 q 765 101 738 171 q 815 230 789 154 q 868 390 842 306 q 917 559 894 474 q 956 718 940 644 l 1044 718 q 935 332 994 507 q 806 0 876 157 l 721 0 q 677 109 700 49 q 630 238 654 169 q 583 383 606 307 q 539 538 560 458 q 495 383 518 458 q 448 238 472 307 q 401 109 424 169 q 357 0 378 49 l 271 0 q 141 332 200 157 q 32 718 82 507 l 128 718 q 166 559 143 644 q 215 390 189 474 q 269 231 242 306 q 319 103 296 156 q 373 251 346 172 q 424 411 400 331 q 468 570 447 492 q 504 718 489 649 l 582 718 m 732 1003 l 494 810 l 449 863 l 668 1074 l 732 1003 z "},"Ẅ":{"ha":1279,"x_min":50,"x_max":1229,"o":"m 682 844 q 816 440 749 621 q 947 107 883 258 q 1044 493 996 271 q 1136 963 1092 715 l 1229 963 q 1178 684 1204 814 q 1125 437 1153 554 q 1067 212 1097 319 q 1000 0 1036 104 l 899 0 q 833 158 865 79 q 768 322 800 238 q 704 497 736 406 q 639 692 672 589 q 573 497 606 589 q 508 322 540 406 q 444 158 476 238 q 378 0 411 79 l 278 0 q 209 212 240 104 q 151 437 178 319 q 99 684 124 554 q 50 963 75 814 l 147 963 q 190 723 168 840 q 237 496 213 606 q 287 288 261 386 q 338 107 313 190 q 465 441 397 261 q 600 844 533 621 l 682 844 m 583 1151 q 565 1103 583 1121 q 519 1085 547 1085 q 474 1103 492 1085 q 456 1151 456 1121 q 474 1200 456 1182 q 519 1218 492 1218 q 565 1200 547 1218 q 583 1151 583 1182 m 822 1151 q 804 1103 822 1121 q 758 1085 786 1085 q 713 1103 731 1085 q 694 1151 694 1121 q 713 1200 694 1182 q 758 1218 731 1218 q 804 1200 786 1218 q 822 1151 822 1182 z "},"ẅ":{"ha":1076,"x_min":32,"x_max":1044,"o":"m 582 718 q 615 570 594 649 q 659 410 635 492 q 710 250 683 329 q 765 101 738 171 q 815 230 789 154 q 868 390 842 306 q 917 559 894 474 q 956 718 940 644 l 1044 718 q 935 332 994 507 q 806 0 876 157 l 721 0 q 677 109 700 49 q 630 238 654 169 q 583 383 606 307 q 539 538 560 458 q 495 383 518 458 q 448 238 472 307 q 401 109 424 169 q 357 0 378 49 l 271 0 q 141 332 200 157 q 32 718 82 507 l 128 718 q 166 559 143 644 q 215 390 189 474 q 269 231 242 306 q 319 103 296 156 q 373 251 346 172 q 424 411 400 331 q 468 570 447 492 q 504 718 489 649 l 582 718 m 485 935 q 467 886 485 904 q 421 868 449 868 q 375 886 393 868 q 357 935 357 904 q 375 983 357 965 q 421 1001 393 1001 q 467 983 449 1001 q 485 935 485 965 m 724 935 q 706 886 724 904 q 660 868 688 868 q 614 886 632 868 q 596 935 596 904 q 614 983 596 965 q 660 1001 632 1001 q 706 983 688 1001 q 724 935 724 965 z "},"Ỳ":{"ha":790,"x_min":14,"x_max":776,"o":"m 349 0 l 349 396 q 167 688 250 547 q 14 963 85 829 l 124 963 q 252 715 182 840 q 399 475 322 589 q 543 715 472 589 q 674 963 614 840 l 776 963 q 621 688 703 831 q 443 399 539 546 l 443 0 l 349 0 m 268 1290 l 488 1079 l 442 1026 l 204 1219 l 268 1290 z "},"ỳ":{"ha":658,"x_min":1,"x_max":626,"o":"m 315 -15 q 227 161 269 69 q 148 347 185 253 q 81 534 111 440 q 28 718 50 628 l 124 718 q 163 574 139 651 q 216 415 186 497 q 282 247 246 333 q 360 78 318 161 q 414 240 390 164 q 458 392 438 317 q 497 547 478 468 q 536 718 515 626 l 626 718 q 525 326 582 517 q 401 -22 468 136 q 347 -130 375 -85 q 285 -204 319 -175 q 206 -247 251 -233 q 100 -261 161 -261 q 37 -253 65 -261 q 1 -240 8 -244 l 19 -165 q 51 -177 25 -169 q 104 -185 76 -185 q 174 -176 143 -185 q 231 -148 206 -168 q 276 -96 256 -128 q 315 -15 296 -64 m 217 1074 l 436 863 l 390 810 l 153 1003 l 217 1074 z "},"⁄":{"ha":206,"x_min":-218,"x_max":422,"o":"m 331 963 l 422 963 l -126 0 l -218 0 l 331 963 z "},"⁰":{"ha":499,"x_min":50,"x_max":447,"o":"m 249 983 q 392 913 336 983 q 447 706 447 843 q 392 498 447 568 q 249 428 336 428 q 106 498 161 428 q 50 706 50 568 q 106 913 50 843 q 249 983 161 983 m 249 496 q 306 513 283 496 q 343 558 329 529 q 363 624 357 586 q 368 706 368 663 q 363 787 368 749 q 343 853 357 825 q 306 899 329 882 q 249 915 283 915 q 191 899 214 915 q 154 853 168 882 q 135 787 140 825 q 129 706 129 749 q 135 624 129 663 q 154 558 140 586 q 191 513 168 529 q 249 496 214 496 z "},"⁴":{"ha":499,"x_min":46,"x_max":451,"o":"m 451 635 l 451 574 l 381 574 l 381 440 l 307 440 l 307 574 l 46 574 l 46 619 q 88 693 60 647 q 153 790 117 739 q 233 890 190 842 q 315 971 275 939 l 381 971 l 381 635 l 451 635 m 307 635 l 307 883 q 257 828 283 860 q 206 762 231 796 q 160 694 182 728 q 125 635 139 660 l 307 635 z "},"⁵":{"ha":499,"x_min":64,"x_max":424,"o":"m 424 590 q 373 474 424 519 q 208 429 322 429 q 125 439 167 429 q 64 460 83 449 l 79 524 q 101 515 88 519 q 133 505 115 510 q 171 497 151 500 q 208 493 190 493 q 278 501 251 493 q 320 524 306 510 q 340 554 335 538 q 346 588 346 571 q 337 633 346 611 q 302 671 328 654 q 228 697 276 688 q 101 707 181 707 q 118 836 111 776 q 128 971 125 896 l 397 971 l 397 904 l 192 904 q 186 837 189 872 q 176 767 183 801 q 364 715 304 758 q 424 590 424 672 z "},"⁶":{"ha":499,"x_min":64,"x_max":443,"o":"m 150 744 q 206 763 179 758 q 253 767 233 767 q 342 753 306 767 q 401 717 379 740 q 433 665 424 694 q 443 604 443 636 q 432 542 443 574 q 399 485 421 511 q 341 444 376 460 q 258 428 306 428 q 111 489 158 428 q 64 654 64 550 q 153 890 64 810 q 397 975 243 969 l 406 910 q 233 864 301 907 q 150 744 164 821 m 142 685 q 140 672 140 678 q 140 660 140 665 q 146 593 140 624 q 165 540 151 563 q 200 504 178 517 q 257 492 222 492 q 306 501 286 492 q 340 526 326 511 q 359 561 353 542 q 365 600 365 581 q 338 680 365 656 q 254 704 311 704 q 193 699 224 704 q 142 685 163 694 z "},"⁷":{"ha":499,"x_min":63,"x_max":439,"o":"m 213 440 l 139 440 q 163 560 143 494 q 213 690 183 626 q 277 810 242 754 q 346 901 313 867 l 63 901 l 63 971 l 439 971 l 439 914 q 373 835 410 886 q 301 720 336 785 q 242 583 267 656 q 213 440 217 511 z "},"⁸":{"ha":499,"x_min":58,"x_max":439,"o":"m 439 583 q 388 472 439 515 q 247 428 336 428 q 161 440 197 428 q 102 474 125 453 q 69 522 79 494 q 58 576 58 549 q 87 661 58 629 q 151 713 115 693 q 97 759 119 729 q 74 838 74 789 q 87 894 74 868 q 123 941 100 921 q 178 972 146 961 q 247 983 210 983 q 324 972 292 983 q 378 941 357 960 q 410 897 400 922 q 421 847 421 872 q 397 767 421 799 q 340 714 374 736 q 417 656 394 692 q 439 583 439 621 m 131 585 q 135 553 131 569 q 153 522 140 536 q 190 499 167 508 q 247 490 213 490 q 338 518 311 490 q 364 578 364 546 q 326 645 364 618 q 204 690 289 672 q 151 648 171 674 q 131 585 131 622 m 349 843 q 324 898 349 874 q 247 922 299 922 q 172 899 199 922 q 146 839 146 875 q 177 774 146 797 q 282 733 208 751 q 333 781 317 756 q 349 843 349 807 z "},"⁹":{"ha":499,"x_min":56,"x_max":435,"o":"m 349 669 q 292 651 319 656 q 246 647 265 647 q 156 660 193 647 q 97 696 119 674 q 65 747 75 718 q 56 808 56 776 q 67 870 56 839 q 100 926 78 901 q 157 967 122 951 q 240 983 192 983 q 388 922 340 983 q 435 757 435 861 q 345 521 435 604 q 85 436 256 438 l 82 501 q 269 547 200 501 q 349 669 338 593 m 244 710 q 306 715 275 710 q 357 729 336 719 q 358 742 358 736 q 358 754 358 749 q 334 873 358 826 q 242 919 310 919 q 192 910 213 919 q 159 886 172 901 q 140 851 146 871 q 133 813 133 832 q 160 733 133 757 q 244 710 188 710 z "},"₀":{"ha":499,"x_min":50,"x_max":447,"o":"m 249 544 q 392 474 336 544 q 447 267 447 404 q 392 59 447 129 q 249 -11 336 -11 q 106 59 161 -11 q 50 267 50 129 q 106 474 50 404 q 249 544 161 544 m 249 57 q 306 74 283 57 q 343 119 329 90 q 363 185 357 147 q 368 267 368 224 q 363 348 368 310 q 343 415 357 386 q 306 460 329 443 q 249 476 283 476 q 191 460 214 476 q 154 415 168 443 q 135 348 140 386 q 129 267 129 310 q 135 185 129 224 q 154 119 140 147 q 191 74 168 90 q 249 57 214 57 z "},"₁":{"ha":499,"x_min":85,"x_max":317,"o":"m 103 364 l 85 422 q 182 465 133 438 q 265 532 231 492 l 317 532 l 317 1 l 242 1 l 242 424 q 206 403 226 413 q 167 385 186 393 q 130 371 147 376 q 103 364 113 365 z "},"₂":{"ha":499,"x_min":60,"x_max":421,"o":"m 394 394 q 384 340 394 365 q 357 294 374 315 q 319 253 340 272 q 274 215 297 233 q 215 164 238 186 q 178 125 192 142 q 160 94 165 108 q 156 68 156 81 l 421 68 l 421 1 l 76 1 q 75 15 75 8 q 75 29 75 22 q 89 103 75 71 q 124 163 103 136 q 172 213 146 190 q 224 260 199 236 q 260 291 243 276 q 289 322 276 306 q 309 356 301 338 q 317 397 317 374 q 289 460 317 443 q 224 478 261 478 q 180 472 200 478 q 143 456 160 465 q 115 438 126 447 q 97 424 103 429 l 60 476 q 126 523 83 501 q 231 544 168 544 q 351 507 308 544 q 394 394 394 469 z "},"₃":{"ha":499,"x_min":63,"x_max":415,"o":"m 203 57 q 310 84 282 57 q 338 151 338 111 q 324 200 338 181 q 288 232 310 219 q 235 249 265 244 q 175 254 206 254 l 157 254 l 157 317 l 178 317 q 227 320 203 317 q 269 334 251 324 q 299 361 288 344 q 310 406 310 378 q 284 463 310 446 q 215 479 258 479 q 140 466 171 479 q 92 440 110 453 l 64 499 q 119 528 79 511 q 218 544 160 544 q 347 508 308 544 q 385 413 385 471 q 300 292 385 326 q 383 242 351 276 q 415 149 415 207 q 403 88 415 117 q 367 38 392 60 q 302 3 342 15 q 207 -10 263 -10 q 119 -1 154 -10 q 63 19 85 8 l 81 85 q 130 66 100 75 q 203 57 160 57 z "},"₄":{"ha":499,"x_min":46,"x_max":451,"o":"m 451 196 l 451 135 l 381 135 l 381 1 l 307 1 l 307 135 l 46 135 l 46 181 q 88 254 60 208 q 153 351 117 300 q 233 451 190 403 q 315 532 275 500 l 381 532 l 381 196 l 451 196 m 307 196 l 307 444 q 257 389 283 421 q 206 323 231 357 q 160 255 182 289 q 125 196 139 221 l 307 196 z "},"₅":{"ha":499,"x_min":68,"x_max":428,"o":"m 428 151 q 377 35 428 81 q 213 -10 326 -10 q 129 0 171 -10 q 68 21 88 10 l 83 85 q 106 76 92 81 q 138 66 119 71 q 175 58 156 61 q 213 54 194 54 q 283 63 256 54 q 324 85 310 71 q 344 115 339 99 q 350 149 350 132 q 341 194 350 172 q 306 232 332 215 q 233 258 281 249 q 106 268 185 268 q 122 397 115 338 q 132 532 129 457 l 401 532 l 401 465 l 196 465 q 190 398 193 433 q 181 328 188 363 q 368 276 308 319 q 428 151 428 233 z "},"₆":{"ha":499,"x_min":64,"x_max":443,"o":"m 150 306 q 206 324 179 319 q 253 328 233 328 q 342 315 306 328 q 401 278 379 301 q 433 226 424 256 q 443 165 443 197 q 432 103 443 135 q 399 47 421 72 q 341 5 376 21 q 258 -11 306 -11 q 111 50 158 -11 q 64 215 64 111 q 153 451 64 371 q 397 536 243 531 l 406 471 q 233 425 301 468 q 150 306 164 382 m 142 246 q 140 233 140 239 q 140 221 140 226 q 146 154 140 185 q 165 101 151 124 q 200 65 178 78 q 257 53 222 53 q 306 63 286 53 q 340 88 326 72 q 359 122 353 103 q 365 161 365 142 q 338 241 365 217 q 254 265 311 265 q 193 260 224 265 q 142 246 163 256 z "},"₇":{"ha":499,"x_min":63,"x_max":439,"o":"m 213 1 l 139 1 q 163 122 143 56 q 213 251 183 188 q 277 372 242 315 q 346 463 313 428 l 63 463 l 63 532 l 439 532 l 439 475 q 373 397 410 447 q 301 281 336 346 q 242 144 267 217 q 213 1 217 72 z "},"₈":{"ha":499,"x_min":58,"x_max":439,"o":"m 439 144 q 388 33 439 76 q 247 -11 336 -11 q 161 1 197 -11 q 102 35 125 14 q 69 83 79 56 q 58 138 58 110 q 87 222 58 190 q 151 274 115 254 q 97 320 119 290 q 74 399 74 350 q 87 456 74 429 q 123 502 100 482 q 178 533 146 522 q 247 544 210 544 q 324 533 292 544 q 378 502 357 521 q 410 458 400 483 q 421 408 421 433 q 397 328 421 360 q 340 275 374 297 q 417 217 394 253 q 439 144 439 182 m 131 146 q 135 114 131 131 q 153 83 140 97 q 190 60 167 69 q 247 51 213 51 q 338 79 311 51 q 364 139 364 107 q 326 206 364 179 q 204 251 289 233 q 151 209 171 235 q 131 146 131 183 m 349 404 q 324 459 349 435 q 247 483 299 483 q 172 460 199 483 q 146 400 146 436 q 177 335 146 358 q 282 294 208 313 q 333 342 317 317 q 349 404 349 368 z "},"₉":{"ha":499,"x_min":56,"x_max":435,"o":"m 349 231 q 292 213 319 217 q 246 208 265 208 q 156 222 193 208 q 97 257 119 235 q 65 308 75 279 q 56 369 56 338 q 67 431 56 400 q 100 488 78 463 q 157 528 122 513 q 240 544 192 544 q 388 483 340 544 q 435 318 435 422 q 345 82 435 165 q 85 -3 256 -1 l 82 63 q 269 108 200 63 q 349 231 338 154 m 244 271 q 306 276 275 271 q 357 290 336 281 q 358 303 358 297 q 358 315 358 310 q 334 434 358 388 q 242 481 310 481 q 192 472 213 481 q 159 447 172 463 q 140 413 146 432 q 133 374 133 393 q 160 294 133 318 q 244 271 188 271 z "},"ℓ":{"ha":581,"x_min":4,"x_max":547,"o":"m 153 357 l 153 761 q 162 883 153 825 q 193 984 171 940 q 254 1053 215 1028 q 354 1078 293 1078 q 449 1054 414 1078 q 504 995 485 1031 q 530 919 524 960 q 536 843 536 878 q 463 567 536 688 q 243 338 389 446 l 243 275 q 247 201 243 239 q 267 133 251 164 q 313 82 283 101 q 392 63 342 63 q 458 74 432 63 q 511 104 485 85 l 547 31 q 482 -5 522 11 q 383 -21 442 -21 q 272 -2 317 -21 q 201 51 228 17 q 164 134 175 85 q 153 244 153 183 l 153 274 l 42 193 l 4 249 l 153 357 m 243 422 q 331 509 293 465 q 396 602 369 553 q 435 709 422 651 q 449 836 449 767 q 445 890 449 863 q 431 942 442 918 q 402 981 421 965 q 354 996 383 996 q 313 985 333 996 q 277 949 293 975 q 252 878 261 924 q 243 764 243 833 l 243 422 z "},"℮":{"ha":1294,"x_min":90,"x_max":1204,"o":"m 301 468 q 294 463 294 468 l 294 189 q 307 158 294 171 q 460 49 374 88 q 647 10 546 10 q 849 55 757 10 q 1007 175 940 100 l 1086 175 q 1002 95 1050 131 q 897 35 954 60 q 776 -4 840 10 q 646 -18 713 -18 q 429 22 531 -18 q 253 128 328 61 q 134 287 178 196 q 90 482 90 378 q 134 677 90 586 q 253 836 178 768 q 429 944 328 904 q 646 983 531 983 q 863 944 761 983 q 1041 836 965 904 q 1160 677 1117 768 q 1204 482 1204 586 l 1204 468 l 301 468 m 999 778 q 986 811 999 796 q 833 915 919 878 q 647 953 747 953 q 461 913 547 953 q 308 806 375 872 q 298 791 301 800 q 294 772 294 782 l 294 504 q 301 494 294 494 l 993 494 q 999 504 999 494 l 999 778 z "},"⅓":{"ha":1203,"x_min":85,"x_max":1119,"o":"m 103 803 l 85 861 q 182 903 133 876 q 265 971 231 931 l 317 971 l 317 440 l 242 440 l 242 863 q 206 842 226 851 q 167 824 186 832 q 130 810 147 815 q 103 803 113 804 m 829 963 l 921 963 l 372 0 l 281 0 l 829 963 m 907 57 q 1014 84 986 57 q 1042 151 1042 111 q 1028 200 1042 181 q 992 232 1014 219 q 940 249 969 244 q 879 254 910 254 l 861 254 l 861 317 l 882 317 q 931 320 907 317 q 974 334 956 324 q 1003 361 992 344 q 1014 406 1014 378 q 988 463 1014 446 q 919 479 963 479 q 844 466 875 479 q 796 440 814 453 l 768 499 q 824 528 783 511 q 922 544 864 544 q 1051 508 1013 544 q 1089 413 1089 471 q 1004 292 1089 326 q 1088 242 1056 276 q 1119 149 1119 207 q 1108 88 1119 117 q 1071 38 1096 60 q 1006 3 1046 15 q 911 -10 967 -10 q 824 -1 858 -10 q 767 19 789 8 l 785 85 q 834 66 804 75 q 907 57 864 57 z "},"⅔":{"ha":1203,"x_min":60,"x_max":1119,"o":"m 394 833 q 384 779 394 804 q 357 733 374 754 q 319 692 340 711 q 274 654 297 672 q 215 603 238 625 q 178 564 192 581 q 160 533 165 547 q 156 507 156 519 l 421 507 l 421 440 l 76 440 q 75 454 75 447 q 75 468 75 461 q 89 542 75 510 q 124 602 103 575 q 172 652 146 629 q 224 699 199 675 q 260 730 243 715 q 289 760 276 744 q 309 794 301 776 q 317 836 317 813 q 289 899 317 882 q 224 917 261 917 q 180 910 200 917 q 143 895 160 904 q 115 877 126 886 q 97 863 103 868 l 60 915 q 126 962 83 940 q 231 983 168 983 q 351 946 308 983 q 394 833 394 908 m 829 963 l 921 963 l 372 0 l 281 0 l 829 963 m 907 57 q 1014 84 986 57 q 1042 151 1042 111 q 1028 200 1042 181 q 992 232 1014 219 q 940 249 969 244 q 879 254 910 254 l 861 254 l 861 317 l 882 317 q 931 320 907 317 q 974 334 956 324 q 1003 361 992 344 q 1014 406 1014 378 q 988 463 1014 446 q 919 479 963 479 q 844 466 875 479 q 796 440 814 453 l 768 499 q 824 528 783 511 q 922 544 864 544 q 1051 508 1013 544 q 1089 413 1089 471 q 1004 292 1089 326 q 1088 242 1056 276 q 1119 149 1119 207 q 1108 88 1119 117 q 1071 38 1096 60 q 1006 3 1046 15 q 911 -10 967 -10 q 824 -1 858 -10 q 767 19 789 8 l 785 85 q 834 66 804 75 q 907 57 864 57 z "},"⅛":{"ha":1203,"x_min":85,"x_max":1143,"o":"m 103 803 l 85 861 q 182 903 133 876 q 265 971 231 931 l 317 971 l 317 440 l 242 440 l 242 863 q 206 842 226 851 q 167 824 186 832 q 130 810 147 815 q 103 803 113 804 m 829 963 l 921 963 l 372 0 l 281 0 l 829 963 m 1143 144 q 1092 33 1143 76 q 951 -11 1040 -11 q 865 1 901 -11 q 806 35 829 14 q 773 83 783 56 q 763 138 763 110 q 791 222 763 190 q 856 274 819 254 q 801 320 824 290 q 778 399 778 350 q 791 456 778 429 q 827 502 804 482 q 882 533 850 522 q 951 544 914 544 q 1028 533 996 544 q 1083 502 1061 521 q 1115 458 1104 483 q 1125 408 1125 433 q 1101 328 1125 360 q 1044 275 1078 297 q 1121 217 1099 253 q 1143 144 1143 182 m 835 146 q 840 114 835 131 q 858 83 844 97 q 894 60 871 69 q 951 51 917 51 q 1042 79 1015 51 q 1068 139 1068 107 q 1031 206 1068 179 q 908 251 993 233 q 855 209 875 235 q 835 146 835 183 m 1053 404 q 1028 459 1053 435 q 951 483 1003 483 q 876 460 903 483 q 850 400 850 436 q 881 335 850 358 q 986 294 913 313 q 1037 342 1021 317 q 1053 404 1053 368 z "},"⅜":{"ha":1203,"x_min":63,"x_max":1143,"o":"m 203 496 q 310 523 282 496 q 338 590 338 550 q 324 639 338 619 q 288 671 310 658 q 235 688 265 683 q 175 693 206 693 l 157 693 l 157 756 l 178 756 q 227 759 203 756 q 269 773 251 763 q 299 800 288 783 q 310 844 310 817 q 284 901 310 885 q 215 918 258 918 q 140 905 171 918 q 92 879 110 892 l 64 938 q 119 967 79 950 q 218 983 160 983 q 347 947 308 983 q 385 851 385 910 q 300 731 385 765 q 383 681 351 715 q 415 588 415 646 q 403 527 415 556 q 367 476 392 499 q 302 442 342 454 q 207 429 263 429 q 119 438 154 429 q 63 458 85 447 l 81 524 q 130 505 100 514 q 203 496 160 496 m 829 963 l 921 963 l 372 0 l 281 0 l 829 963 m 1143 144 q 1092 33 1143 76 q 951 -11 1040 -11 q 865 1 901 -11 q 806 35 829 14 q 773 83 783 56 q 763 138 763 110 q 791 222 763 190 q 856 274 819 254 q 801 320 824 290 q 778 399 778 350 q 791 456 778 429 q 827 502 804 482 q 882 533 850 522 q 951 544 914 544 q 1028 533 996 544 q 1083 502 1061 521 q 1115 458 1104 483 q 1125 408 1125 433 q 1101 328 1125 360 q 1044 275 1078 297 q 1121 217 1099 253 q 1143 144 1143 182 m 835 146 q 840 114 835 131 q 858 83 844 97 q 894 60 871 69 q 951 51 917 51 q 1042 79 1015 51 q 1068 139 1068 107 q 1031 206 1068 179 q 908 251 993 233 q 855 209 875 235 q 835 146 835 183 m 1053 404 q 1028 459 1053 435 q 951 483 1003 483 q 876 460 903 483 q 850 400 850 436 q 881 335 850 358 q 986 294 913 313 q 1037 342 1021 317 q 1053 404 1053 368 z "},"⅝":{"ha":1203,"x_min":64,"x_max":1143,"o":"m 424 590 q 373 474 424 519 q 208 429 322 429 q 125 439 167 429 q 64 460 83 449 l 79 524 q 101 515 88 519 q 133 505 115 510 q 171 497 151 500 q 208 493 190 493 q 278 501 251 493 q 320 524 306 510 q 340 554 335 538 q 346 588 346 571 q 337 633 346 611 q 302 671 328 654 q 228 697 276 688 q 101 707 181 707 q 118 836 111 776 q 128 971 125 896 l 397 971 l 397 904 l 192 904 q 186 837 189 872 q 176 767 183 801 q 364 715 304 758 q 424 590 424 672 m 829 963 l 921 963 l 372 0 l 281 0 l 829 963 m 1143 144 q 1092 33 1143 76 q 951 -11 1040 -11 q 865 1 901 -11 q 806 35 829 14 q 773 83 783 56 q 763 138 763 110 q 791 222 763 190 q 856 274 819 254 q 801 320 824 290 q 778 399 778 350 q 791 456 778 429 q 827 502 804 482 q 882 533 850 522 q 951 544 914 544 q 1028 533 996 544 q 1083 502 1061 521 q 1115 458 1104 483 q 1125 408 1125 433 q 1101 328 1125 360 q 1044 275 1078 297 q 1121 217 1099 253 q 1143 144 1143 182 m 835 146 q 840 114 835 131 q 858 83 844 97 q 894 60 871 69 q 951 51 917 51 q 1042 79 1015 51 q 1068 139 1068 107 q 1031 206 1068 179 q 908 251 993 233 q 855 209 875 235 q 835 146 835 183 m 1053 404 q 1028 459 1053 435 q 951 483 1003 483 q 876 460 903 483 q 850 400 850 436 q 881 335 850 358 q 986 294 913 313 q 1037 342 1021 317 q 1053 404 1053 368 z "},"⅞":{"ha":1203,"x_min":63,"x_max":1143,"o":"m 213 440 l 139 440 q 163 560 143 494 q 213 690 183 626 q 277 810 242 754 q 346 901 313 867 l 63 901 l 63 971 l 439 971 l 439 914 q 373 835 410 886 q 301 720 336 785 q 242 583 267 656 q 213 440 217 511 m 829 963 l 921 963 l 372 0 l 281 0 l 829 963 m 1143 144 q 1092 33 1143 76 q 951 -11 1040 -11 q 865 1 901 -11 q 806 35 829 14 q 773 83 783 56 q 763 138 763 110 q 791 222 763 190 q 856 274 819 254 q 801 320 824 290 q 778 399 778 350 q 791 456 778 429 q 827 502 804 482 q 882 533 850 522 q 951 544 914 544 q 1028 533 996 544 q 1083 502 1061 521 q 1115 458 1104 483 q 1125 408 1125 433 q 1101 328 1125 360 q 1044 275 1078 297 q 1121 217 1099 253 q 1143 144 1143 182 m 835 146 q 840 114 835 131 q 858 83 844 97 q 894 60 871 69 q 951 51 917 51 q 1042 79 1015 51 q 1068 139 1068 107 q 1031 206 1068 179 q 908 251 993 233 q 855 209 875 235 q 835 146 835 183 m 1053 404 q 1028 459 1053 435 q 951 483 1003 483 q 876 460 903 483 q 850 400 850 436 q 881 335 850 358 q 986 294 913 313 q 1037 342 1021 317 q 1053 404 1053 368 z "},"⅕":{"ha":1203,"x_min":85,"x_max":1128,"o":"m 103 803 l 85 861 q 182 903 133 876 q 265 971 231 931 l 317 971 l 317 440 l 242 440 l 242 863 q 206 842 226 851 q 167 824 186 832 q 130 810 147 815 q 103 803 113 804 m 829 963 l 921 963 l 372 0 l 281 0 l 829 963 m 1128 151 q 1077 35 1128 81 q 913 -10 1026 -10 q 829 0 871 -10 q 768 21 788 10 l 783 85 q 806 76 792 81 q 838 66 819 71 q 875 58 856 61 q 913 54 894 54 q 983 63 956 54 q 1024 85 1010 71 q 1044 115 1039 99 q 1050 149 1050 132 q 1041 194 1050 172 q 1006 232 1032 215 q 933 258 981 249 q 806 268 885 268 q 822 397 815 338 q 832 532 829 457 l 1101 532 l 1101 465 l 896 465 q 890 398 893 433 q 881 328 888 363 q 1068 276 1008 319 q 1128 151 1128 233 z "},"⅖":{"ha":1203,"x_min":60,"x_max":1128,"o":"m 394 833 q 384 779 394 804 q 357 733 374 754 q 319 692 340 711 q 274 654 297 672 q 215 603 238 625 q 178 564 192 581 q 160 533 165 547 q 156 507 156 519 l 421 507 l 421 440 l 76 440 q 75 454 75 447 q 75 468 75 461 q 89 542 75 510 q 124 602 103 575 q 172 652 146 629 q 224 699 199 675 q 260 730 243 715 q 289 760 276 744 q 309 794 301 776 q 317 836 317 813 q 289 899 317 882 q 224 917 261 917 q 180 910 200 917 q 143 895 160 904 q 115 877 126 886 q 97 863 103 868 l 60 915 q 126 962 83 940 q 231 983 168 983 q 351 946 308 983 q 394 833 394 908 m 829 963 l 921 963 l 372 0 l 281 0 l 829 963 m 1128 151 q 1077 35 1128 81 q 913 -10 1026 -10 q 829 0 871 -10 q 768 21 788 10 l 783 85 q 806 76 792 81 q 838 66 819 71 q 875 58 856 61 q 913 54 894 54 q 983 63 956 54 q 1024 85 1010 71 q 1044 115 1039 99 q 1050 149 1050 132 q 1041 194 1050 172 q 1006 232 1032 215 q 933 258 981 249 q 806 268 885 268 q 822 397 815 338 q 832 532 829 457 l 1101 532 l 1101 465 l 896 465 q 890 398 893 433 q 881 328 888 363 q 1068 276 1008 319 q 1128 151 1128 233 z "}}}
